<svg width="16" height="17" viewBox="0 0 16 17" fill="none" xmlns="http://www.w3.org/2000/svg">
<g id="Icon">
<path id="Vector" d="M7.79688 3.26172V2.49609C7.79688 2.41276 7.82552 2.34245 7.88281 2.28516C7.9401 2.22786 8.01042 2.19922 8.09375 2.19922C8.17708 2.19922 8.25 2.22786 8.3125 2.28516C8.375 2.34245 8.40625 2.41276 8.40625 2.49609V3.26172H9.875C10.2396 3.26172 10.5521 3.39193 10.8125 3.65234C11.0729 3.91276 11.2031 4.22526 11.2031 4.58984V12.9648C11.2031 13.3294 11.0729 13.6393 10.8125 13.8945C10.5521 14.1497 10.2396 14.2773 9.875 14.2773H1.32812C0.963542 14.2773 0.651042 14.1497 0.390625 13.8945C0.130208 13.6393 0 13.3294 0 12.9648V4.58984C0 4.22526 0.130208 3.91276 0.390625 3.65234C0.651042 3.39193 0.963542 3.26172 1.32812 3.26172H2.8125V2.49609C2.8125 2.41276 2.84115 2.34245 2.89844 2.28516C2.95573 2.22786 3.02604 2.19922 3.10938 2.19922C3.19271 2.19922 3.26562 2.22786 3.32812 2.28516C3.39062 2.34245 3.42188 2.41276 3.42188 2.49609V3.26172H5.29688V2.49609C5.29688 2.41276 5.32812 2.34245 5.39062 2.28516C5.45312 2.22786 5.52604 2.19922 5.60938 2.19922C5.69271 2.19922 5.76302 2.22786 5.82031 2.28516C5.8776 2.34245 5.90625 2.41276 5.90625 2.49609V3.26172H7.79688ZM7.79688 3.85547H5.90625V4.52734C5.90625 4.61068 5.8776 4.68099 5.82031 4.73828C5.76302 4.79557 5.69271 4.82422 5.60938 4.82422C5.52604 4.82422 5.45312 4.79557 5.39062 4.73828C5.32812 4.68099 5.29688 4.61068 5.29688 4.52734V3.85547H3.42188V4.52734C3.42188 4.61068 3.39062 4.68099 3.32812 4.73828C3.26562 4.79557 3.19271 4.82422 3.10938 4.82422C3.02604 4.82422 2.95573 4.79557 2.89844 4.73828C2.84115 4.68099 2.8125 4.61068 2.8125 4.52734V3.85547H1.40625C1.17708 3.85547 0.984375 3.93359 0.828125 4.08984C0.671875 4.25651 0.59375 4.44922 0.59375 4.66797V6.04297H10.6094V4.66797C10.6094 4.44922 10.5312 4.25651 10.375 4.08984C10.2188 3.93359 10.026 3.85547 9.79688 3.85547H8.40625V4.52734C8.40625 4.61068 8.375 4.68099 8.3125 4.73828C8.25 4.79557 8.17708 4.82422 8.09375 4.82422C8.01042 4.82422 7.9401 4.79557 7.88281 4.73828C7.82552 4.68099 7.79688 4.61068 7.79688 4.52734V3.85547ZM0.828125 13.4492C0.984375 13.6055 1.17708 13.6836 1.40625 13.6836H9.79688C10.026 13.6836 10.2188 13.6055 10.375 13.4492C10.5312 13.293 10.6094 13.1003 10.6094 12.8711V6.65234H0.59375V12.8711C0.59375 13.1003 0.671875 13.293 0.828125 13.4492Z" fill="#85868F"/>
</g>
</svg>
