<svg width="30" height="30" viewBox="0 0 30 30" fill="none" xmlns="http://www.w3.org/2000/svg">
<g id="map:grocery-or-supermarket" clip-path="url(#clip0_134_2864)">
<path id="Vector" d="M26.4 27.6C27.7255 27.6 28.8 26.5255 28.8 25.2C28.8 23.8745 27.7255 22.8 26.4 22.8C25.0745 22.8 24 23.8745 24 25.2C24 26.5255 25.0745 27.6 26.4 27.6Z" fill="black"/>
<path id="Vector_2" d="M8.99961 27.6C10.3251 27.6 11.3996 26.5255 11.3996 25.2C11.3996 23.8745 10.3251 22.8 8.99961 22.8C7.67413 22.8 6.59961 23.8745 6.59961 25.2C6.59961 26.5255 7.67413 27.6 8.99961 27.6Z" fill="black"/>
<path id="Vector_3" d="M28.2 19.8H9.4626L9.8628 19.1508C10.0344 18.8724 10.0848 18.5358 10.0026 18.219L9.612 16.7154L27.0018 15.8118C27.6612 15.7782 28.2 15.21 28.2 14.55V6.60001C28.2 5.94001 27.66 5.40001 27 5.40001H6.6714L6.4368 4.49821C6.36996 4.241 6.21964 4.01326 6.00941 3.8507C5.79919 3.68814 5.54095 3.59997 5.2752 3.60001H1.2C0.88174 3.60001 0.576515 3.72643 0.351472 3.95148C0.126428 4.17652 0 4.48175 0 4.80001C0 5.11827 0.126428 5.42349 0.351472 5.64853C0.576515 5.87358 0.88174 6.00001 1.2 6.00001H4.3476L7.5516 18.327L6.2916 20.37C6.17952 20.5518 6.11804 20.7602 6.1135 20.9737C6.10897 21.1872 6.16155 21.398 6.2658 21.5844C6.36963 21.771 6.52144 21.9265 6.70552 22.0347C6.8896 22.1429 7.09926 22.2 7.3128 22.2H28.2C28.5183 22.2 28.8235 22.0736 29.0485 21.8485C29.2736 21.6235 29.4 21.3183 29.4 21C29.4 20.6817 29.2736 20.3765 29.0485 20.1515C28.8235 19.9264 28.5183 19.8 28.2 19.8Z" fill="black"/>
</g>
<defs>
<clipPath id="clip0_134_2864">
<rect width="30" height="30" fill="white"/>
</clipPath>
</defs>
</svg>
