<svg width="21" height="22" viewBox="0 0 21 22" fill="none" xmlns="http://www.w3.org/2000/svg">
<g id="Icon" clip-path="url(#clip0_49_8546)">
<path id="Vector" d="M13.7831 5.85206C12.9489 5.01789 11.9812 4.41508 10.8798 4.04361C9.77845 3.67215 8.65102 3.5581 7.49753 3.70148C6.34403 3.84485 5.27851 4.24564 4.30097 4.90385C3.32343 5.56206 2.54466 6.39297 1.96465 7.39657C1.38465 8.40018 1.05554 9.48199 0.977339 10.642C0.899136 11.802 1.08487 12.9262 1.53454 14.0145C1.9842 15.1028 2.64567 16.0282 3.51894 16.7907C4.39221 17.5532 5.3893 18.0876 6.51021 18.3939C7.63112 18.7002 8.76833 18.7393 9.92182 18.5112C11.0753 18.2831 12.1115 17.8139 13.0304 17.1035C13.9493 16.3932 14.6694 15.5199 15.1908 14.4837C15.7121 13.4475 15.9728 12.3364 15.9728 11.1503C15.9728 10.1597 15.7838 9.20176 15.4058 8.27636C15.0278 7.35095 14.4869 6.54286 13.7831 5.85206ZM8.46529 17.8953C7.25314 17.8953 6.12571 17.589 5.083 16.9765C4.06636 16.3899 3.25826 15.5883 2.65871 14.5717C2.04612 13.529 1.73982 12.3983 1.73982 11.1796C1.73982 9.96098 2.04612 8.8303 2.65871 7.78759C3.25826 6.77095 4.06636 5.96937 5.083 5.38284C6.12571 4.77025 7.25314 4.46396 8.46529 4.46396C9.67744 4.46396 10.8049 4.77025 11.8476 5.38284C12.8642 5.96937 13.6723 6.77095 14.2719 7.78759C14.8845 8.8303 15.1875 9.96098 15.181 11.1796C15.1745 12.3983 14.8714 13.529 14.2719 14.5717C13.6723 15.5753 12.8642 16.3769 11.8476 16.9765C10.8049 17.589 9.67744 17.8953 8.46529 17.8953ZM12.9229 8.60872C12.8577 8.51748 12.773 8.45883 12.6687 8.43276C12.5644 8.4067 12.4667 8.41973 12.3754 8.47187L8.46529 10.7202L5.43492 8.58917C5.34368 8.53703 5.24919 8.52074 5.15143 8.54029C5.05368 8.55984 4.97222 8.61198 4.90705 8.6967C4.84188 8.78142 4.81907 8.87591 4.83862 8.98019C4.85817 9.08446 4.90705 9.16918 4.98525 9.23435L8.23068 11.5022H8.56304L12.6687 9.13659C12.773 9.08446 12.8381 9.00299 12.8642 8.89221C12.8903 8.78142 12.8772 8.68041 12.8251 8.58917L12.9229 8.60872Z" fill="#8000FF"/>
</g>
<defs>
<clipPath id="clip0_49_8546">
<rect width="20.02" height="21" fill="white" transform="matrix(1 0 0 -1 0.959961 21.6504)"/>
</clipPath>
</defs>
</svg>
