<svg width="16" height="16" viewBox="0 0 16 16" fill="none" xmlns="http://www.w3.org/2000/svg">
<g clip-path="url(#clip0_49_3848)">
<path d="M5.95691 8.62207L10.4247 13.0898C10.493 13.1582 10.5809 13.1924 10.6884 13.1924C10.7958 13.1924 10.8885 13.1558 10.9667 13.0825C11.0448 13.0093 11.0839 12.9189 11.0839 12.8115C11.0839 12.7041 11.0497 12.6162 10.9813 12.5479L6.4989 8.08008L10.9667 3.62695C11.035 3.54883 11.0692 3.45605 11.0692 3.34863C11.0692 3.24121 11.0326 3.15088 10.9594 3.07764C10.8861 3.00439 10.7958 2.96777 10.6884 2.96777C10.5809 2.96777 10.493 3.00195 10.4247 3.07031L5.95691 7.53809L1.50378 3.07031C1.42566 2.99219 1.33289 2.95312 1.22546 2.95312C1.11804 2.95312 1.02771 2.98975 0.954468 3.06299C0.881226 3.13623 0.844604 3.22656 0.844604 3.33398C0.844604 3.44141 0.878784 3.53418 0.947144 3.6123L5.41492 8.08008L0.947144 12.5479C0.869019 12.6162 0.829956 12.7041 0.829956 12.8115C0.829956 12.9189 0.869019 13.0117 0.947144 13.0898C1.02527 13.168 1.1156 13.207 1.21814 13.207C1.32068 13.207 1.41589 13.168 1.50378 13.0898L5.95691 8.62207Z" fill="#50525F"/>
</g>
<defs>
<clipPath id="clip0_49_3848">
<rect width="15" height="15" fill="white" transform="matrix(1 0 0 -1 0.829956 15.5801)"/>
</clipPath>
</defs>
</svg>
