<svg width="28" height="25" viewBox="0 0 28 25" fill="none" xmlns="http://www.w3.org/2000/svg">
<g clip-path="url(#clip0_49_1499)">
<path d="M16.1303 4.16797C15.4428 3.73047 14.6928 3.48828 13.8803 3.44141C13.0678 3.39453 12.2944 3.55078 11.56 3.91016C11.5131 3.92578 11.4662 3.95703 11.4194 4.00391L1.41155 14.0117C1.34905 14.0742 1.30999 14.1602 1.29436 14.2695L0.333426 20.9023C0.317801 21.043 0.356864 21.168 0.450614 21.2773C0.544364 21.3867 0.661551 21.4414 0.802176 21.4414H0.872489L7.5053 20.5039C7.59905 20.4883 7.68499 20.4414 7.76311 20.3633L17.7944 10.3555C17.8256 10.3086 17.8569 10.2617 17.8881 10.2148C18.185 9.55859 18.3334 8.87891 18.3334 8.17578C18.3334 7.36328 18.1342 6.60156 17.7358 5.89062C17.3373 5.17969 16.8022 4.60547 16.1303 4.16797ZM17.3959 8.17578C17.3959 8.70703 17.2787 9.22266 17.0444 9.72266L15.9662 10.8242C15.935 9.91797 15.6928 9.08984 15.2397 8.33984C14.7866 7.58984 14.1811 6.98828 13.4233 6.53516C12.6655 6.08203 11.8412 5.83984 10.9506 5.80859L12.0287 4.70703C12.5287 4.48828 13.0522 4.37891 13.5991 4.37891C14.0991 4.37891 14.5795 4.47266 15.0405 4.66016C15.5014 4.84766 15.9116 5.12109 16.2709 5.48047C16.6303 5.83984 16.9076 6.25 17.103 6.71094C17.2983 7.17188 17.3959 7.66016 17.3959 8.17578ZM2.13811 14.8086C2.32561 14.793 2.5053 14.793 2.67718 14.8086C3.45843 14.8086 4.17327 15 4.82171 15.3828C5.47014 15.7656 5.98577 16.2812 6.36858 16.9297C6.7514 17.5781 6.9428 18.293 6.9428 19.0742C6.95843 19.2461 6.95843 19.4258 6.9428 19.6133L4.10686 20.0117C4.10686 19.3555 3.87639 18.7969 3.41546 18.3359C2.95452 17.875 2.39593 17.6445 1.73968 17.6445L2.13811 14.8086ZM10.7631 6.74609C11.2475 6.74609 11.7162 6.82812 12.1694 6.99219C12.6225 7.15625 13.0366 7.38672 13.4116 7.68359L6.02874 15.0664C5.59124 14.707 5.10296 14.4219 4.5639 14.2109C4.02483 14 3.46624 13.8867 2.88811 13.8711L9.91936 6.83984C10.185 6.77734 10.4662 6.74609 10.7631 6.74609ZM14.0678 8.36328C14.4741 8.84766 14.7514 9.39453 14.8998 10.0039C15.0483 10.6133 15.06 11.2305 14.935 11.8555L7.90374 18.8867C7.87249 18.3086 7.7553 17.75 7.55218 17.2109C7.34905 16.6719 7.05999 16.1836 6.68499 15.7461L14.0678 8.36328ZM1.62249 18.582H1.73968C2.14593 18.582 2.48577 18.7188 2.75921 18.9922C3.03265 19.2656 3.16936 19.6055 3.16936 20.0117V20.1289L1.36468 20.3867L1.62249 18.582Z" fill="#8000FF"/>
</g>
<defs>
<clipPath id="clip0_49_1499">
<rect width="24" height="24" fill="white" transform="matrix(1 0 0 -1 0.330078 24.4414)"/>
</clipPath>
</defs>
</svg>
