<svg width="41" height="40" viewBox="0 0 41 40" fill="none" xmlns="http://www.w3.org/2000/svg">
<rect x="0.189453" width="40" height="40" rx="20" fill="#8000FF"/>
<g clip-path="url(#clip0_49_1384)">
<g clip-path="url(#clip1_49_1384)">
<g clip-path="url(#clip2_49_1384)">
<path fill-rule="evenodd" clip-rule="evenodd" d="M23.6894 19.0005C23.6916 18.3737 23.5254 17.7577 23.2082 17.217C22.8909 16.6764 22.4343 16.2308 21.886 15.927C21.3377 15.6231 20.7178 15.4721 20.0912 15.4897C19.4646 15.5072 18.8542 15.6928 18.3238 16.027C17.7934 16.3611 17.3625 16.8316 17.0761 17.3892C16.7897 17.9468 16.6583 18.5711 16.6957 19.1969C16.733 19.8226 16.9378 20.4269 17.2885 20.9465C18.1488 22.2208 19.3152 23.1309 20.1894 24.5005C21.0713 23.1189 22.3143 22.1748 23.1457 20.8653C23.4997 20.3077 23.6883 19.661 23.6894 19.0005ZM20.1894 20.5005C19.8927 20.5005 19.6027 20.4125 19.356 20.2477C19.1094 20.0829 18.9171 19.8486 18.8036 19.5746C18.6901 19.3005 18.6604 18.9989 18.7183 18.7079C18.7761 18.4169 18.919 18.1496 19.1288 17.9399C19.3385 17.7301 19.6058 17.5872 19.8968 17.5293C20.1877 17.4715 20.4893 17.5012 20.7634 17.6147C21.0375 17.7282 21.2718 17.9205 21.4366 18.1672C21.6014 18.4138 21.6894 18.7038 21.6894 19.0005C21.6894 19.3983 21.5314 19.7799 21.2501 20.0612C20.9688 20.3425 20.5872 20.5005 20.1894 20.5005Z" fill="white"/>
<path fill-rule="evenodd" clip-rule="evenodd" d="M9.36127 13.1673C9.23853 13.4869 9.18013 13.8277 9.18944 14.17V17.5C9.18944 17.7652 9.29479 18.0196 9.48233 18.2071C9.66987 18.3946 9.92422 18.5 10.1894 18.5C10.5619 18.5257 10.909 18.698 11.1545 18.9792C11.4001 19.2604 11.5242 19.6275 11.4994 20C11.5242 20.3725 11.4001 20.7396 11.1545 21.0208C10.909 21.302 10.5619 21.4743 10.1894 21.5C9.92422 21.5 9.66987 21.6054 9.48233 21.7929C9.29479 21.9804 9.18944 22.2348 9.18944 22.5V25.83C9.18013 26.1723 9.23853 26.513 9.36127 26.8327C9.48402 27.1524 9.6687 27.4446 9.90471 27.6927C10.1407 27.9408 10.4234 28.1398 10.7366 28.2784C11.0497 28.4169 11.3871 28.4922 11.7294 28.5H28.6495C28.9918 28.4922 29.3292 28.4169 29.6424 28.2784C29.9555 28.1398 30.2382 27.9408 30.4742 27.6927C30.7102 27.4446 30.8949 27.1524 31.0176 26.8327C31.1404 26.513 31.1988 26.1723 31.1895 25.83V22.5C31.1895 22.2348 31.0841 21.9804 30.8966 21.7929C30.7091 21.6054 30.4547 21.5 30.1895 21.5C29.817 21.4743 29.47 21.302 29.2244 21.0208C28.9788 20.7396 28.8548 20.3725 28.8795 20C28.8548 19.6275 28.9788 19.2604 29.2244 18.9792C29.47 18.698 29.817 18.5257 30.1895 18.5C30.4547 18.5 30.7091 18.3946 30.8966 18.2071C31.0841 18.0196 31.1895 17.7652 31.1895 17.5V14.17C31.1988 13.8277 31.1404 13.4869 31.0176 13.1673C30.8949 12.8476 30.7102 12.5554 30.4742 12.3073C30.2382 12.0592 29.9555 11.8602 29.6424 11.7216C29.3292 11.5831 28.9918 11.5078 28.6495 11.5H11.7294C11.3871 11.5078 11.0497 11.5831 10.7366 11.7216C10.4234 11.8602 10.1407 12.0592 9.90471 12.3073C9.6687 12.5554 9.48402 12.8476 9.36127 13.1673ZM11.3212 13.7236C11.4224 13.598 11.5691 13.5176 11.7294 13.5H28.6495C28.8098 13.5176 28.9566 13.598 29.0578 13.7236C29.159 13.8491 29.2063 14.0096 29.1895 14.17V16.66C28.5108 16.9162 27.9263 17.373 27.5137 17.9697C27.1012 18.5664 26.8802 19.2746 26.8802 20C26.8802 20.7254 27.1012 21.4336 27.5137 22.0303C27.9263 22.627 28.5108 23.0838 29.1895 23.34V25.83C29.2063 25.9904 29.159 26.1509 29.0578 26.2764C28.9566 26.402 28.8098 26.4824 28.6495 26.5H11.7294C11.5691 26.4824 11.4224 26.402 11.3212 26.2764C11.22 26.1509 11.1726 25.9904 11.1894 25.83V23.34C11.8681 23.0838 12.4527 22.627 12.8652 22.0303C13.2778 21.4336 13.4988 20.7254 13.4988 20C13.4988 19.2746 13.2778 18.5664 12.8652 17.9697C12.4527 17.373 11.8681 16.9162 11.1894 16.66V14.17C11.1726 14.0096 11.22 13.8491 11.3212 13.7236Z" fill="white"/>
</g>
</g>
</g>
<defs>
<clipPath id="clip0_49_1384">
<rect width="22" height="17" fill="white" transform="translate(9.18945 11.5)"/>
</clipPath>
<clipPath id="clip1_49_1384">
<rect width="22" height="17" fill="white" transform="translate(9.18945 11.5)"/>
</clipPath>
<clipPath id="clip2_49_1384">
<rect width="22" height="17" fill="white" transform="translate(9.18945 11.5)"/>
</clipPath>
</defs>
</svg>
