<svg width="21" height="30" viewBox="0 0 21 30" fill="none" xmlns="http://www.w3.org/2000/svg">
<g clip-path="url(#clip0_49_1559)">
<path d="M14.5424 8.11035C14.6335 8.11035 14.7149 8.1429 14.7865 8.20801C14.8581 8.27311 14.8939 8.35775 14.8939 8.46191V11.958C14.8939 12.0622 14.8614 12.1468 14.7963 12.2119C14.7312 12.277 14.6498 12.3096 14.5521 12.3096C14.4545 12.3096 14.3698 12.277 14.2982 12.2119C14.2266 12.1468 14.1908 12.0622 14.1908 11.958V9.34082L6.39783 17.1143C6.3197 17.1794 6.23181 17.2119 6.13416 17.2119C6.0365 17.2119 5.95512 17.1794 5.89001 17.1143C5.82491 17.0492 5.79236 16.9678 5.79236 16.8701C5.79236 16.7725 5.82491 16.6846 5.89001 16.6064L13.722 8.81348H11.0463C10.9421 8.81348 10.8575 8.77767 10.7924 8.70605C10.7273 8.63444 10.6947 8.5498 10.6947 8.45215C10.6947 8.35449 10.7273 8.27311 10.7924 8.20801C10.8575 8.1429 10.9421 8.11035 11.0463 8.11035H14.5424ZM12.433 22.1143H1.9447C1.64522 22.1143 1.39457 22.0101 1.19275 21.8018C0.990926 21.5934 0.890015 21.346 0.890015 21.0596V10.5518C0.890015 10.2653 0.990926 10.0212 1.19275 9.81934C1.39457 9.61751 1.64522 9.5166 1.9447 9.5166H8.93689C9.02804 9.5166 9.10942 9.54915 9.18103 9.61426C9.25264 9.67936 9.28845 9.76074 9.28845 9.8584C9.28845 9.95605 9.25264 10.0374 9.18103 10.1025C9.10942 10.1676 9.02804 10.2002 8.93689 10.2002H1.9447C1.84054 10.2002 1.7559 10.236 1.6908 10.3076C1.62569 10.3792 1.59314 10.4606 1.59314 10.5518V21.0596C1.59314 21.1507 1.62569 21.2321 1.6908 21.3037C1.7559 21.3753 1.84054 21.4111 1.9447 21.4111H12.433C12.5372 21.4111 12.6218 21.3753 12.6869 21.3037C12.752 21.2321 12.7845 21.1507 12.7845 21.0596V14.0674C12.7845 13.9632 12.8204 13.8786 12.892 13.8135C12.9636 13.7484 13.045 13.7158 13.1361 13.7158C13.2273 13.7158 13.3086 13.7484 13.3802 13.8135C13.4519 13.8786 13.4877 13.9632 13.4877 14.0674V21.0596C13.4877 21.346 13.3835 21.5934 13.1752 21.8018C12.9668 22.0101 12.7194 22.1143 12.433 22.1143Z" fill="#8000FF"/>
</g>
<defs>
<clipPath id="clip0_49_1559">
<rect width="20" height="36.91" fill="white" transform="matrix(1 0 0 -1 0.890015 33.46)"/>
</clipPath>
</defs>
</svg>
