<svg width="19" height="19" viewBox="0 0 19 19" fill="none" xmlns="http://www.w3.org/2000/svg">
<g id="ep:female">
<path id="Vector" d="M9.5 11.875C10.7598 11.875 11.968 11.3746 12.8588 10.4838C13.7496 9.59296 14.25 8.38478 14.25 7.125C14.25 5.86522 13.7496 4.65704 12.8588 3.76624C11.968 2.87545 10.7598 2.375 9.5 2.375C8.24022 2.375 7.03204 2.87545 6.14124 3.76624C5.25044 4.65704 4.75 5.86522 4.75 7.125C4.75 8.38478 5.25044 9.59296 6.14124 10.4838C7.03204 11.3746 8.24022 11.875 9.5 11.875ZM9.5 13.0625C7.92528 13.0625 6.41505 12.4369 5.30155 11.3234C4.18806 10.2099 3.5625 8.69972 3.5625 7.125C3.5625 5.55028 4.18806 4.04005 5.30155 2.92655C6.41505 1.81306 7.92528 1.1875 9.5 1.1875C11.0747 1.1875 12.5849 1.81306 13.6984 2.92655C14.8119 4.04005 15.4375 5.55028 15.4375 7.125C15.4375 8.69972 14.8119 10.2099 13.6984 11.3234C12.5849 12.4369 11.0747 13.0625 9.5 13.0625Z" fill="black"/>
<path id="Vector_2" d="M9.5 11.875C9.89583 11.875 10.0938 12.0729 10.0938 12.4688V17.2188C10.0938 17.6146 9.89583 17.8125 9.5 17.8125C9.10417 17.8125 8.90625 17.6146 8.90625 17.2188V12.4688C8.90625 12.0729 9.10417 11.875 9.5 11.875Z" fill="black"/>
<path id="Vector_3" d="M6.53125 14.8438H12.4688C12.8646 14.8438 13.0625 15.0417 13.0625 15.4375C13.0625 15.8333 12.8646 16.0312 12.4688 16.0312H6.53125C6.13542 16.0312 5.9375 15.8333 5.9375 15.4375C5.9375 15.0417 6.13542 14.8438 6.53125 14.8438Z" fill="black"/>
</g>
</svg>
