<svg width="20" height="20" viewBox="0 0 20 20" fill="none" xmlns="http://www.w3.org/2000/svg">
<path d="M13.7495 18.753C13.7995 19.0863 13.6745 19.4418 13.387 19.6751C13.2714 19.7781 13.1341 19.8598 12.9829 19.9156C12.8317 19.9713 12.6696 20 12.5059 20C12.3422 20 12.1801 19.9713 12.0289 19.9156C11.8777 19.8598 11.7404 19.7781 11.6248 19.6751L6.61297 15.2202C6.47666 15.1017 6.37301 14.9568 6.31013 14.7969C6.24726 14.6369 6.22685 14.4662 6.25052 14.2981V8.60994L0.263848 1.79976C0.0608864 1.56815 -0.030694 1.27456 0.00911818 0.983122C0.0489303 0.691686 0.216898 0.426105 0.476319 0.244411C0.713786 0.0888769 0.976249 0 1.25121 0H18.7488C19.0238 0 19.2862 0.0888769 19.5237 0.244411C19.7831 0.426105 19.9511 0.691686 19.9909 0.983122C20.0307 1.27456 19.9391 1.56815 19.7362 1.79976L13.7495 8.60994V18.753ZM3.80086 2.22192L8.75017 7.84338V13.9759L11.2498 16.1978V7.83227L16.1991 2.22192H3.80086Z" fill="#8000FF"/>
</svg>
