<svg width="155" height="155" viewBox="0 0 155 155" fill="none" xmlns="http://www.w3.org/2000/svg">
<path d="M1.18722 91.0133C-0.882113 79.3273 -0.239991 67.3222 3.06407 55.9236C6.36813 44.525 12.2459 34.0375 20.244 25.2697C28.2422 16.5019 38.1472 9.68814 49.1951 5.35373C60.2431 1.01933 72.1389 -0.719904 83.9653 0.270153L81.6865 27.4909C74.0285 26.8498 66.3255 27.976 59.1716 30.7827C52.0176 33.5894 45.6038 38.0015 40.4247 43.679C35.2456 49.3564 31.4395 56.1475 29.3 63.5285C27.1605 70.9095 26.7447 78.6832 28.0847 86.2504L1.18722 91.0133Z" fill="#F58584"/>
<path d="M1.18722 91.0133C-0.882113 79.3273 -0.239991 67.3222 3.06407 55.9236C6.36813 44.525 12.2459 34.0375 20.244 25.2697C28.2422 16.5019 38.1472 9.68814 49.1951 5.35373C60.2431 1.01933 72.1389 -0.719904 83.9653 0.270153L81.6865 27.4909C74.0285 26.8498 66.3255 27.976 59.1716 30.7827C52.0176 33.5894 45.6038 38.0015 40.4247 43.679C35.2456 49.3564 31.4395 56.1475 29.3 63.5285C27.1605 70.9095 26.7447 78.6832 28.0847 86.2504L1.18722 91.0133Z" fill="#F58584"/>
<path d="M77.5 0C89.3678 1.41522e-07 101.077 2.72556 111.725 7.96652C122.373 13.2075 131.675 20.8238 138.914 30.2283C146.152 39.6327 151.135 50.574 153.476 62.2085C155.818 73.843 155.456 85.8598 152.419 97.3325L126.013 90.3422C127.98 82.9133 128.214 75.132 126.698 67.5982C125.181 60.0644 121.955 52.9796 117.268 46.8898C112.58 40.8001 106.557 35.8683 99.6619 32.4745C92.767 29.0808 85.1848 27.3159 77.5 27.3159V0Z" fill="#F58584"/>
<path d="M77.5 0C89.3678 1.41522e-07 101.077 2.72556 111.725 7.96652C122.373 13.2075 131.675 20.8238 138.914 30.2283C146.152 39.6327 151.135 50.574 153.476 62.2085C155.818 73.843 155.456 85.8598 152.419 97.3325L126.013 90.3422C127.98 82.9133 128.214 75.132 126.698 67.5982C125.181 60.0644 121.955 52.9796 117.268 46.8898C112.58 40.8001 106.557 35.8683 99.6619 32.4745C92.767 29.0808 85.1848 27.3159 77.5 27.3159V0Z" fill="#B3D366"/>
<path d="M153.144 94.3588C149.724 109.703 141.719 123.645 130.19 134.333C118.661 145.021 104.155 151.951 88.5958 154.202L84.6849 127.167C94.76 125.71 104.153 121.223 111.619 114.302C119.084 107.381 124.268 98.3528 126.482 88.4167L153.144 94.3588Z" fill="#F58584"/>
<path d="M153.144 94.3588C149.724 109.703 141.719 123.645 130.19 134.333C118.661 145.021 104.155 151.951 88.5958 154.202L84.6849 127.167C94.76 125.71 104.153 121.223 111.619 114.302C119.084 107.381 124.268 98.3528 126.482 88.4167L153.144 94.3588Z" fill="#FFCD74"/>
<path d="M91.0959 153.798C79.1186 155.932 66.807 155.217 55.1576 151.71C43.5081 148.202 32.848 142.002 24.04 133.609L42.8827 113.833C48.5862 119.267 55.489 123.282 63.0325 125.553C70.5759 127.825 78.5481 128.288 86.3038 126.906L91.0959 153.798Z" fill="#F58584"/>
<path d="M91.0959 153.798C79.1186 155.932 66.807 155.217 55.1576 151.71C43.5081 148.202 32.848 142.002 24.04 133.609L42.8827 113.833C48.5862 119.267 55.489 123.282 63.0325 125.553C70.5759 127.825 78.5481 128.288 86.3038 126.906L91.0959 153.798Z" fill="#72CAE3"/>
<path d="M29.4902 138.338C21.5008 132.034 14.8314 124.217 9.86287 115.335C4.89434 106.453 1.72395 96.6786 0.532706 86.5711L27.6609 83.3739C28.4323 89.9189 30.4852 96.2478 33.7025 101.999C36.9198 107.751 41.2385 112.812 46.4119 116.895L29.4902 138.338Z" fill="#F58584"/>
<path d="M29.4902 138.338C21.5008 132.034 14.8314 124.217 9.86287 115.335C4.89434 106.453 1.72395 96.6786 0.532706 86.5711L27.6609 83.3739C28.4323 89.9189 30.4852 96.2478 33.7025 101.999C36.9198 107.751 41.2385 112.812 46.4119 116.895L29.4902 138.338Z" fill="#B084F5"/>
<path d="M127.662 43.2246H126.631V45H124.861V43.2246H121.205V41.9648L124.961 36.4336H126.631V41.8184H127.662V43.2246ZM124.861 41.8184V40.3652C124.861 40.2285 124.863 40.0664 124.867 39.8789C124.875 39.6914 124.883 39.5039 124.891 39.3164C124.898 39.1289 124.906 38.9629 124.914 38.8184C124.926 38.6699 124.934 38.5664 124.938 38.5078H124.891C124.816 38.668 124.738 38.8242 124.656 38.9766C124.574 39.125 124.479 39.2812 124.369 39.4453L122.799 41.8184H124.861ZM134.289 40.7168C134.289 41.4082 134.234 42.0254 134.125 42.5684C134.02 43.1113 133.848 43.5723 133.609 43.9512C133.375 44.3301 133.066 44.6191 132.684 44.8184C132.301 45.0176 131.836 45.1172 131.289 45.1172C130.602 45.1172 130.037 44.9434 129.596 44.5957C129.154 44.2441 128.828 43.7402 128.617 43.084C128.406 42.4238 128.301 41.6348 128.301 40.7168C128.301 39.791 128.396 39 128.588 38.3438C128.783 37.6836 129.1 37.1777 129.537 36.8262C129.975 36.4746 130.559 36.2988 131.289 36.2988C131.973 36.2988 132.535 36.4746 132.977 36.8262C133.422 37.1738 133.752 37.6777 133.967 38.3379C134.182 38.9941 134.289 39.7871 134.289 40.7168ZM130.1 40.7168C130.1 41.3691 130.135 41.9141 130.205 42.3516C130.279 42.7852 130.402 43.1113 130.574 43.3301C130.746 43.5488 130.984 43.6582 131.289 43.6582C131.59 43.6582 131.826 43.5508 131.998 43.3359C132.174 43.1172 132.299 42.791 132.373 42.3574C132.447 41.9199 132.484 41.373 132.484 40.7168C132.484 40.0645 132.447 39.5195 132.373 39.082C132.299 38.6445 132.174 38.3164 131.998 38.0977C131.826 37.875 131.59 37.7637 131.289 37.7637C130.984 37.7637 130.746 37.875 130.574 38.0977C130.402 38.3164 130.279 38.6445 130.205 39.082C130.135 39.5195 130.1 40.0645 130.1 40.7168Z" fill="white"/>
<path d="M121.469 125H115.48V123.74L117.631 121.566C118.064 121.121 118.412 120.75 118.674 120.453C118.939 120.152 119.131 119.879 119.248 119.633C119.369 119.387 119.43 119.123 119.43 118.842C119.43 118.502 119.334 118.248 119.143 118.08C118.955 117.908 118.703 117.822 118.387 117.822C118.055 117.822 117.732 117.898 117.42 118.051C117.107 118.203 116.781 118.42 116.441 118.701L115.457 117.535C115.703 117.324 115.963 117.125 116.236 116.938C116.514 116.75 116.834 116.6 117.197 116.486C117.564 116.369 118.004 116.311 118.516 116.311C119.078 116.311 119.561 116.412 119.963 116.615C120.369 116.818 120.682 117.096 120.9 117.447C121.119 117.795 121.229 118.189 121.229 118.631C121.229 119.104 121.135 119.535 120.947 119.926C120.76 120.316 120.486 120.703 120.127 121.086C119.771 121.469 119.342 121.893 118.838 122.357L117.736 123.395V123.477H121.469V125ZM122.289 121.361C122.289 120.869 122.324 120.383 122.395 119.902C122.469 119.418 122.596 118.963 122.775 118.537C122.955 118.107 123.207 117.729 123.531 117.4C123.855 117.068 124.268 116.809 124.768 116.621C125.268 116.43 125.873 116.334 126.584 116.334C126.752 116.334 126.947 116.342 127.17 116.357C127.396 116.369 127.584 116.391 127.732 116.422V117.869C127.576 117.834 127.408 117.807 127.229 117.787C127.053 117.764 126.877 117.752 126.701 117.752C125.99 117.752 125.439 117.865 125.049 118.092C124.662 118.318 124.389 118.633 124.229 119.035C124.072 119.434 123.98 119.898 123.953 120.43H124.029C124.139 120.238 124.275 120.068 124.439 119.92C124.607 119.771 124.811 119.654 125.049 119.568C125.287 119.479 125.566 119.434 125.887 119.434C126.387 119.434 126.82 119.541 127.188 119.756C127.555 119.967 127.838 120.273 128.037 120.676C128.236 121.078 128.336 121.568 128.336 122.146C128.336 122.764 128.217 123.295 127.979 123.74C127.74 124.186 127.402 124.527 126.965 124.766C126.531 125 126.016 125.117 125.418 125.117C124.98 125.117 124.572 125.043 124.193 124.895C123.814 124.742 123.482 124.512 123.197 124.203C122.912 123.895 122.689 123.506 122.529 123.037C122.369 122.564 122.289 122.006 122.289 121.361ZM125.383 123.67C125.738 123.67 126.027 123.549 126.25 123.307C126.473 123.064 126.584 122.686 126.584 122.17C126.584 121.752 126.486 121.424 126.291 121.186C126.1 120.943 125.809 120.822 125.418 120.822C125.152 120.822 124.918 120.883 124.715 121.004C124.516 121.121 124.361 121.271 124.252 121.455C124.143 121.635 124.088 121.82 124.088 122.012C124.088 122.211 124.115 122.408 124.17 122.604C124.225 122.799 124.307 122.977 124.416 123.137C124.525 123.297 124.66 123.426 124.82 123.523C124.984 123.621 125.172 123.67 125.383 123.67Z" fill="white"/>
<path d="M54.957 142H53.1465V137.043C53.1465 136.906 53.1484 136.738 53.1523 136.539C53.1562 136.336 53.1621 136.129 53.1699 135.918C53.1777 135.703 53.1855 135.51 53.1934 135.338C53.1504 135.389 53.0625 135.477 52.9297 135.602C52.8008 135.723 52.6797 135.832 52.5664 135.93L51.582 136.721L50.709 135.631L53.4688 133.434H54.957V142ZM60.3008 133.322C60.793 133.322 61.2461 133.398 61.6602 133.551C62.0781 133.703 62.4121 133.934 62.6621 134.242C62.9121 134.547 63.0371 134.93 63.0371 135.391C63.0371 135.734 62.9688 136.035 62.832 136.293C62.6992 136.551 62.5176 136.777 62.2871 136.973C62.0566 137.164 61.7949 137.332 61.502 137.477C61.8066 137.637 62.0957 137.824 62.3691 138.039C62.6426 138.25 62.8652 138.498 63.0371 138.783C63.2129 139.068 63.3008 139.4 63.3008 139.779C63.3008 140.256 63.1738 140.67 62.9199 141.021C62.666 141.369 62.3145 141.639 61.8652 141.83C61.416 142.021 60.8945 142.117 60.3008 142.117C59.6602 142.117 59.1152 142.025 58.666 141.842C58.2168 141.658 57.875 141.396 57.6406 141.057C57.4062 140.713 57.2891 140.303 57.2891 139.826C57.2891 139.436 57.3613 139.096 57.5059 138.807C57.6543 138.518 57.8535 138.27 58.1035 138.062C58.3535 137.852 58.6289 137.672 58.9297 137.523C58.6758 137.363 58.4434 137.182 58.2324 136.979C58.0254 136.775 57.8594 136.543 57.7344 136.281C57.6133 136.02 57.5527 135.719 57.5527 135.379C57.5527 134.926 57.6797 134.547 57.9336 134.242C58.1914 133.938 58.5293 133.709 58.9473 133.557C59.3652 133.4 59.8164 133.322 60.3008 133.322ZM58.9648 139.721C58.9648 140.029 59.0742 140.285 59.293 140.488C59.5156 140.688 59.8438 140.787 60.2773 140.787C60.7266 140.787 61.0625 140.691 61.2852 140.5C61.5078 140.305 61.6191 140.049 61.6191 139.732C61.6191 139.514 61.5547 139.322 61.4258 139.158C61.3008 138.994 61.1426 138.848 60.9512 138.719C60.7598 138.586 60.5664 138.463 60.3711 138.35L60.2129 138.268C59.9629 138.381 59.7441 138.508 59.5566 138.648C59.373 138.789 59.2285 138.947 59.123 139.123C59.0176 139.299 58.9648 139.498 58.9648 139.721ZM60.2891 134.646C59.9922 134.646 59.7461 134.723 59.5508 134.875C59.3555 135.027 59.2578 135.242 59.2578 135.52C59.2578 135.715 59.3047 135.887 59.3984 136.035C59.4961 136.18 59.623 136.307 59.7793 136.416C59.9395 136.525 60.1133 136.627 60.3008 136.721C60.4805 136.635 60.6484 136.539 60.8047 136.434C60.9609 136.328 61.0879 136.201 61.1855 136.053C61.2832 135.904 61.332 135.727 61.332 135.52C61.332 135.242 61.2324 135.027 61.0332 134.875C60.8379 134.723 60.5898 134.646 60.2891 134.646Z" fill="white"/>
<path d="M19.957 114H18.1465V109.043C18.1465 108.906 18.1484 108.738 18.1523 108.539C18.1562 108.336 18.1621 108.129 18.1699 107.918C18.1777 107.703 18.1855 107.51 18.1934 107.338C18.1504 107.389 18.0625 107.477 17.9297 107.602C17.8008 107.723 17.6797 107.832 17.5664 107.93L16.582 108.721L15.709 107.631L18.4688 105.434H19.957V114ZM28.5293 112.225H27.498V114H25.7285V112.225H22.0723V110.965L25.8281 105.434H27.498V110.818H28.5293V112.225ZM25.7285 110.818V109.365C25.7285 109.229 25.7305 109.066 25.7344 108.879C25.7422 108.691 25.75 108.504 25.7578 108.316C25.7656 108.129 25.7734 107.963 25.7812 107.818C25.793 107.67 25.8008 107.566 25.8047 107.508H25.7578C25.6836 107.668 25.6055 107.824 25.5234 107.977C25.4414 108.125 25.3457 108.281 25.2363 108.445L23.666 110.818H25.7285Z" fill="white"/>
<path d="M26.1348 36.3496C26.1348 36.7441 26.0527 37.0859 25.8887 37.375C25.7246 37.6641 25.502 37.9004 25.2207 38.084C24.9434 38.2676 24.6309 38.4023 24.2832 38.4883V38.5234C24.9707 38.6094 25.4922 38.8203 25.8477 39.1562C26.207 39.4922 26.3867 39.9414 26.3867 40.5039C26.3867 41.0039 26.2637 41.4512 26.0176 41.8457C25.7754 42.2402 25.4004 42.5508 24.8926 42.7773C24.3848 43.0039 23.7305 43.1172 22.9297 43.1172C22.457 43.1172 22.0156 43.0781 21.6055 43C21.1992 42.9258 20.8164 42.8105 20.457 42.6543V41.1133C20.8242 41.3008 21.209 41.4434 21.6113 41.541C22.0137 41.6348 22.3887 41.6816 22.7363 41.6816C23.3848 41.6816 23.8379 41.5703 24.0957 41.3477C24.3574 41.1211 24.4883 40.8047 24.4883 40.3984C24.4883 40.1602 24.4277 39.959 24.3066 39.7949C24.1855 39.6309 23.9746 39.5059 23.6738 39.4199C23.377 39.334 22.9609 39.291 22.4258 39.291H21.7754V37.9023H22.4375C22.9648 37.9023 23.3652 37.8535 23.6387 37.7559C23.916 37.6543 24.1035 37.5176 24.2012 37.3457C24.3027 37.1699 24.3535 36.9707 24.3535 36.748C24.3535 36.4434 24.2598 36.2051 24.0723 36.0332C23.8848 35.8613 23.5723 35.7754 23.1348 35.7754C22.8613 35.7754 22.6113 35.8105 22.3848 35.8809C22.1621 35.9473 21.9609 36.0293 21.7812 36.127C21.6016 36.2207 21.4434 36.3125 21.3066 36.4023L20.4688 35.1543C20.8047 34.9121 21.1973 34.7109 21.6465 34.5508C22.0996 34.3906 22.6387 34.3105 23.2637 34.3105C24.1465 34.3105 24.8457 34.4883 25.3613 34.8438C25.877 35.1992 26.1348 35.7012 26.1348 36.3496ZM30.3008 34.3223C30.793 34.3223 31.2461 34.3984 31.6602 34.5508C32.0781 34.7031 32.4121 34.9336 32.6621 35.2422C32.9121 35.5469 33.0371 35.9297 33.0371 36.3906C33.0371 36.7344 32.9688 37.0352 32.832 37.293C32.6992 37.5508 32.5176 37.7773 32.2871 37.9727C32.0566 38.1641 31.7949 38.332 31.502 38.4766C31.8066 38.6367 32.0957 38.8242 32.3691 39.0391C32.6426 39.25 32.8652 39.498 33.0371 39.7832C33.2129 40.0684 33.3008 40.4004 33.3008 40.7793C33.3008 41.2559 33.1738 41.6699 32.9199 42.0215C32.666 42.3691 32.3145 42.6387 31.8652 42.8301C31.416 43.0215 30.8945 43.1172 30.3008 43.1172C29.6602 43.1172 29.1152 43.0254 28.666 42.8418C28.2168 42.6582 27.875 42.3965 27.6406 42.0566C27.4062 41.7129 27.2891 41.3027 27.2891 40.8262C27.2891 40.4355 27.3613 40.0957 27.5059 39.8066C27.6543 39.5176 27.8535 39.2695 28.1035 39.0625C28.3535 38.8516 28.6289 38.6719 28.9297 38.5234C28.6758 38.3633 28.4434 38.1816 28.2324 37.9785C28.0254 37.7754 27.8594 37.543 27.7344 37.2812C27.6133 37.0195 27.5527 36.7188 27.5527 36.3789C27.5527 35.9258 27.6797 35.5469 27.9336 35.2422C28.1914 34.9375 28.5293 34.709 28.9473 34.5566C29.3652 34.4004 29.8164 34.3223 30.3008 34.3223ZM28.9648 40.7207C28.9648 41.0293 29.0742 41.2852 29.293 41.4883C29.5156 41.6875 29.8438 41.7871 30.2773 41.7871C30.7266 41.7871 31.0625 41.6914 31.2852 41.5C31.5078 41.3047 31.6191 41.0488 31.6191 40.7324C31.6191 40.5137 31.5547 40.3223 31.4258 40.1582C31.3008 39.9941 31.1426 39.8477 30.9512 39.7188C30.7598 39.5859 30.5664 39.4629 30.3711 39.3496L30.2129 39.2676C29.9629 39.3809 29.7441 39.5078 29.5566 39.6484C29.373 39.7891 29.2285 39.9473 29.123 40.123C29.0176 40.2988 28.9648 40.498 28.9648 40.7207ZM30.2891 35.6465C29.9922 35.6465 29.7461 35.7227 29.5508 35.875C29.3555 36.0273 29.2578 36.2422 29.2578 36.5195C29.2578 36.7148 29.3047 36.8867 29.3984 37.0352C29.4961 37.1797 29.623 37.3066 29.7793 37.416C29.9395 37.5254 30.1133 37.627 30.3008 37.7207C30.4805 37.6348 30.6484 37.5391 30.8047 37.4336C30.9609 37.3281 31.0879 37.2012 31.1855 37.0527C31.2832 36.9043 31.332 36.7266 31.332 36.5195C31.332 36.2422 31.2324 36.0273 31.0332 35.875C30.8379 35.7227 30.5898 35.6465 30.2891 35.6465Z" fill="white"/>
</svg>
