<svg width="100" height="100" viewBox="0 0 100 100" fill="none" xmlns="http://www.w3.org/2000/svg">
<path d="M62.5 16.6673V8.33398M62.5 16.6673V25.0007M62.5 16.6673H43.75M12.5 41.6673V79.1673C12.5 81.3775 13.378 83.4971 14.9408 85.0599C16.5036 86.6227 18.6232 87.5007 20.8333 87.5007H79.1667C81.3768 87.5007 83.4964 86.6227 85.0592 85.0599C86.622 83.4971 87.5 81.3775 87.5 79.1673V41.6673M12.5 41.6673H87.5M12.5 41.6673V25.0007C12.5 22.7905 13.378 20.6709 14.9408 19.1081C16.5036 17.5453 18.6232 16.6673 20.8333 16.6673H29.1667M87.5 41.6673V25.0007C87.5 22.7905 86.622 20.6709 85.0592 19.1081C83.4964 17.5453 81.3768 16.6673 79.1667 16.6673H77.0833M29.1667 8.33398V25.0007" stroke="#DADADA" stroke-width="1.5" stroke-linecap="round" stroke-linejoin="round"/>
</svg>
