<svg width="23" height="23" viewBox="0 0 23 23" fill="none" xmlns="http://www.w3.org/2000/svg">
<g id="Icon" clip-path="url(#clip0_49_1632)">
<path id="Vector" d="M8.33002 19.7578C6.84043 19.7578 5.45111 19.3854 4.16205 18.6406C2.91595 17.9102 1.92767 16.9219 1.1972 15.6758C0.452413 14.401 0.0800171 13.0153 0.0800171 11.5186C0.0800171 10.0218 0.452413 8.63607 1.1972 7.36133C1.92767 6.11523 2.91595 5.12695 4.16205 4.39648C5.45111 3.65169 6.84043 3.2793 8.33002 3.2793C9.8196 3.2793 11.2089 3.65169 12.498 4.39648C13.7441 5.12695 14.7324 6.11523 15.4628 7.36133C16.2076 8.63607 16.58 10.0218 16.58 11.5186C16.58 13.0153 16.2076 14.401 15.4628 15.6758C14.7324 16.9219 13.7441 17.9102 12.498 18.6406C11.2089 19.3854 9.8196 19.7578 8.33002 19.7578ZM6.89056 15.0742C6.89056 15.375 6.97292 15.6042 7.13763 15.7617C7.30235 15.9193 7.53151 15.998 7.82513 15.998C8.11875 15.998 8.3515 15.9157 8.52338 15.751C8.69525 15.5863 8.78119 15.3607 8.78119 15.0742C8.78119 14.7878 8.69883 14.5658 8.53412 14.4082C8.3694 14.2507 8.13666 14.1719 7.83588 14.1719C7.5351 14.1719 7.30235 14.2471 7.13763 14.3975C6.97292 14.5479 6.89056 14.7734 6.89056 15.0742ZM7.06244 13.248H8.48041V12.9258C8.48041 12.7109 8.52696 12.5355 8.62006 12.3994C8.71315 12.2633 8.93158 12.0736 9.27533 11.8301C9.77663 11.472 10.1168 11.1497 10.2958 10.8633C10.4749 10.5768 10.5644 10.2331 10.5644 9.83203C10.5644 9.24479 10.346 8.77214 9.90912 8.41406C9.47227 8.05599 8.88861 7.87695 8.15814 7.87695C7.2558 7.87695 6.41075 8.10612 5.62299 8.56445L6.20306 9.72461C6.89056 9.38086 7.49929 9.20898 8.02924 9.20898C8.34434 9.20898 8.58783 9.26986 8.7597 9.3916C8.93158 9.51335 9.01752 9.68522 9.01752 9.90723C9.01752 10.1292 8.95665 10.3226 8.8349 10.4873C8.71315 10.652 8.4625 10.874 8.08295 11.1533C7.70339 11.4326 7.43842 11.6976 7.28802 11.9482C7.13763 12.1989 7.06244 12.4961 7.06244 12.8398V13.248Z" fill="#CBCBCF"/>
</g>
<defs>
<clipPath id="clip0_49_1632">
<rect width="22" height="22" fill="white" transform="matrix(1 0 0 -1 0.0800171 22.5293)"/>
</clipPath>
</defs>
</svg>
