<svg width="9" height="16" viewBox="0 0 9 16" fill="none" xmlns="http://www.w3.org/2000/svg">
<path id="Vector" d="M8.26536 0.765318C8.33573 0.694952 8.37526 0.599516 8.37526 0.500005C8.37526 0.400494 8.33573 0.305058 8.26536 0.234692C8.195 0.164327 8.09956 0.124796 8.00005 0.124796C7.90054 0.124796 7.8051 0.164327 7.73474 0.234692L0.234738 7.73469C0.199872 7.76952 0.172212 7.81088 0.15334 7.8564C0.134469 7.90193 0.124756 7.95072 0.124756 8C0.124756 8.04929 0.134469 8.09808 0.15334 8.14361C0.172212 8.18913 0.199872 8.23049 0.234738 8.26532L7.73474 15.7653C7.76958 15.8002 7.81094 15.8278 7.85646 15.8467C7.90199 15.8655 7.95078 15.8752 8.00005 15.8752C8.04932 15.8752 8.09811 15.8655 8.14364 15.8467C8.18916 15.8278 8.23052 15.8002 8.26536 15.7653C8.3002 15.7305 8.32784 15.6891 8.3467 15.6436C8.36555 15.5981 8.37526 15.5493 8.37526 15.5C8.37526 15.4507 8.36555 15.4019 8.3467 15.3564C8.32784 15.3109 8.3002 15.2695 8.26536 15.2347L1.03068 8L8.26536 0.765318Z" fill="black"/>
</svg>
