<svg width="21" height="20" viewBox="0 0 21 20" fill="none" xmlns="http://www.w3.org/2000/svg">
<g clip-path="url(#clip0_49_3726)">
<path d="M13.8223 3.10547C13.9134 3.10547 13.9948 3.13802 14.0664 3.20312C14.138 3.26823 14.1738 3.35286 14.1738 3.45703V6.95312C14.1738 7.05729 14.1413 7.14193 14.0762 7.20703C14.0111 7.27214 13.9297 7.30469 13.832 7.30469C13.7344 7.30469 13.6497 7.27214 13.5781 7.20703C13.5065 7.14193 13.4707 7.05729 13.4707 6.95312V4.33594L5.67773 12.1094C5.59961 12.1745 5.51172 12.207 5.41406 12.207C5.31641 12.207 5.23503 12.1745 5.16992 12.1094C5.10482 12.0443 5.07227 11.9629 5.07227 11.8652C5.07227 11.7676 5.10482 11.6797 5.16992 11.6016L13.002 3.80859H10.3262C10.222 3.80859 10.1374 3.77279 10.0723 3.70117C10.0072 3.62956 9.97461 3.54492 9.97461 3.44727C9.97461 3.34961 10.0072 3.26823 10.0723 3.20312C10.1374 3.13802 10.222 3.10547 10.3262 3.10547H13.8223ZM11.7129 17.1094H1.22461C0.92513 17.1094 0.674479 17.0052 0.472656 16.7969C0.270833 16.5885 0.169922 16.3411 0.169922 16.0547V5.54688C0.169922 5.26042 0.270833 5.01628 0.472656 4.81445C0.674479 4.61263 0.92513 4.51172 1.22461 4.51172H8.2168C8.30794 4.51172 8.38932 4.54427 8.46094 4.60938C8.53255 4.67448 8.56836 4.75586 8.56836 4.85352C8.56836 4.95117 8.53255 5.03255 8.46094 5.09766C8.38932 5.16276 8.30794 5.19531 8.2168 5.19531H1.22461C1.12044 5.19531 1.03581 5.23112 0.970703 5.30273C0.905599 5.37435 0.873047 5.45573 0.873047 5.54688V16.0547C0.873047 16.1458 0.905599 16.2272 0.970703 16.2988C1.03581 16.3704 1.12044 16.4062 1.22461 16.4062H11.7129C11.8171 16.4062 11.9017 16.3704 11.9668 16.2988C12.0319 16.2272 12.0645 16.1458 12.0645 16.0547V9.0625C12.0645 8.95833 12.1003 8.8737 12.1719 8.80859C12.2435 8.74349 12.3249 8.71094 12.416 8.71094C12.5072 8.71094 12.5885 8.74349 12.6602 8.80859C12.7318 8.8737 12.7676 8.95833 12.7676 9.0625V16.0547C12.7676 16.3411 12.6634 16.5885 12.4551 16.7969C12.2467 17.0052 11.9993 17.1094 11.7129 17.1094Z" fill="#8000FF"/>
</g>
<defs>
<clipPath id="clip0_49_3726">
<rect width="20" height="20" fill="white" transform="matrix(1 0 0 -1 0.169922 20)"/>
</clipPath>
</defs>
</svg>
