<svg width="24" height="25" viewBox="0 0 24 25" fill="none" xmlns="http://www.w3.org/2000/svg">
<g id="Icon">
<path id="Vector" d="M9.5625 14.601C9.07812 14.601 8.61328 14.5111 8.16797 14.3314C7.72266 14.1517 7.32812 13.89 6.98438 13.5463C6.85938 13.4056 6.82031 13.2416 6.86719 13.0541C6.91406 12.8666 7.03125 12.7494 7.21875 12.7025C7.40625 12.6556 7.5625 12.7025 7.6875 12.8431C8.03125 13.1713 8.42969 13.3978 8.88281 13.5228C9.33594 13.6478 9.78906 13.6478 10.2422 13.5228C10.6953 13.3978 11.0938 13.1713 11.4375 12.8431L15.0469 9.23376C15.375 8.89001 15.5977 8.49158 15.7148 8.03845C15.832 7.58533 15.832 7.13611 15.7148 6.6908C15.5977 6.24548 15.3672 5.85095 15.0234 5.5072C14.6797 5.16345 14.2852 4.93298 13.8398 4.8158C13.3945 4.69861 12.9453 4.69861 12.4922 4.8158C12.0391 4.93298 11.6406 5.15564 11.2969 5.48376L8.25 8.53064C8.15625 8.62439 8.04297 8.67126 7.91016 8.67126C7.77734 8.67126 7.66016 8.62439 7.55859 8.53064C7.45703 8.43689 7.40625 8.3197 7.40625 8.17908C7.40625 8.03845 7.45312 7.92126 7.54688 7.82751L10.5938 4.78064C11.0625 4.32751 11.6094 4.01892 12.2344 3.85486C12.8594 3.6908 13.4844 3.6908 14.1094 3.85486C14.7344 4.01892 15.2773 4.33142 15.7383 4.79236C16.1992 5.2533 16.5117 5.79626 16.6758 6.42126C16.8398 7.04626 16.8398 7.67126 16.6758 8.29626C16.5117 8.92126 16.2031 9.46814 15.75 9.93689L12.1406 13.5463C11.7969 13.89 11.4023 14.1517 10.957 14.3314C10.5117 14.5111 10.0469 14.601 9.5625 14.601ZM3.63281 20.5306C2.89844 20.5306 2.22656 20.3275 1.61719 19.9213C1.00781 19.515 0.5625 18.972 0.28125 18.2924C0 17.6127 -0.0703125 16.9135 0.0703125 16.1947C0.210938 15.476 0.539062 14.851 1.05469 14.3197L4.66406 10.7338C5.00781 10.39 5.40234 10.1244 5.84766 9.93689C6.29297 9.74939 6.75781 9.65564 7.24219 9.65564C7.72656 9.65564 8.19141 9.74939 8.63672 9.93689C9.08203 10.1244 9.47656 10.39 9.82031 10.7338C9.91406 10.8275 9.96094 10.9447 9.96094 11.0853C9.96094 11.226 9.91016 11.3431 9.80859 11.4369C9.70703 11.5306 9.58984 11.5775 9.45703 11.5775C9.32422 11.5775 9.21094 11.5306 9.11719 11.4369C8.77344 11.0931 8.375 10.8627 7.92188 10.7455C7.46875 10.6283 7.01172 10.6283 6.55078 10.7455C6.08984 10.8627 5.69531 11.0931 5.36719 11.4369L1.75781 15.0228C1.42969 15.3666 1.20312 15.765 1.07812 16.2181C0.953125 16.6713 0.949219 17.1283 1.06641 17.5892C1.18359 18.0502 1.41016 18.4486 1.74609 18.7845C2.08203 19.1205 2.48047 19.351 2.94141 19.476C3.40234 19.601 3.86328 19.601 4.32422 19.476C4.78516 19.351 5.17969 19.1166 5.50781 18.7728L8.55469 15.7494C8.64844 15.64 8.76172 15.5853 8.89453 15.5853C9.02734 15.5853 9.14453 15.6361 9.24609 15.7377C9.34766 15.8392 9.39844 15.9564 9.39844 16.0892C9.39844 16.222 9.34375 16.3431 9.23438 16.4525L6.21094 19.476C5.86719 19.8197 5.47266 20.0853 5.02734 20.2728C4.58203 20.4603 4.11719 20.5541 3.63281 20.5541V20.5306Z" fill="#8000FF"/>
</g>
</svg>
