<svg width="20" height="20" viewBox="0 0 20 20" fill="none" xmlns="http://www.w3.org/2000/svg">
<path d="M9.99954 9.47956C11.1087 9.47956 12.0079 8.5804 12.0079 7.47122C12.0079 6.36205 11.1087 5.46289 9.99954 5.46289C8.89037 5.46289 7.99121 6.36205 7.99121 7.47122C7.99121 8.5804 8.89037 9.47956 9.99954 9.47956Z" stroke="#626166" stroke-linecap="round" stroke-linejoin="round"/>
<path d="M9.99994 18.2628C10.1791 18.2628 10.5249 18.217 10.5249 17.5378C10.5249 15.3962 13.5541 13.0462 14.9291 10.392C15.4462 9.52157 15.7236 8.52971 15.733 7.51729C15.7425 6.50488 15.4836 5.50802 14.9829 4.62808C14.4821 3.74813 13.7573 3.01648 12.882 2.50753C12.0068 1.99858 11.0124 1.73047 9.99994 1.73047C8.98748 1.73047 7.99308 1.99858 7.11784 2.50753C6.2426 3.01648 5.51775 3.74813 5.01699 4.62808C4.51622 5.50802 4.2574 6.50488 4.26685 7.51729C4.2763 8.52971 4.55367 9.52157 5.07077 10.392C6.44577 13.0462 9.47494 15.392 9.47494 17.5378C9.47494 18.217 9.82077 18.2628 9.99994 18.2628Z" stroke="#626166" stroke-linecap="round" stroke-linejoin="round"/>
</svg>
