<svg width="17" height="16" viewBox="0 0 17 16" fill="none" xmlns="http://www.w3.org/2000/svg">
<g clip-path="url(#clip0_49_3737)">
<path d="M4.2793 14C4.17513 14 4.09701 13.9635 4.04492 13.8906C3.40951 13.0573 2.84701 12.1771 2.35742 11.25C1.88867 10.4062 1.50326 9.52604 1.20117 8.60938C0.867839 7.63021 0.690755 6.625 0.669922 5.59375C0.669922 4.94792 0.83138 4.34896 1.1543 3.79688C1.47721 3.24479 1.91471 2.80729 2.4668 2.48438C3.01888 2.16146 3.62044 2 4.27148 2C4.92253 2 5.52409 2.16146 6.07617 2.48438C6.62826 2.80729 7.06576 3.24479 7.38867 3.79688C7.71159 4.34896 7.87305 4.94792 7.87305 5.59375C7.85221 6.625 7.67513 7.63021 7.3418 8.60938C7.03971 9.52604 6.6543 10.4062 6.18555 11.25C5.69596 12.1771 5.13346 13.0573 4.49805 13.8906C4.44596 13.9635 4.37305 14 4.2793 14ZM1.26367 5.59375C1.37826 7.52083 1.91992 9.32292 2.88867 11C3.30534 11.7708 3.76888 12.5104 4.2793 13.2188C4.78971 12.5104 5.25326 11.7656 5.66992 10.9844C6.62826 9.31771 7.16471 7.52083 7.2793 5.59375C7.2793 5.19792 7.20117 4.8151 7.04492 4.44531C6.88867 4.07552 6.66992 3.75 6.38867 3.46875C6.10742 3.1875 5.78451 2.97135 5.41992 2.82031C5.05534 2.66927 4.67513 2.59375 4.2793 2.59375C3.72721 2.59375 3.22201 2.72917 2.76367 3C2.30534 3.27083 1.94076 3.63542 1.66992 4.09375C1.39909 4.55208 1.26367 5.05208 1.26367 5.59375ZM4.2793 7.39062C3.94596 7.39062 3.64128 7.3099 3.36523 7.14844C3.08919 6.98698 2.87044 6.76823 2.70898 6.49219C2.54753 6.21615 2.4668 5.91667 2.4668 5.59375C2.4668 5.27083 2.54753 4.97135 2.70898 4.69531C2.87044 4.41927 3.08919 4.20052 3.36523 4.03906C3.64128 3.8776 3.94336 3.79688 4.27148 3.79688C4.59961 3.79688 4.90169 3.8776 5.17773 4.03906C5.45378 4.20052 5.67253 4.41927 5.83398 4.69531C5.99544 4.97135 6.07617 5.27083 6.07617 5.59375C6.07617 5.91667 5.99544 6.21615 5.83398 6.49219C5.67253 6.76823 5.45378 6.98698 5.17773 7.14844C4.90169 7.3099 4.60221 7.39062 4.2793 7.39062ZM4.2793 4.39062C3.94596 4.39062 3.66211 4.50781 3.42773 4.74219C3.19336 4.97656 3.07617 5.26042 3.07617 5.59375C3.07617 5.92708 3.19336 6.21094 3.42773 6.44531C3.66211 6.67969 3.94336 6.79688 4.27148 6.79688C4.59961 6.79688 4.88086 6.67969 5.11523 6.44531C5.34961 6.21094 5.4668 5.92708 5.4668 5.59375C5.4668 5.26042 5.34961 4.97656 5.11523 4.74219C4.88086 4.50781 4.59701 4.39062 4.26367 4.39062H4.2793Z" fill="#85868F"/>
</g>
<defs>
<clipPath id="clip0_49_3737">
<rect width="16" height="16" fill="white" transform="matrix(1 0 0 -1 0.669922 16)"/>
</clipPath>
</defs>
</svg>
