<svg width="16" height="16" viewBox="0 0 16 16" fill="none" xmlns="http://www.w3.org/2000/svg">
<g id="material-symbols-light:male" clip-path="url(#clip0_134_2818)">
<path id="Vector" d="M16 0V5.33333H14.9333V1.84853L9.4624 7.27147C9.81369 7.78347 10.1024 8.32391 10.3285 8.8928C10.554 9.46169 10.6667 10.053 10.6667 10.6667C10.6667 12.1529 10.1497 13.4133 9.11573 14.448C8.08178 15.4827 6.82169 16 5.33547 16C3.84924 16 2.58844 15.483 1.55307 14.4491C0.517689 13.4151 0 12.155 0 10.6688C0 9.18258 0.517333 7.92178 1.552 6.8864C2.58596 5.85102 3.8464 5.33333 5.33333 5.33333C5.94702 5.33333 6.53511 5.44498 7.0976 5.66827C7.65938 5.89227 8.19413 6.18204 8.70187 6.5376L14.1728 1.06667H10.6667V0H16ZM5.33013 6.4C4.1504 6.4 3.14489 6.81671 2.3136 7.65013C1.48231 8.48427 1.06667 9.49085 1.06667 10.6699C1.06667 11.8489 1.48338 12.8544 2.3168 13.6864C3.15093 14.5177 4.15751 14.9333 5.33653 14.9333C6.51556 14.9333 7.52107 14.5166 8.35307 13.6832C9.18436 12.8491 9.6 11.8425 9.6 10.6635C9.6 9.48444 9.18329 8.47893 8.34987 7.64693C7.51573 6.81564 6.50916 6.4 5.33013 6.4Z" fill="black"/>
</g>
<defs>
<clipPath id="clip0_134_2818">
<rect width="16" height="16" fill="white"/>
</clipPath>
</defs>
</svg>
