<svg width="17" height="17" viewBox="0 0 17 17" fill="none" xmlns="http://www.w3.org/2000/svg">
<g id="Icon" clip-path="url(#clip0_49_1586)">
<path id="Vector" d="M4.04938 14.2305C3.94521 14.2305 3.86709 14.194 3.815 14.1211C3.17959 13.2878 2.61709 12.4076 2.1275 11.4805C1.65875 10.6367 1.27334 9.75651 0.971252 8.83984C0.637919 7.86068 0.460836 6.85547 0.440002 5.82422C0.440002 5.17839 0.601461 4.57943 0.924377 4.02734C1.24729 3.47526 1.68479 3.03776 2.23688 2.71484C2.78896 2.39193 3.39052 2.23047 4.04156 2.23047C4.69261 2.23047 5.29417 2.39193 5.84625 2.71484C6.39834 3.03776 6.83584 3.47526 7.15875 4.02734C7.48167 4.57943 7.64313 5.17839 7.64313 5.82422C7.62229 6.85547 7.44521 7.86068 7.11188 8.83984C6.80979 9.75651 6.42438 10.6367 5.95563 11.4805C5.46604 12.4076 4.90354 13.2878 4.26813 14.1211C4.21604 14.194 4.14313 14.2305 4.04938 14.2305ZM1.03375 5.82422C1.14834 7.7513 1.69 9.55339 2.65875 11.2305C3.07542 12.0013 3.53896 12.7409 4.04938 13.4492C4.55979 12.7409 5.02334 11.9961 5.44 11.2148C6.39834 9.54818 6.93479 7.7513 7.04938 5.82422C7.04938 5.42839 6.97125 5.04557 6.815 4.67578C6.65875 4.30599 6.44 3.98047 6.15875 3.69922C5.8775 3.41797 5.55459 3.20182 5.19 3.05078C4.82542 2.89974 4.44521 2.82422 4.04938 2.82422C3.49729 2.82422 2.99209 2.95964 2.53375 3.23047C2.07542 3.5013 1.71084 3.86589 1.44 4.32422C1.16917 4.78255 1.03375 5.28255 1.03375 5.82422ZM4.04938 7.62109C3.71604 7.62109 3.41136 7.54036 3.13531 7.37891C2.85927 7.21745 2.64052 6.9987 2.47906 6.72266C2.31761 6.44661 2.23688 6.14714 2.23688 5.82422C2.23688 5.5013 2.31761 5.20182 2.47906 4.92578C2.64052 4.64974 2.85927 4.43099 3.13531 4.26953C3.41136 4.10807 3.71344 4.02734 4.04156 4.02734C4.36969 4.02734 4.67177 4.10807 4.94781 4.26953C5.22386 4.43099 5.44261 4.64974 5.60406 4.92578C5.76552 5.20182 5.84625 5.5013 5.84625 5.82422C5.84625 6.14714 5.76552 6.44661 5.60406 6.72266C5.44261 6.9987 5.22386 7.21745 4.94781 7.37891C4.67177 7.54036 4.37229 7.62109 4.04938 7.62109ZM4.04938 4.62109C3.71604 4.62109 3.43219 4.73828 3.19781 4.97266C2.96344 5.20703 2.84625 5.49089 2.84625 5.82422C2.84625 6.15755 2.96344 6.44141 3.19781 6.67578C3.43219 6.91016 3.71344 7.02734 4.04156 7.02734C4.36969 7.02734 4.65094 6.91016 4.88531 6.67578C5.11969 6.44141 5.23688 6.15755 5.23688 5.82422C5.23688 5.49089 5.11969 5.20703 4.88531 4.97266C4.65094 4.73828 4.36709 4.62109 4.03375 4.62109H4.04938Z" fill="#85868F"/>
</g>
<defs>
<clipPath id="clip0_49_1586">
<rect width="16" height="16" fill="white" transform="matrix(1 0 0 -1 0.440002 16.2305)"/>
</clipPath>
</defs>
</svg>
