<svg width="272" height="148" viewBox="0 0 272 148" fill="none" xmlns="http://www.w3.org/2000/svg">
<path d="M127.667 87.4999H144.333C144.333 92.0833 140.583 95.8333 136 95.8333C131.417 95.8333 127.667 92.0833 127.667 87.4999ZM173.5 79.1666V83.3333H98.5V79.1666L106.833 70.8332V45.8333C106.833 32.9166 115.167 21.6666 127.667 17.9166V16.6666C127.667 12.0833 131.417 8.33325 136 8.33325C140.583 8.33325 144.333 12.0833 144.333 16.6666V17.9166C156.833 21.6666 165.167 32.9166 165.167 45.8333V70.8332L173.5 79.1666ZM156.833 45.8333C156.833 34.1666 147.667 24.9999 136 24.9999C124.333 24.9999 115.167 34.1666 115.167 45.8333V74.9999H156.833V45.8333Z" fill="black"/>
<path d="M3.38068 128.455L7.16619 139.903H7.31534L11.0938 128.455H13.9915L8.86364 143H5.6108L0.490057 128.455H3.38068ZM18.8803 143.213C17.815 143.213 16.8917 142.979 16.1104 142.51C15.3292 142.041 14.7231 141.385 14.2923 140.543C13.8661 139.7 13.6531 138.715 13.6531 137.588C13.6531 136.461 13.8661 135.474 14.2923 134.626C14.7231 133.779 15.3292 133.121 16.1104 132.652C16.8917 132.183 17.815 131.949 18.8803 131.949C19.9457 131.949 20.869 132.183 21.6502 132.652C22.4315 133.121 23.0352 133.779 23.4613 134.626C23.8922 135.474 24.1076 136.461 24.1076 137.588C24.1076 138.715 23.8922 139.7 23.4613 140.543C23.0352 141.385 22.4315 142.041 21.6502 142.51C20.869 142.979 19.9457 143.213 18.8803 143.213ZM18.8945 141.153C19.4722 141.153 19.9551 140.995 20.3434 140.678C20.7317 140.356 21.0205 139.925 21.2099 139.385C21.404 138.845 21.5011 138.244 21.5011 137.581C21.5011 136.913 21.404 136.31 21.2099 135.77C21.0205 135.225 20.7317 134.792 20.3434 134.47C19.9551 134.148 19.4722 133.987 18.8945 133.987C18.3027 133.987 17.8103 134.148 17.4173 134.47C17.029 134.792 16.7378 135.225 16.5437 135.77C16.3543 136.31 16.2596 136.913 16.2596 137.581C16.2596 138.244 16.3543 138.845 16.5437 139.385C16.7378 139.925 17.029 140.356 17.4173 140.678C17.8103 140.995 18.3027 141.153 18.8945 141.153ZM30.5483 143.213C29.4593 143.213 28.5241 142.974 27.7429 142.496C26.9664 142.018 26.3674 141.357 25.946 140.514C25.5294 139.667 25.321 138.691 25.321 137.588C25.321 136.48 25.5341 135.502 25.9602 134.655C26.3864 133.803 26.9877 133.14 27.7642 132.666C28.5455 132.188 29.4688 131.949 30.5341 131.949C31.4195 131.949 32.2031 132.112 32.8849 132.439C33.5715 132.761 34.1184 133.218 34.5256 133.81C34.9328 134.397 35.1648 135.083 35.2216 135.869H32.7642C32.6648 135.344 32.428 134.906 32.054 134.555C31.6847 134.2 31.1899 134.023 30.5696 134.023C30.044 134.023 29.5824 134.165 29.1847 134.449C28.7869 134.728 28.4768 135.131 28.2543 135.656C28.0365 136.182 27.9276 136.812 27.9276 137.545C27.9276 138.289 28.0365 138.928 28.2543 139.463C28.4721 139.993 28.7775 140.403 29.1705 140.692C29.5682 140.976 30.0346 141.118 30.5696 141.118C30.9484 141.118 31.2869 141.047 31.5852 140.905C31.8883 140.758 32.1416 140.547 32.3452 140.273C32.5488 139.998 32.6884 139.664 32.7642 139.271H35.2216C35.16 140.043 34.9328 140.727 34.5398 141.324C34.1468 141.916 33.6117 142.38 32.9347 142.716C32.2576 143.047 31.4621 143.213 30.5483 143.213ZM41.6623 143.213C40.5685 143.213 39.6239 142.986 38.8285 142.531C38.0378 142.072 37.4293 141.423 37.0032 140.585C36.5771 139.742 36.364 138.75 36.364 137.609C36.364 136.487 36.5771 135.502 37.0032 134.655C37.4341 133.803 38.0354 133.14 38.8072 132.666C39.579 132.188 40.4857 131.949 41.5273 131.949C42.1997 131.949 42.8342 132.058 43.4308 132.276C44.0321 132.489 44.5624 132.82 45.0217 133.27C45.4857 133.72 45.8503 134.293 46.1154 134.989C46.3806 135.68 46.5131 136.504 46.5131 137.46V138.249H37.5714V136.516H44.0487C44.0439 136.023 43.9374 135.585 43.729 135.202C43.5207 134.813 43.2295 134.508 42.8555 134.286C42.4862 134.063 42.0553 133.952 41.5629 133.952C41.0373 133.952 40.5756 134.08 40.1779 134.335C39.7802 134.586 39.4701 134.918 39.2475 135.33C39.0297 135.737 38.9184 136.184 38.9137 136.672V138.185C38.9137 138.819 39.0297 139.364 39.2617 139.818C39.4937 140.268 39.8181 140.614 40.2347 140.855C40.6514 141.092 41.1391 141.21 41.6978 141.21C42.0719 141.21 42.4104 141.158 42.7134 141.054C43.0165 140.945 43.2792 140.786 43.5018 140.578C43.7243 140.37 43.8924 140.112 44.006 139.804L46.4066 140.074C46.2551 140.708 45.9663 141.262 45.5401 141.736C45.1187 142.205 44.579 142.569 43.9208 142.83C43.2627 143.085 42.5098 143.213 41.6623 143.213ZM42.8981 130.784L41.4563 128.966L40.0146 130.784H37.7631V130.685L40.4549 127.616H42.4648L45.1495 130.685V130.784H42.8981ZM55.2202 136.608V143H52.6491V132.091H55.1065V133.945H55.2344C55.4853 133.334 55.8854 132.848 56.4347 132.489C56.9886 132.129 57.6728 131.949 58.4872 131.949C59.2401 131.949 59.8958 132.11 60.4545 132.432C61.018 132.754 61.4536 133.22 61.7614 133.831C62.0739 134.442 62.2277 135.183 62.223 136.054V143H59.652V136.452C59.652 135.723 59.4626 135.152 59.0838 134.74C58.7098 134.328 58.1913 134.122 57.5284 134.122C57.0786 134.122 56.6785 134.222 56.3281 134.42C55.9825 134.615 55.7102 134.896 55.5114 135.266C55.3172 135.635 55.2202 136.082 55.2202 136.608ZM67.4759 143.22C66.7846 143.22 66.1619 143.097 65.608 142.851C65.0587 142.6 64.6231 142.231 64.3011 141.743C63.9839 141.255 63.8253 140.654 63.8253 139.939C63.8253 139.323 63.9389 138.814 64.1662 138.412C64.3935 138.009 64.7036 137.688 65.0966 137.446C65.4896 137.205 65.9323 137.022 66.4247 136.899C66.9219 136.771 67.4356 136.679 67.9659 136.622C68.6051 136.556 69.1236 136.497 69.5213 136.445C69.919 136.388 70.2079 136.303 70.3878 136.189C70.5724 136.071 70.6648 135.888 70.6648 135.642V135.599C70.6648 135.064 70.5062 134.65 70.1889 134.357C69.8717 134.063 69.4148 133.916 68.8182 133.916C68.1884 133.916 67.6889 134.054 67.3196 134.328C66.955 134.603 66.7088 134.927 66.581 135.301L64.1804 134.96C64.3698 134.297 64.6823 133.743 65.1179 133.298C65.5535 132.848 66.0862 132.512 66.7159 132.29C67.3456 132.062 68.0417 131.949 68.804 131.949C69.3295 131.949 69.8527 132.01 70.3736 132.134C70.8944 132.257 71.3703 132.46 71.8011 132.744C72.232 133.024 72.5777 133.405 72.8381 133.888C73.1032 134.371 73.2358 134.974 73.2358 135.699V143H70.7642V141.501H70.679C70.5227 141.804 70.3026 142.089 70.0185 142.354C69.7391 142.614 69.3864 142.825 68.9602 142.986C68.5388 143.142 68.044 143.22 67.4759 143.22ZM68.1435 141.331C68.6596 141.331 69.107 141.229 69.4858 141.026C69.8646 140.817 70.1558 140.543 70.3594 140.202C70.5677 139.861 70.6719 139.489 70.6719 139.087V137.801C70.5914 137.867 70.4541 137.929 70.2599 137.986C70.0705 138.043 69.8575 138.092 69.6207 138.135C69.384 138.178 69.1496 138.215 68.9176 138.249C68.6856 138.282 68.4844 138.31 68.3139 138.334C67.9304 138.386 67.5871 138.471 67.2841 138.589C66.9811 138.708 66.742 138.874 66.5668 139.087C66.3916 139.295 66.304 139.565 66.304 139.896C66.304 140.37 66.4768 140.727 66.8224 140.969C67.1681 141.21 67.6084 141.331 68.1435 141.331ZM66.8295 130.763L65.2741 130.727C65.2741 129.884 65.492 129.224 65.9276 128.746C66.3632 128.268 66.9006 128.028 67.5398 128.028C67.8475 128.028 68.1151 128.08 68.3423 128.185C68.5696 128.284 68.7779 128.4 68.9673 128.533C69.1615 128.665 69.3509 128.784 69.5355 128.888C69.7202 128.987 69.9238 129.037 70.1463 129.037C70.4162 129.037 70.6293 128.935 70.7855 128.732C70.9465 128.528 71.0294 128.268 71.0341 127.95L72.5611 128.014C72.5563 128.862 72.3362 129.52 71.9006 129.989C71.465 130.453 70.9299 130.687 70.2955 130.692C69.9545 130.696 69.6681 130.647 69.4361 130.543C69.2041 130.438 69.0005 130.32 68.8253 130.188C68.6548 130.055 68.482 129.939 68.3068 129.839C68.1316 129.735 67.9257 129.683 67.6889 129.683C67.438 129.683 67.232 129.783 67.071 129.982C66.91 130.18 66.8295 130.441 66.8295 130.763ZM80.0795 143.213C79.0142 143.213 78.0909 142.979 77.3097 142.51C76.5284 142.041 75.9223 141.385 75.4915 140.543C75.0653 139.7 74.8523 138.715 74.8523 137.588C74.8523 136.461 75.0653 135.474 75.4915 134.626C75.9223 133.779 76.5284 133.121 77.3097 132.652C78.0909 132.183 79.0142 131.949 80.0795 131.949C81.1449 131.949 82.0682 132.183 82.8494 132.652C83.6307 133.121 84.2344 133.779 84.6605 134.626C85.0914 135.474 85.3068 136.461 85.3068 137.588C85.3068 138.715 85.0914 139.7 84.6605 140.543C84.2344 141.385 83.6307 142.041 82.8494 142.51C82.0682 142.979 81.1449 143.213 80.0795 143.213ZM80.0938 141.153C80.6714 141.153 81.1544 140.995 81.5426 140.678C81.9309 140.356 82.2197 139.925 82.4091 139.385C82.6032 138.845 82.7003 138.244 82.7003 137.581C82.7003 136.913 82.6032 136.31 82.4091 135.77C82.2197 135.225 81.9309 134.792 81.5426 134.47C81.1544 134.148 80.6714 133.987 80.0938 133.987C79.5019 133.987 79.0095 134.148 78.6165 134.47C78.2282 134.792 77.937 135.225 77.7429 135.77C77.5535 136.31 77.4588 136.913 77.4588 137.581C77.4588 138.244 77.5535 138.845 77.7429 139.385C77.937 139.925 78.2282 140.356 78.6165 140.678C79.0095 140.995 79.5019 141.153 80.0938 141.153ZM91.4499 147.091V132.091H93.9783V133.895H94.1275C94.2601 133.63 94.4471 133.348 94.6886 133.05C94.93 132.747 95.2567 132.489 95.6687 132.276C96.0806 132.058 96.6062 131.949 97.2454 131.949C98.0882 131.949 98.8481 132.164 99.5252 132.595C100.207 133.021 100.747 133.653 101.145 134.491C101.547 135.325 101.748 136.348 101.748 137.56C101.748 138.758 101.552 139.776 101.159 140.614C100.766 141.452 100.231 142.091 99.5536 142.531C98.8765 142.972 98.1095 143.192 97.2525 143.192C96.6275 143.192 96.109 143.088 95.6971 142.879C95.2852 142.671 94.9537 142.42 94.7028 142.126C94.4566 141.828 94.2648 141.546 94.1275 141.281H94.021V147.091H91.4499ZM93.9712 137.545C93.9712 138.251 94.0707 138.869 94.2695 139.399C94.4731 139.929 94.7643 140.344 95.1431 140.642C95.5266 140.936 95.9906 141.082 96.5352 141.082C97.1033 141.082 97.5792 140.931 97.9627 140.628C98.3462 140.32 98.6351 139.901 98.8292 139.371C99.0281 138.836 99.1275 138.227 99.1275 137.545C99.1275 136.868 99.0304 136.267 98.8363 135.741C98.6422 135.216 98.3533 134.804 97.9698 134.506C97.5863 134.207 97.1081 134.058 96.5352 134.058C95.9859 134.058 95.5195 134.203 95.136 134.491C94.7525 134.78 94.4613 135.185 94.2624 135.706C94.0683 136.227 93.9712 136.84 93.9712 137.545ZM108.208 143.213C107.143 143.213 106.22 142.979 105.439 142.51C104.657 142.041 104.051 141.385 103.62 140.543C103.194 139.7 102.981 138.715 102.981 137.588C102.981 136.461 103.194 135.474 103.62 134.626C104.051 133.779 104.657 133.121 105.439 132.652C106.22 132.183 107.143 131.949 108.208 131.949C109.274 131.949 110.197 132.183 110.978 132.652C111.76 133.121 112.363 133.779 112.789 134.626C113.22 135.474 113.436 136.461 113.436 137.588C113.436 138.715 113.22 139.7 112.789 140.543C112.363 141.385 111.76 142.041 110.978 142.51C110.197 142.979 109.274 143.213 108.208 143.213ZM108.223 141.153C108.8 141.153 109.283 140.995 109.672 140.678C110.06 140.356 110.349 139.925 110.538 139.385C110.732 138.845 110.829 138.244 110.829 137.581C110.829 136.913 110.732 136.31 110.538 135.77C110.349 135.225 110.06 134.792 109.672 134.47C109.283 134.148 108.8 133.987 108.223 133.987C107.631 133.987 107.138 134.148 106.745 134.47C106.357 134.792 106.066 135.225 105.872 135.77C105.682 136.31 105.588 136.913 105.588 137.581C105.588 138.244 105.682 138.845 105.872 139.385C106.066 139.925 106.357 140.356 106.745 140.678C107.138 140.995 107.631 141.153 108.223 141.153ZM123.74 134.974L121.396 135.23C121.33 134.993 121.214 134.771 121.048 134.562C120.887 134.354 120.67 134.186 120.395 134.058C120.12 133.93 119.784 133.866 119.386 133.866C118.851 133.866 118.402 133.982 118.037 134.214C117.677 134.446 117.5 134.747 117.504 135.116C117.5 135.434 117.616 135.692 117.852 135.891C118.094 136.089 118.491 136.253 119.045 136.381L120.906 136.778C121.938 137.001 122.705 137.354 123.207 137.837C123.714 138.32 123.97 138.952 123.974 139.733C123.97 140.42 123.768 141.026 123.371 141.551C122.978 142.072 122.431 142.479 121.73 142.773C121.029 143.066 120.224 143.213 119.315 143.213C117.98 143.213 116.905 142.934 116.091 142.375C115.277 141.812 114.791 141.028 114.635 140.024L117.142 139.783C117.256 140.275 117.497 140.647 117.866 140.898C118.236 141.149 118.716 141.274 119.308 141.274C119.919 141.274 120.409 141.149 120.778 140.898C121.152 140.647 121.339 140.337 121.339 139.967C121.339 139.655 121.219 139.397 120.977 139.193C120.741 138.99 120.371 138.833 119.869 138.724L118.009 138.334C116.962 138.116 116.188 137.749 115.686 137.233C115.184 136.712 114.936 136.054 114.94 135.259C114.936 134.586 115.118 134.004 115.487 133.511C115.861 133.014 116.38 132.631 117.043 132.361C117.71 132.086 118.48 131.949 119.351 131.949C120.629 131.949 121.635 132.221 122.369 132.766C123.108 133.31 123.565 134.046 123.74 134.974ZM134.217 134.974L131.873 135.23C131.807 134.993 131.691 134.771 131.525 134.562C131.364 134.354 131.146 134.186 130.871 134.058C130.597 133.93 130.261 133.866 129.863 133.866C129.328 133.866 128.878 133.982 128.513 134.214C128.154 134.446 127.976 134.747 127.981 135.116C127.976 135.434 128.092 135.692 128.329 135.891C128.57 136.089 128.968 136.253 129.522 136.381L131.383 136.778C132.415 137.001 133.182 137.354 133.684 137.837C134.191 138.32 134.446 138.952 134.451 139.733C134.446 140.42 134.245 141.026 133.847 141.551C133.454 142.072 132.907 142.479 132.207 142.773C131.506 143.066 130.701 143.213 129.792 143.213C128.457 143.213 127.382 142.934 126.567 142.375C125.753 141.812 125.268 141.028 125.112 140.024L127.619 139.783C127.732 140.275 127.974 140.647 128.343 140.898C128.712 141.149 129.193 141.274 129.785 141.274C130.396 141.274 130.886 141.149 131.255 140.898C131.629 140.647 131.816 140.337 131.816 139.967C131.816 139.655 131.695 139.397 131.454 139.193C131.217 138.99 130.848 138.833 130.346 138.724L128.485 138.334C127.439 138.116 126.665 137.749 126.163 137.233C125.661 136.712 125.412 136.054 125.417 135.259C125.412 134.586 125.594 134.004 125.964 133.511C126.338 133.014 126.856 132.631 127.519 132.361C128.187 132.086 128.956 131.949 129.827 131.949C131.106 131.949 132.112 132.221 132.846 132.766C133.585 133.31 134.041 134.046 134.217 134.974ZM143.024 138.412V132.091H145.595V143H143.102V141.061H142.989C142.742 141.672 142.338 142.171 141.774 142.56C141.215 142.948 140.527 143.142 139.707 143.142C138.992 143.142 138.36 142.983 137.811 142.666C137.267 142.344 136.84 141.878 136.533 141.267C136.225 140.652 136.071 139.908 136.071 139.037V132.091H138.642V138.639C138.642 139.33 138.831 139.88 139.21 140.287C139.589 140.694 140.086 140.898 140.702 140.898C141.08 140.898 141.447 140.805 141.803 140.621C142.158 140.436 142.449 140.161 142.676 139.797C142.908 139.428 143.024 138.966 143.024 138.412ZM147.739 143V132.091H150.31V143H147.739ZM149.032 130.543C148.624 130.543 148.274 130.408 147.98 130.138C147.687 129.863 147.54 129.534 147.54 129.151C147.54 128.762 147.687 128.433 147.98 128.163C148.274 127.889 148.624 127.751 149.032 127.751C149.444 127.751 149.794 127.889 150.083 128.163C150.376 128.433 150.523 128.762 150.523 129.151C150.523 129.534 150.376 129.863 150.083 130.138C149.794 130.408 149.444 130.543 149.032 130.543ZM159.486 136.608V143H156.915V132.091H159.372V133.945H159.5C159.751 133.334 160.151 132.848 160.7 132.489C161.254 132.129 161.938 131.949 162.753 131.949C163.506 131.949 164.161 132.11 164.72 132.432C165.284 132.754 165.719 133.22 166.027 133.831C166.339 134.442 166.493 135.183 166.489 136.054V143H163.918V136.452C163.918 135.723 163.728 135.152 163.349 134.74C162.975 134.328 162.457 134.122 161.794 134.122C161.344 134.122 160.944 134.222 160.594 134.42C160.248 134.615 159.976 134.896 159.777 135.266C159.583 135.635 159.486 136.082 159.486 136.608ZM173.361 143.213C172.295 143.213 171.372 142.979 170.591 142.51C169.81 142.041 169.204 141.385 168.773 140.543C168.347 139.7 168.134 138.715 168.134 137.588C168.134 136.461 168.347 135.474 168.773 134.626C169.204 133.779 169.81 133.121 170.591 132.652C171.372 132.183 172.295 131.949 173.361 131.949C174.426 131.949 175.349 132.183 176.131 132.652C176.912 133.121 177.516 133.779 177.942 134.626C178.373 135.474 178.588 136.461 178.588 137.588C178.588 138.715 178.373 139.7 177.942 140.543C177.516 141.385 176.912 142.041 176.131 142.51C175.349 142.979 174.426 143.213 173.361 143.213ZM173.375 141.153C173.953 141.153 174.436 140.995 174.824 140.678C175.212 140.356 175.501 139.925 175.69 139.385C175.884 138.845 175.982 138.244 175.982 137.581C175.982 136.913 175.884 136.31 175.69 135.77C175.501 135.225 175.212 134.792 174.824 134.47C174.436 134.148 173.953 133.987 173.375 133.987C172.783 133.987 172.291 134.148 171.898 134.47C171.509 134.792 171.218 135.225 171.024 135.77C170.835 136.31 170.74 136.913 170.74 137.581C170.74 138.244 170.835 138.845 171.024 139.385C171.218 139.925 171.509 140.356 171.898 140.678C172.291 140.995 172.783 141.153 173.375 141.153ZM185.718 132.091V134.08H179.446V132.091H185.718ZM180.995 129.477H183.566V139.719C183.566 140.064 183.618 140.33 183.722 140.514C183.831 140.694 183.973 140.817 184.148 140.884C184.323 140.95 184.517 140.983 184.73 140.983C184.891 140.983 185.038 140.971 185.171 140.947C185.308 140.924 185.412 140.902 185.483 140.884L185.917 142.893C185.779 142.941 185.583 142.993 185.327 143.05C185.076 143.107 184.768 143.14 184.404 143.149C183.76 143.168 183.18 143.071 182.664 142.858C182.148 142.64 181.738 142.304 181.435 141.849C181.137 141.395 180.99 140.827 180.995 140.145V129.477ZM187.368 143V132.091H189.939V143H187.368ZM188.661 130.543C188.253 130.543 187.903 130.408 187.609 130.138C187.316 129.863 187.169 129.534 187.169 129.151C187.169 128.762 187.316 128.433 187.609 128.163C187.903 127.889 188.253 127.751 188.661 127.751C189.072 127.751 189.423 127.889 189.712 128.163C190.005 128.433 190.152 128.762 190.152 129.151C190.152 129.534 190.005 129.863 189.712 130.138C189.423 130.408 189.072 130.543 188.661 130.543ZM197.608 132.091V134.08H191.159V132.091H197.608ZM192.772 143V131.061C192.772 130.327 192.923 129.716 193.226 129.229C193.534 128.741 193.946 128.376 194.462 128.135C194.978 127.893 195.551 127.773 196.181 127.773C196.626 127.773 197.021 127.808 197.367 127.879C197.712 127.95 197.968 128.014 198.134 128.071L197.623 130.06C197.514 130.027 197.376 129.993 197.211 129.96C197.045 129.922 196.86 129.903 196.657 129.903C196.178 129.903 195.84 130.019 195.641 130.251C195.447 130.479 195.35 130.805 195.35 131.232V143H192.772ZM199.122 143V132.091H201.693V143H199.122ZM200.414 130.543C200.007 130.543 199.657 130.408 199.363 130.138C199.07 129.863 198.923 129.534 198.923 129.151C198.923 128.762 199.07 128.433 199.363 128.163C199.657 127.889 200.007 127.751 200.414 127.751C200.826 127.751 201.177 127.889 201.466 128.163C201.759 128.433 201.906 128.762 201.906 129.151C201.906 129.534 201.759 129.863 201.466 130.138C201.177 130.408 200.826 130.543 200.414 130.543ZM208.595 143.213C207.506 143.213 206.571 142.974 205.79 142.496C205.013 142.018 204.414 141.357 203.993 140.514C203.576 139.667 203.368 138.691 203.368 137.588C203.368 136.48 203.581 135.502 204.007 134.655C204.433 133.803 205.035 133.14 205.811 132.666C206.592 132.188 207.516 131.949 208.581 131.949C209.466 131.949 210.25 132.112 210.932 132.439C211.618 132.761 212.165 133.218 212.572 133.81C212.98 134.397 213.212 135.083 213.268 135.869H210.811C210.712 135.344 210.475 134.906 210.101 134.555C209.732 134.2 209.237 134.023 208.616 134.023C208.091 134.023 207.629 134.165 207.232 134.449C206.834 134.728 206.524 135.131 206.301 135.656C206.083 136.182 205.974 136.812 205.974 137.545C205.974 138.289 206.083 138.928 206.301 139.463C206.519 139.993 206.824 140.403 207.217 140.692C207.615 140.976 208.081 141.118 208.616 141.118C208.995 141.118 209.334 141.047 209.632 140.905C209.935 140.758 210.188 140.547 210.392 140.273C210.596 139.998 210.735 139.664 210.811 139.271H213.268C213.207 140.043 212.98 140.727 212.587 141.324C212.194 141.916 211.659 142.38 210.982 142.716C210.304 143.047 209.509 143.213 208.595 143.213ZM218.019 143.22C217.328 143.22 216.705 143.097 216.151 142.851C215.602 142.6 215.166 142.231 214.844 141.743C214.527 141.255 214.368 140.654 214.368 139.939C214.368 139.323 214.482 138.814 214.709 138.412C214.936 138.009 215.247 137.688 215.64 137.446C216.033 137.205 216.475 137.022 216.968 136.899C217.465 136.771 217.979 136.679 218.509 136.622C219.148 136.556 219.667 136.497 220.064 136.445C220.462 136.388 220.751 136.303 220.931 136.189C221.115 136.071 221.208 135.888 221.208 135.642V135.599C221.208 135.064 221.049 134.65 220.732 134.357C220.415 134.063 219.958 133.916 219.361 133.916C218.731 133.916 218.232 134.054 217.863 134.328C217.498 134.603 217.252 134.927 217.124 135.301L214.723 134.96C214.913 134.297 215.225 133.743 215.661 133.298C216.096 132.848 216.629 132.512 217.259 132.29C217.889 132.062 218.585 131.949 219.347 131.949C219.873 131.949 220.396 132.01 220.917 132.134C221.437 132.257 221.913 132.46 222.344 132.744C222.775 133.024 223.121 133.405 223.381 133.888C223.646 134.371 223.779 134.974 223.779 135.699V143H221.307V141.501H221.222C221.066 141.804 220.846 142.089 220.561 142.354C220.282 142.614 219.929 142.825 219.503 142.986C219.082 143.142 218.587 143.22 218.019 143.22ZM218.686 141.331C219.203 141.331 219.65 141.229 220.029 141.026C220.408 140.817 220.699 140.543 220.902 140.202C221.111 139.861 221.215 139.489 221.215 139.087V137.801C221.134 137.867 220.997 137.929 220.803 137.986C220.614 138.043 220.4 138.092 220.164 138.135C219.927 138.178 219.693 138.215 219.461 138.249C219.229 138.282 219.027 138.31 218.857 138.334C218.473 138.386 218.13 138.471 217.827 138.589C217.524 138.708 217.285 138.874 217.11 139.087C216.935 139.295 216.847 139.565 216.847 139.896C216.847 140.37 217.02 140.727 217.365 140.969C217.711 141.21 218.151 141.331 218.686 141.331ZM230.623 143.213C229.533 143.213 228.598 142.974 227.817 142.496C227.041 142.018 226.442 141.357 226.02 140.514C225.604 139.667 225.395 138.691 225.395 137.588C225.395 136.48 225.608 135.502 226.034 134.655C226.461 133.803 227.062 133.14 227.838 132.666C228.62 132.188 229.543 131.949 230.608 131.949C231.494 131.949 232.277 132.112 232.959 132.439C233.646 132.761 234.193 133.218 234.6 133.81C235.007 134.397 235.239 135.083 235.296 135.869H232.838C232.739 135.344 232.502 134.906 232.128 134.555C231.759 134.2 231.264 134.023 230.644 134.023C230.118 134.023 229.657 134.165 229.259 134.449C228.861 134.728 228.551 135.131 228.328 135.656C228.111 136.182 228.002 136.812 228.002 137.545C228.002 138.289 228.111 138.928 228.328 139.463C228.546 139.993 228.852 140.403 229.245 140.692C229.642 140.976 230.109 141.118 230.644 141.118C231.023 141.118 231.361 141.047 231.659 140.905C231.962 140.758 232.216 140.547 232.419 140.273C232.623 139.998 232.763 139.664 232.838 139.271H235.296C235.234 140.043 235.007 140.727 234.614 141.324C234.221 141.916 233.686 142.38 233.009 142.716C232.332 143.047 231.536 143.213 230.623 143.213ZM229.884 142.943H231.276L231.162 143.547C231.607 143.613 231.984 143.784 232.292 144.058C232.604 144.338 232.76 144.738 232.76 145.259C232.765 145.931 232.464 146.471 231.858 146.878C231.252 147.285 230.388 147.489 229.266 147.489L229.238 146.224C229.782 146.224 230.215 146.151 230.537 146.004C230.859 145.862 231.023 145.635 231.027 145.322C231.037 145.019 230.923 144.797 230.686 144.655C230.454 144.518 230.085 144.423 229.578 144.371L229.884 142.943ZM241.665 143.213C240.6 143.213 239.677 142.979 238.896 142.51C238.114 142.041 237.508 141.385 237.077 140.543C236.651 139.7 236.438 138.715 236.438 137.588C236.438 136.461 236.651 135.474 237.077 134.626C237.508 133.779 238.114 133.121 238.896 132.652C239.677 132.183 240.6 131.949 241.665 131.949C242.731 131.949 243.654 132.183 244.435 132.652C245.217 133.121 245.82 133.779 246.246 134.626C246.677 135.474 246.893 136.461 246.893 137.588C246.893 138.715 246.677 139.7 246.246 140.543C245.82 141.385 245.217 142.041 244.435 142.51C243.654 142.979 242.731 143.213 241.665 143.213ZM241.68 141.153C242.257 141.153 242.74 140.995 243.129 140.678C243.517 140.356 243.806 139.925 243.995 139.385C244.189 138.845 244.286 138.244 244.286 137.581C244.286 136.913 244.189 136.31 243.995 135.77C243.806 135.225 243.517 134.792 243.129 134.47C242.74 134.148 242.257 133.987 241.68 133.987C241.088 133.987 240.595 134.148 240.202 134.47C239.814 134.792 239.523 135.225 239.329 135.77C239.139 136.31 239.045 136.913 239.045 137.581C239.045 138.244 239.139 138.845 239.329 139.385C239.523 139.925 239.814 140.356 240.202 140.678C240.595 140.995 241.088 141.153 241.68 141.153ZM239.577 130.763L238.022 130.727C238.022 129.884 238.24 129.224 238.675 128.746C239.111 128.268 239.648 128.028 240.288 128.028C240.595 128.028 240.863 128.08 241.09 128.185C241.317 128.284 241.526 128.4 241.715 128.533C241.909 128.665 242.099 128.784 242.283 128.888C242.468 128.987 242.672 129.037 242.894 129.037C243.164 129.037 243.377 128.935 243.533 128.732C243.694 128.528 243.777 128.268 243.782 127.95L245.309 128.014C245.304 128.862 245.084 129.52 244.648 129.989C244.213 130.453 243.678 130.687 243.043 130.692C242.702 130.696 242.416 130.647 242.184 130.543C241.952 130.438 241.748 130.32 241.573 130.188C241.403 130.055 241.23 129.939 241.055 129.839C240.879 129.735 240.674 129.683 240.437 129.683C240.186 129.683 239.98 129.783 239.819 129.982C239.658 130.18 239.577 130.441 239.577 130.763ZM253.404 143.213C252.311 143.213 251.366 142.986 250.571 142.531C249.78 142.072 249.172 141.423 248.745 140.585C248.319 139.742 248.106 138.75 248.106 137.609C248.106 136.487 248.319 135.502 248.745 134.655C249.176 133.803 249.778 133.14 250.549 132.666C251.321 132.188 252.228 131.949 253.27 131.949C253.942 131.949 254.576 132.058 255.173 132.276C255.774 132.489 256.305 132.82 256.764 133.27C257.228 133.72 257.592 134.293 257.858 134.989C258.123 135.68 258.255 136.504 258.255 137.46V138.249H249.314V136.516H255.791C255.786 136.023 255.68 135.585 255.471 135.202C255.263 134.813 254.972 134.508 254.598 134.286C254.228 134.063 253.797 133.952 253.305 133.952C252.779 133.952 252.318 134.08 251.92 134.335C251.522 134.586 251.212 134.918 250.99 135.33C250.772 135.737 250.661 136.184 250.656 136.672V138.185C250.656 138.819 250.772 139.364 251.004 139.818C251.236 140.268 251.56 140.614 251.977 140.855C252.394 141.092 252.881 141.21 253.44 141.21C253.814 141.21 254.153 141.158 254.456 141.054C254.759 140.945 255.021 140.786 255.244 140.578C255.467 140.37 255.635 140.112 255.748 139.804L258.149 140.074C257.997 140.708 257.708 141.262 257.282 141.736C256.861 142.205 256.321 142.569 255.663 142.83C255.005 143.085 254.252 143.213 253.404 143.213ZM268.553 134.974L266.209 135.23C266.143 134.993 266.027 134.771 265.861 134.562C265.7 134.354 265.482 134.186 265.207 134.058C264.933 133.93 264.597 133.866 264.199 133.866C263.664 133.866 263.214 133.982 262.849 134.214C262.49 134.446 262.312 134.747 262.317 135.116C262.312 135.434 262.428 135.692 262.665 135.891C262.906 136.089 263.304 136.253 263.858 136.381L265.719 136.778C266.751 137.001 267.518 137.354 268.02 137.837C268.527 138.32 268.782 138.952 268.787 139.733C268.782 140.42 268.581 141.026 268.183 141.551C267.79 142.072 267.243 142.479 266.543 142.773C265.842 143.066 265.037 143.213 264.128 143.213C262.793 143.213 261.718 142.934 260.903 142.375C260.089 141.812 259.604 141.028 259.447 140.024L261.955 139.783C262.068 140.275 262.31 140.647 262.679 140.898C263.048 141.149 263.529 141.274 264.121 141.274C264.732 141.274 265.222 141.149 265.591 140.898C265.965 140.647 266.152 140.337 266.152 139.967C266.152 139.655 266.031 139.397 265.79 139.193C265.553 138.99 265.184 138.833 264.682 138.724L262.821 138.334C261.775 138.116 261 137.749 260.499 137.233C259.997 136.712 259.748 136.054 259.753 135.259C259.748 134.586 259.93 134.004 260.3 133.511C260.674 133.014 261.192 132.631 261.855 132.361C262.523 132.086 263.292 131.949 264.163 131.949C265.442 131.949 266.448 132.221 267.182 132.766C267.92 133.31 268.377 134.046 268.553 134.974Z" fill="black"/>
</svg>
