<svg width="16" height="16" viewBox="0 0 16 16" fill="none" xmlns="http://www.w3.org/2000/svg">
<g id="207-eye 1">
<path id="Vector" d="M8 3C4.511 3 1.486 5.032 0 8C1.486 10.968 4.511 13 8 13C11.489 13 14.514 10.968 16 8C14.514 5.032 11.489 3 8 3ZM11.945 5.652C12.885 6.252 13.682 7.055 14.28 8C13.682 8.946 12.885 9.749 11.945 10.348C10.764 11.101 9.4 11.5 8.001 11.5C6.602 11.5 5.238 11.102 4.056 10.348C3.116 9.748 2.319 8.945 1.721 8C2.319 7.054 3.116 6.251 4.056 5.652C4.117 5.613 4.179 5.575 4.241 5.538C4.085 5.965 4 6.426 4 6.907C4 9.116 5.791 10.907 8 10.907C10.209 10.907 12 9.116 12 6.907C12 6.426 11.915 5.965 11.759 5.538C11.821 5.575 11.884 5.613 11.945 5.652ZM8 6.5C8 7.328 7.328 8 6.5 8C5.672 8 5 7.328 5 6.5C5 5.672 5.672 5 6.5 5C7.328 5 8 5.672 8 6.5Z" fill="white"/>
</g>
</svg>
