<svg width="25" height="25" viewBox="0 0 25 25" fill="none" xmlns="http://www.w3.org/2000/svg">
<g id="uil:padlock">
<path id="Vector" d="M12.1923 14.656C11.8878 14.6524 11.5896 14.7422 11.3377 14.9133C11.0858 15.0844 10.8924 15.3285 10.7835 15.6128C10.6745 15.8971 10.6553 16.208 10.7284 16.5036C10.8015 16.7991 10.9634 17.0652 11.1923 17.266V18.656C11.1923 18.9212 11.2976 19.1756 11.4852 19.3631C11.6727 19.5506 11.927 19.656 12.1923 19.656C12.4575 19.656 12.7118 19.5506 12.8994 19.3631C13.0869 19.1756 13.1923 18.9212 13.1923 18.656V17.266C13.4211 17.0652 13.583 16.7991 13.6561 16.5036C13.7292 16.208 13.71 15.8971 13.601 15.6128C13.4921 15.3285 13.2987 15.0844 13.0468 14.9133C12.7949 14.7422 12.4967 14.6524 12.1923 14.656ZM17.1923 10.656V8.65601C17.1923 7.32992 16.6655 6.05815 15.7278 5.12047C14.7901 4.18279 13.5183 3.65601 12.1923 3.65601C10.8662 3.65601 9.59441 4.18279 8.65673 5.12047C7.71904 6.05815 7.19226 7.32992 7.19226 8.65601V10.656C6.39661 10.656 5.63355 10.9721 5.07094 11.5347C4.50833 12.0973 4.19226 12.8604 4.19226 13.656V20.656C4.19226 21.4517 4.50833 22.2147 5.07094 22.7773C5.63355 23.3399 6.39661 23.656 7.19226 23.656H17.1923C17.9879 23.656 18.751 23.3399 19.3136 22.7773C19.8762 22.2147 20.1923 21.4517 20.1923 20.656V13.656C20.1923 12.8604 19.8762 12.0973 19.3136 11.5347C18.751 10.9721 17.9879 10.656 17.1923 10.656ZM9.19226 8.65601C9.19226 7.86036 9.50833 7.09729 10.0709 6.53469C10.6335 5.97208 11.3966 5.65601 12.1923 5.65601C12.9879 5.65601 13.751 5.97208 14.3136 6.53469C14.8762 7.09729 15.1923 7.86036 15.1923 8.65601V10.656H9.19226V8.65601ZM18.1923 20.656C18.1923 20.9212 18.0869 21.1756 17.8994 21.3631C17.7118 21.5506 17.4575 21.656 17.1923 21.656H7.19226C6.92704 21.656 6.67269 21.5506 6.48515 21.3631C6.29762 21.1756 6.19226 20.9212 6.19226 20.656V13.656C6.19226 13.3908 6.29762 13.1364 6.48515 12.9489C6.67269 12.7614 6.92704 12.656 7.19226 12.656H17.1923C17.4575 12.656 17.7118 12.7614 17.8994 12.9489C18.0869 13.1364 18.1923 13.3908 18.1923 13.656V20.656Z" fill="white"/>
</g>
</svg>
