<svg width="24" height="25" viewBox="0 0 24 25" fill="none" xmlns="http://www.w3.org/2000/svg">
<g id="Icon" clip-path="url(#clip0_11_399)">
<path id="Vector" d="M15.8002 3.86658C15.1127 3.42908 14.3627 3.18689 13.5502 3.14001C12.7377 3.09314 11.9643 3.24939 11.2299 3.60876C11.183 3.62439 11.1362 3.65564 11.0893 3.70251L1.08147 13.7103C1.01897 13.7728 0.979911 13.8588 0.964286 13.9681L0.00334821 20.601C-0.0122768 20.7416 0.0267857 20.8666 0.120536 20.976C0.214286 21.0853 0.331473 21.14 0.472098 21.14H0.542411L7.17522 20.2025C7.26897 20.1869 7.35491 20.14 7.43304 20.0619L17.4643 10.0541C17.4955 10.0072 17.5268 9.96033 17.558 9.91345C17.8549 9.2572 18.0033 8.57751 18.0033 7.87439C18.0033 7.06189 17.8041 6.30017 17.4057 5.58923C17.0073 4.8783 16.4721 4.30408 15.8002 3.86658ZM17.0658 7.87439C17.0658 8.40564 16.9487 8.92126 16.7143 9.42126L15.6362 10.5228C15.6049 9.61658 15.3627 8.78845 14.9096 8.03845C14.4565 7.28845 13.851 6.68689 13.0932 6.23376C12.3354 5.78064 11.5112 5.53845 10.6205 5.5072L11.6987 4.40564C12.1987 4.18689 12.7221 4.07751 13.269 4.07751C13.769 4.07751 14.2494 4.17126 14.7104 4.35876C15.1713 4.54626 15.5815 4.8197 15.9408 5.17908C16.3002 5.53845 16.5776 5.94861 16.7729 6.40955C16.9682 6.87048 17.0658 7.35876 17.0658 7.87439ZM1.80804 14.5072C1.99554 14.4916 2.17522 14.4916 2.3471 14.5072C3.12835 14.5072 3.84319 14.6986 4.49163 15.0814C5.14007 15.4642 5.65569 15.9799 6.0385 16.6283C6.42132 17.2767 6.61272 17.9916 6.61272 18.7728C6.62835 18.9447 6.62835 19.1244 6.61272 19.3119L3.77679 19.7103C3.77679 19.0541 3.54632 18.4955 3.08538 18.0345C2.62444 17.5736 2.06585 17.3431 1.4096 17.3431L1.80804 14.5072ZM10.433 6.4447C10.9174 6.4447 11.3862 6.52673 11.8393 6.6908C12.2924 6.85486 12.7065 7.08533 13.0815 7.3822L5.69866 14.765C5.26116 14.4056 4.77288 14.1205 4.23382 13.9095C3.69475 13.6986 3.13616 13.5853 2.55804 13.5697L9.58929 6.53845C9.85491 6.47595 10.1362 6.4447 10.433 6.4447ZM13.7377 8.06189C14.144 8.54626 14.4213 9.09314 14.5698 9.70251C14.7182 10.3119 14.7299 10.9291 14.6049 11.5541L7.57366 18.5853C7.54241 18.0072 7.42522 17.4486 7.2221 16.9095C7.01897 16.3705 6.72991 15.8822 6.35491 15.4447L13.7377 8.06189ZM1.29241 18.2806H1.4096C1.81585 18.2806 2.15569 18.4174 2.42913 18.6908C2.70257 18.9642 2.83929 19.3041 2.83929 19.7103V19.8275L1.0346 20.0853L1.29241 18.2806Z" fill="#8000FF"/>
</g>
<defs>
<clipPath id="clip0_11_399">
<rect width="24" height="24" fill="white" transform="matrix(1 0 0 -1 0 24.14)"/>
</clipPath>
</defs>
</svg>
