<svg width="34" height="35" viewBox="0 0 34 35" fill="none" xmlns="http://www.w3.org/2000/svg">
<g id="Icon">
<path id="Vector" d="M8.20117 12.9883C7.55924 12.9883 6.94499 12.8555 6.3584 12.5898C5.77181 12.3242 5.26823 11.9479 4.84766 11.4609C4.47135 11.0625 4.18359 10.6032 3.98438 10.083C3.78516 9.56283 3.68555 9.01497 3.68555 8.43945C3.68555 7.62044 3.8903 6.86784 4.2998 6.18164C4.70931 5.49544 5.25716 4.94759 5.94336 4.53809C6.62956 4.12858 7.38216 3.92383 8.20117 3.92383C9.02018 3.92383 9.77832 4.12858 10.4756 4.53809C11.1729 4.94759 11.7262 5.49544 12.1357 6.18164C12.5452 6.86784 12.75 7.62044 12.75 8.43945C12.75 9.25846 12.5452 10.0166 12.1357 10.7139C11.7262 11.4111 11.1729 11.9645 10.4756 12.374C9.77832 12.7835 9.02018 12.9883 8.20117 12.9883ZM8.20117 5.61719C7.42643 5.61719 6.76237 5.89388 6.20898 6.44727C5.6556 7.00065 5.37891 7.66471 5.37891 8.43945C5.37891 9.16992 5.6224 9.80078 6.10938 10.332C6.375 10.6419 6.69043 10.8799 7.05566 11.0459C7.4209 11.2119 7.80273 11.2949 8.20117 11.2949C8.97591 11.2949 9.63997 11.0182 10.1934 10.4648C10.7467 9.91146 11.0234 9.24186 11.0234 8.45605C11.0234 7.67025 10.7467 7.00065 10.1934 6.44727C9.63997 5.89388 8.97591 5.61719 8.20117 5.61719ZM8.20117 22.8164H3.1543C2.29102 22.8164 1.54948 22.5065 0.929688 21.8867C0.309896 21.2669 0 20.5254 0 19.6621V16.3086C0 15.3125 0.249023 14.3773 0.74707 13.5029C1.24512 12.6286 1.92578 11.9258 2.78906 11.3945C2.98828 11.2839 3.19857 11.2562 3.41992 11.3115C3.64128 11.3669 3.81283 11.4941 3.93457 11.6934C4.05631 11.8926 4.08952 12.1084 4.03418 12.3408C3.97884 12.5732 3.85156 12.7448 3.65234 12.8555C3.03255 13.2318 2.55111 13.7243 2.20801 14.333C1.86491 14.9417 1.69336 15.6003 1.69336 16.3086V19.6621C1.69336 20.0605 1.83724 20.3981 2.125 20.6748C2.41276 20.9515 2.75586 21.0898 3.1543 21.0898H8.20117C8.44466 21.0898 8.64941 21.1784 8.81543 21.3555C8.98145 21.5326 9.06445 21.7373 9.06445 21.9697C9.06445 22.2021 8.98145 22.4014 8.81543 22.5674C8.64941 22.7334 8.44466 22.8164 8.20117 22.8164ZM18.7266 20.8574C18.0404 20.8574 17.3874 20.7191 16.7676 20.4424C16.1478 20.1657 15.6055 19.7728 15.1406 19.2637C14.7643 18.821 14.471 18.3285 14.2607 17.7861C14.0505 17.2438 13.9453 16.6738 13.9453 16.0762C13.9453 15.2129 14.1556 14.416 14.5762 13.6855C14.9967 12.9551 15.5778 12.374 16.3193 11.9424C17.0609 11.5107 17.8633 11.2949 18.7266 11.2949C19.5898 11.2949 20.3867 11.5107 21.1172 11.9424C21.8477 12.374 22.4287 12.9551 22.8604 13.6855C23.292 14.416 23.5078 15.2129 23.5078 16.0762C23.5078 16.9395 23.292 17.7363 22.8604 18.4668C22.4287 19.1973 21.8477 19.7783 21.1172 20.21C20.3867 20.6416 19.5898 20.8574 18.7266 20.8574ZM18.7266 12.9883C17.8633 12.9883 17.1328 13.2926 16.5352 13.9014C15.9375 14.5101 15.6387 15.235 15.6387 16.0762C15.6387 16.873 15.8932 17.5592 16.4023 18.1348C16.7122 18.4668 17.0664 18.7214 17.4648 18.8984C17.8633 19.0755 18.2839 19.1641 18.7266 19.1641C19.5677 19.1641 20.2926 18.8652 20.9014 18.2676C21.5101 17.6699 21.8145 16.945 21.8145 16.0928C21.8145 15.2406 21.5101 14.5101 20.9014 13.9014C20.2926 13.2926 19.5677 12.9883 18.7266 12.9883ZM26.5957 28.5273C26.5736 28.5273 26.5514 28.5273 26.5293 28.5273H26.4629L26.2969 28.4609C26.2305 28.4388 26.1751 28.4167 26.1309 28.3945L25.998 28.2949L25.8984 28.1621C25.8763 28.1178 25.8542 28.0625 25.832 27.9961L25.7656 27.8301V27.6641V27.5312C25.7656 27.5091 25.7656 27.5091 25.7656 27.5312L25.832 27.3652C25.8542 27.2988 25.8763 27.2435 25.8984 27.1992L25.998 27.0664C26.153 26.9115 26.3522 26.834 26.5957 26.834C26.8392 26.834 27.0439 26.917 27.21 27.083C27.376 27.249 27.459 27.4427 27.459 27.6641V27.8301L27.3926 27.9961C27.3704 28.0625 27.3483 28.1178 27.3262 28.1621L27.1934 28.2949C27.0384 28.4499 26.8392 28.5273 26.5957 28.5273ZM26.5957 31.3828H13.1484C12.263 31.3828 11.516 31.0729 10.9072 30.4531C10.2985 29.8333 9.99414 29.0918 9.99414 28.2285V24.875C9.99414 23.8789 10.2432 22.9437 10.7412 22.0693C11.2393 21.195 11.9089 20.5033 12.75 19.9941C12.9714 19.8613 13.1927 19.8226 13.4141 19.8779C13.6354 19.9333 13.807 20.0605 13.9287 20.2598C14.0505 20.459 14.0837 20.6748 14.0283 20.9072C13.973 21.1396 13.8457 21.3223 13.6465 21.4551C13.0267 21.8092 12.5452 22.2907 12.2021 22.8994C11.859 23.5081 11.6875 24.1667 11.6875 24.875V28.2285C11.6875 28.627 11.8314 28.9701 12.1191 29.2578C12.4069 29.5456 12.75 29.6895 13.1484 29.6895H26.5957C26.8392 29.6895 27.0439 29.7725 27.21 29.9385C27.376 30.1045 27.459 30.3037 27.459 30.5361C27.459 30.7686 27.376 30.9678 27.21 31.1338C27.0439 31.2998 26.8392 31.3828 26.5957 31.3828ZM26.5957 25.8047C26.3743 25.8047 26.1807 25.7217 26.0146 25.5557C25.8486 25.3896 25.7656 25.196 25.7656 24.9746V24.875C25.7656 24.1667 25.5941 23.5081 25.251 22.8994C24.9079 22.2907 24.4264 21.8092 23.8066 21.4551C23.6074 21.3223 23.4801 21.1452 23.4248 20.9238C23.3695 20.7025 23.4027 20.4867 23.5244 20.2764C23.6462 20.0661 23.8232 19.9333 24.0557 19.8779C24.2881 19.8226 24.5039 19.8613 24.7031 19.9941C25.5664 20.5033 26.2415 21.195 26.7285 22.0693C27.2155 22.9437 27.459 23.8789 27.459 24.875V24.9746C27.459 25.196 27.376 25.3896 27.21 25.5557C27.0439 25.7217 26.8392 25.8047 26.5957 25.8047Z" fill="#CBCBCF"/>
</g>
</svg>
