<svg width="21" height="21" viewBox="0 0 21 21" fill="none" xmlns="http://www.w3.org/2000/svg">
<g id="Icon" clip-path="url(#clip0_49_1956)">
<path id="Vector" d="M8.58594 11.2314V15.8604C8.58594 16.2249 8.46875 16.5114 8.23438 16.7197C8.01302 16.915 7.74609 17.0127 7.43359 17.0127C7.12109 17.0127 6.85417 16.915 6.63281 16.7197C6.39844 16.5114 6.28125 16.2249 6.28125 15.8604V10.0596C6.28125 9.74707 6.39518 9.47689 6.62305 9.24902C6.85091 9.02116 7.12109 8.90723 7.43359 8.90723H13.2344C13.599 8.90723 13.8854 9.03092 14.0938 9.27832C14.2891 9.48665 14.3867 9.74707 14.3867 10.0596C14.3867 10.3721 14.2891 10.639 14.0938 10.8604C13.8854 11.1077 13.599 11.2314 13.2344 11.2314H8.58594ZM6.28125 8.90723V4.27832C6.28125 3.91374 6.40495 3.62728 6.65234 3.41895C6.8737 3.22363 7.14062 3.12598 7.45312 3.12598C7.76562 3.12598 8.02604 3.22363 8.23438 3.41895C8.48177 3.62728 8.60547 3.91374 8.60547 4.27832V10.0791C8.60547 10.3916 8.49154 10.6618 8.26367 10.8896C8.03581 11.1175 7.76562 11.2314 7.45312 11.2314H1.65234C1.28776 11.2314 1.0013 11.1077 0.792969 10.8604C0.597656 10.652 0.5 10.3916 0.5 10.0791C0.5 9.7666 0.597656 9.49967 0.792969 9.27832C1.0013 9.03092 1.28776 8.90723 1.65234 8.90723H6.28125Z" fill="#8000FF"/>
</g>
<defs>
<clipPath id="clip0_49_1956">
<rect width="20" height="20" fill="white" transform="matrix(1 0 0 -1 0.5 20.0791)"/>
</clipPath>
</defs>
</svg>
