<svg width="4" height="4" viewBox="0 0 4 4" fill="none" xmlns="http://www.w3.org/2000/svg">
<path d="M0.168945 2.27734C0.168945 1.88086 0.232747 1.56413 0.360352 1.32715C0.487956 1.08561 0.661133 0.910156 0.879883 0.800781C1.10319 0.691406 1.35384 0.636719 1.63184 0.636719C1.90983 0.636719 2.1582 0.691406 2.37695 0.800781C2.60026 0.910156 2.77572 1.08561 2.90332 1.32715C3.03092 1.56868 3.09473 1.88542 3.09473 2.27734C3.09473 2.66016 3.03092 2.97461 2.90332 3.2207C2.77572 3.46224 2.60026 3.63997 2.37695 3.75391C2.1582 3.86784 1.90983 3.9248 1.63184 3.9248C1.35384 3.9248 1.10319 3.86784 0.879883 3.75391C0.661133 3.63997 0.487956 3.46224 0.360352 3.2207C0.232747 2.97917 0.168945 2.66471 0.168945 2.27734Z" fill="#8000FF"/>
</svg>
