<svg width="20" height="21" viewBox="0 0 20 21" fill="none" xmlns="http://www.w3.org/2000/svg">
<path d="M12.8103 5.47911C11.977 4.64578 11.0102 4.04356 9.90994 3.67247C8.80968 3.30138 7.68338 3.18744 6.53103 3.33067C5.37869 3.4739 4.31424 3.87429 3.33767 4.53185C2.36111 5.1894 1.58312 6.01948 1.00369 7.02208C0.424262 8.02468 0.0954861 9.10541 0.0173611 10.2643C-0.0607639 11.4231 0.124783 12.5462 0.574002 13.6334C1.02322 14.7206 1.68403 15.6451 2.55642 16.4068C3.42882 17.1686 4.42491 17.7024 5.5447 18.0084C6.6645 18.3144 7.80056 18.3535 8.95291 18.1256C10.1053 17.8977 11.1404 17.429 12.0584 16.7193C12.9763 16.0097 13.6957 15.1373 14.2166 14.1022C14.7374 13.067 14.9978 11.957 14.9978 10.7721C14.9978 9.7825 14.809 8.82547 14.4314 7.90099C14.0538 6.97651 13.5135 6.16922 12.8103 5.47911ZM7.49783 17.5104C6.28689 17.5104 5.16059 17.2044 4.11892 16.5924C3.1033 16.0065 2.29601 15.2057 1.69705 14.19C1.08507 13.1484 0.77908 12.0188 0.77908 10.8014C0.77908 9.58393 1.08507 8.45437 1.69705 7.41271C2.29601 6.39708 3.1033 5.5963 4.11892 5.01036C5.16059 4.39838 6.28689 4.09239 7.49783 4.09239C8.70877 4.09239 9.83507 4.39838 10.8767 5.01036C11.8924 5.5963 12.6997 6.39708 13.2986 7.41271C13.9106 8.45437 14.2133 9.58393 14.2068 10.8014C14.2003 12.0188 13.8976 13.1484 13.2986 14.19C12.6997 15.1927 11.8924 15.9934 10.8767 16.5924C9.83507 17.2044 8.70877 17.5104 7.49783 17.5104ZM11.951 8.23302C11.8859 8.14187 11.8012 8.08328 11.697 8.05724C11.5929 8.03119 11.4952 8.04422 11.4041 8.0963L7.49783 10.3424L4.47049 8.21349C4.37934 8.1614 4.28494 8.14513 4.18728 8.16466C4.08963 8.18419 4.00825 8.23627 3.94314 8.32091C3.87804 8.40554 3.85525 8.49994 3.87478 8.60411C3.89431 8.70828 3.94314 8.79291 4.02127 8.85802L7.26345 11.1236H7.59549L11.697 8.76036C11.8012 8.70828 11.8663 8.6269 11.8924 8.51622C11.9184 8.40554 11.9054 8.30463 11.8533 8.21349L11.951 8.23302Z" fill="#8000FF"/>
</svg>
