<svg width="20" height="21" viewBox="0 0 20 21" fill="none" xmlns="http://www.w3.org/2000/svg">
<path d="M12.793 4.36523V3.95508C12.793 3.85091 12.7539 3.75977 12.6758 3.68164C12.5977 3.60352 12.5033 3.56445 12.3926 3.56445C12.2819 3.56445 12.1875 3.60352 12.1094 3.68164C12.0312 3.75977 11.9922 3.85091 11.9922 3.95508V4.36523H4.00391V3.95508C4.00391 3.85091 3.96484 3.75977 3.88672 3.68164C3.80859 3.60352 3.71419 3.56445 3.60352 3.56445C3.49284 3.56445 3.39844 3.60352 3.32031 3.68164C3.24219 3.75977 3.20312 3.85091 3.20312 3.95508V4.36523H1.19141C0.865885 4.36523 0.585938 4.48242 0.351562 4.7168C0.117188 4.95117 0 5.23112 0 5.55664V16.7676C0 17.0931 0.117188 17.373 0.351562 17.6074C0.585938 17.8418 0.865885 17.959 1.19141 17.959H14.8047C15.1302 17.959 15.4102 17.8418 15.6445 17.6074C15.8789 17.373 15.9961 17.0931 15.9961 16.7676V5.55664C15.9961 5.23112 15.8789 4.95117 15.6445 4.7168C15.4102 4.48242 15.1302 4.36523 14.8047 4.36523H12.793ZM1.19141 5.16602H3.20312V6.35742C3.20312 6.47461 3.24219 6.57227 3.32031 6.65039C3.39844 6.72852 3.49284 6.76758 3.60352 6.76758C3.71419 6.76758 3.80859 6.72852 3.88672 6.65039C3.96484 6.57227 4.00391 6.47461 4.00391 6.35742V5.16602H11.9922V6.35742C11.9922 6.47461 12.0312 6.57227 12.1094 6.65039C12.1875 6.72852 12.2819 6.76758 12.3926 6.76758C12.5033 6.76758 12.5977 6.72852 12.6758 6.65039C12.7539 6.57227 12.793 6.47461 12.793 6.35742V5.16602H14.8047C14.9089 5.16602 15 5.20508 15.0781 5.2832C15.1562 5.36133 15.1953 5.45247 15.1953 5.55664V7.56836H0.800781V5.55664C0.800781 5.45247 0.839844 5.36133 0.917969 5.2832C0.996094 5.20508 1.08724 5.16602 1.19141 5.16602ZM14.8047 17.1582H1.19141C1.08724 17.1582 0.996094 17.1191 0.917969 17.041C0.839844 16.9629 0.800781 16.8717 0.800781 16.7676V8.36914H15.1953V16.7676C15.1953 16.8717 15.1562 16.9629 15.0781 17.041C15 17.1191 14.9089 17.1582 14.8047 17.1582ZM5.99609 10.7715H5.19531C5.09115 10.7715 5 10.7324 4.92188 10.6543C4.84375 10.5762 4.80469 10.4818 4.80469 10.3711C4.80469 10.2604 4.84375 10.166 4.92188 10.0879C5 10.0098 5.09115 9.9707 5.19531 9.9707H5.99609C6.11328 9.9707 6.21094 10.0098 6.28906 10.0879C6.36719 10.166 6.40625 10.2604 6.40625 10.3711C6.40625 10.4818 6.36719 10.5762 6.28906 10.6543C6.21094 10.7324 6.11328 10.7715 5.99609 10.7715ZM8.39844 10.7715H7.59766C7.49349 10.7715 7.40234 10.7324 7.32422 10.6543C7.24609 10.5762 7.20703 10.4818 7.20703 10.3711C7.20703 10.2604 7.24609 10.166 7.32422 10.0879C7.40234 10.0098 7.49349 9.9707 7.59766 9.9707H8.39844C8.5026 9.9707 8.59375 10.0098 8.67188 10.0879C8.75 10.166 8.78906 10.2604 8.78906 10.3711C8.78906 10.4818 8.75 10.5762 8.67188 10.6543C8.59375 10.7324 8.5026 10.7715 8.39844 10.7715ZM10.8008 10.7715H10C9.88281 10.7715 9.78516 10.7324 9.70703 10.6543C9.62891 10.5762 9.58984 10.4818 9.58984 10.3711C9.58984 10.2604 9.62891 10.166 9.70703 10.0879C9.78516 10.0098 9.88281 9.9707 10 9.9707H10.8008C10.9049 9.9707 10.9961 10.0098 11.0742 10.0879C11.1523 10.166 11.1914 10.2604 11.1914 10.3711C11.1914 10.4818 11.1523 10.5762 11.0742 10.6543C10.9961 10.7324 10.9049 10.7715 10.8008 10.7715ZM13.2031 10.7715H12.4023C12.2852 10.7715 12.1875 10.7324 12.1094 10.6543C12.0312 10.5762 11.9922 10.4818 11.9922 10.3711C11.9922 10.2604 12.0312 10.166 12.1094 10.0879C12.1875 10.0098 12.2852 9.9707 12.4023 9.9707H13.2031C13.3073 9.9707 13.3984 10.0098 13.4766 10.0879C13.5547 10.166 13.5938 10.2604 13.5938 10.3711C13.5938 10.4818 13.5547 10.5762 13.4766 10.6543C13.3984 10.7324 13.3073 10.7715 13.2031 10.7715ZM3.59375 12.3535H2.79297C2.6888 12.3535 2.59766 12.3145 2.51953 12.2363C2.44141 12.1582 2.40234 12.0638 2.40234 11.9531C2.40234 11.8424 2.44141 11.7513 2.51953 11.6797C2.59766 11.6081 2.6888 11.5723 2.79297 11.5723L3.59375 11.5527C3.71094 11.5527 3.80859 11.5918 3.88672 11.6699C3.96484 11.748 4.00391 11.8424 4.00391 11.9531C4.00391 12.0638 3.96484 12.1582 3.88672 12.2363C3.80859 12.3145 3.71094 12.3535 3.59375 12.3535ZM5.99609 12.3535H5.19531C5.09115 12.3535 5 12.3145 4.92188 12.2363C4.84375 12.1582 4.80469 12.0638 4.80469 11.9531C4.80469 11.8424 4.84375 11.748 4.92188 11.6699C5 11.5918 5.09115 11.5592 5.19531 11.5723L5.99609 11.5527C6.11328 11.5527 6.21094 11.5918 6.28906 11.6699C6.36719 11.748 6.40625 11.8424 6.40625 11.9531C6.40625 12.0638 6.36719 12.1582 6.28906 12.2363C6.21094 12.3145 6.11328 12.3535 5.99609 12.3535ZM8.39844 12.3535H7.59766C7.49349 12.3535 7.40234 12.3145 7.32422 12.2363C7.24609 12.1582 7.20703 12.0638 7.20703 11.9531C7.20703 11.8424 7.24609 11.748 7.32422 11.6699C7.40234 11.5918 7.49349 11.5592 7.59766 11.5723L8.39844 11.5527C8.5026 11.5527 8.59375 11.5918 8.67188 11.6699C8.75 11.748 8.78906 11.8424 8.78906 11.9531C8.78906 12.0638 8.75 12.1582 8.67188 12.2363C8.59375 12.3145 8.5026 12.3535 8.39844 12.3535ZM10.8008 12.3535H10C9.88281 12.3535 9.78516 12.3145 9.70703 12.2363C9.62891 12.1582 9.58984 12.0638 9.58984 11.9531C9.58984 11.8424 9.62891 11.7513 9.70703 11.6797C9.78516 11.6081 9.88281 11.5723 10 11.5723L10.8008 11.5527C10.9049 11.5658 10.9961 11.6081 11.0742 11.6797C11.1523 11.7513 11.1914 11.8424 11.1914 11.9531C11.1914 12.0638 11.1523 12.1582 11.0742 12.2363C10.9961 12.3145 10.9049 12.3535 10.8008 12.3535ZM13.2031 12.3535H12.4023C12.2852 12.3535 12.1875 12.3145 12.1094 12.2363C12.0312 12.1582 11.9922 12.0638 11.9922 11.9531C11.9922 11.8424 12.0312 11.748 12.1094 11.6699C12.1875 11.5918 12.2852 11.5592 12.4023 11.5723L13.2031 11.5527C13.3073 11.5527 13.3984 11.5918 13.4766 11.6699C13.5547 11.748 13.5938 11.8424 13.5938 11.9531C13.5938 12.0638 13.5547 12.1582 13.4766 12.2363C13.3984 12.3145 13.3073 12.3535 13.2031 12.3535ZM3.59375 13.9551H2.79297C2.6888 13.9551 2.59766 13.916 2.51953 13.8379C2.44141 13.7598 2.40234 13.6654 2.40234 13.5547C2.40234 13.444 2.44141 13.3496 2.51953 13.2715C2.59766 13.1934 2.6888 13.1543 2.79297 13.1543H3.59375C3.71094 13.1543 3.80859 13.1934 3.88672 13.2715C3.96484 13.3496 4.00391 13.444 4.00391 13.5547C4.00391 13.6654 3.96484 13.7598 3.88672 13.8379C3.80859 13.916 3.71094 13.9551 3.59375 13.9551ZM5.99609 13.9551H5.19531C5.09115 13.9551 5 13.916 4.92188 13.8379C4.84375 13.7598 4.80469 13.6654 4.80469 13.5547C4.80469 13.444 4.84375 13.3496 4.92188 13.2715C5 13.1934 5.09115 13.1543 5.19531 13.1543H5.99609C6.11328 13.1543 6.21094 13.1934 6.28906 13.2715C6.36719 13.3496 6.40625 13.444 6.40625 13.5547C6.40625 13.6654 6.36719 13.7598 6.28906 13.8379C6.21094 13.916 6.11328 13.9551 5.99609 13.9551ZM8.39844 13.9551H7.59766C7.49349 13.9551 7.40234 13.916 7.32422 13.8379C7.24609 13.7598 7.20703 13.6654 7.20703 13.5547C7.20703 13.444 7.24609 13.3496 7.32422 13.2715C7.40234 13.1934 7.49349 13.1543 7.59766 13.1543H8.39844C8.5026 13.1543 8.59375 13.1934 8.67188 13.2715C8.75 13.3496 8.78906 13.444 8.78906 13.5547C8.78906 13.6654 8.75 13.7598 8.67188 13.8379C8.59375 13.916 8.5026 13.9551 8.39844 13.9551ZM10.8008 13.9551H10C9.88281 13.9551 9.78516 13.916 9.70703 13.8379C9.62891 13.7598 9.58984 13.6654 9.58984 13.5547C9.58984 13.444 9.62891 13.3496 9.70703 13.2715C9.78516 13.1934 9.88281 13.1543 10 13.1543H10.8008C10.9049 13.1543 10.9961 13.1934 11.0742 13.2715C11.1523 13.3496 11.1914 13.444 11.1914 13.5547C11.1914 13.6654 11.1523 13.7598 11.0742 13.8379C10.9961 13.916 10.9049 13.9551 10.8008 13.9551ZM13.2031 13.9551H12.4023C12.2852 13.9551 12.1875 13.916 12.1094 13.8379C12.0312 13.7598 11.9922 13.6654 11.9922 13.5547C11.9922 13.444 12.0312 13.3496 12.1094 13.2715C12.1875 13.1934 12.2852 13.1543 12.4023 13.1543H13.2031C13.3073 13.1543 13.3984 13.1934 13.4766 13.2715C13.5547 13.3496 13.5938 13.444 13.5938 13.5547C13.5938 13.6654 13.5547 13.7598 13.4766 13.8379C13.3984 13.916 13.3073 13.9551 13.2031 13.9551ZM3.59375 15.5566H2.79297C2.6888 15.5566 2.59766 15.5176 2.51953 15.4395C2.44141 15.3613 2.40234 15.2669 2.40234 15.1562C2.40234 15.0456 2.44141 14.9512 2.51953 14.873C2.59766 14.7949 2.6888 14.7559 2.79297 14.7559H3.59375C3.71094 14.7559 3.80859 14.7949 3.88672 14.873C3.96484 14.9512 4.00391 15.0456 4.00391 15.1562C4.00391 15.2669 3.96484 15.3613 3.88672 15.4395C3.80859 15.5176 3.71094 15.5566 3.59375 15.5566ZM5.99609 15.5566H5.19531C5.09115 15.5566 5 15.5176 4.92188 15.4395C4.84375 15.3613 4.80469 15.2669 4.80469 15.1562C4.80469 15.0456 4.84375 14.9512 4.92188 14.873C5 14.7949 5.09115 14.7559 5.19531 14.7559H5.99609C6.11328 14.7559 6.21094 14.7949 6.28906 14.873C6.36719 14.9512 6.40625 15.0456 6.40625 15.1562C6.40625 15.2669 6.36719 15.3613 6.28906 15.4395C6.21094 15.5176 6.11328 15.5566 5.99609 15.5566ZM8.39844 15.5566H7.59766C7.49349 15.5566 7.40234 15.5176 7.32422 15.4395C7.24609 15.3613 7.20703 15.2669 7.20703 15.1562C7.20703 15.0456 7.24609 14.9512 7.32422 14.873C7.40234 14.7949 7.49349 14.7559 7.59766 14.7559H8.39844C8.5026 14.7559 8.59375 14.7949 8.67188 14.873C8.75 14.9512 8.78906 15.0456 8.78906 15.1562C8.78906 15.2669 8.75 15.3613 8.67188 15.4395C8.59375 15.5176 8.5026 15.5566 8.39844 15.5566ZM10.8008 15.5566H10C9.88281 15.5566 9.78516 15.5176 9.70703 15.4395C9.62891 15.3613 9.58984 15.2669 9.58984 15.1562C9.58984 15.0456 9.62891 14.9512 9.70703 14.873C9.78516 14.7949 9.88281 14.7559 10 14.7559H10.8008C10.9049 14.7559 10.9961 14.7949 11.0742 14.873C11.1523 14.9512 11.1914 15.0456 11.1914 15.1562C11.1914 15.2669 11.1523 15.3613 11.0742 15.4395C10.9961 15.5176 10.9049 15.5566 10.8008 15.5566ZM13.2031 15.5566H12.4023C12.2852 15.5566 12.1875 15.5176 12.1094 15.4395C12.0312 15.3613 11.9922 15.2669 11.9922 15.1562C11.9922 15.0456 12.0312 14.9512 12.1094 14.873C12.1875 14.7949 12.2852 14.7559 12.4023 14.7559H13.2031C13.3073 14.7559 13.3984 14.7949 13.4766 14.873C13.5547 14.9512 13.5938 15.0456 13.5938 15.1562C13.5938 15.2669 13.5547 15.3613 13.4766 15.4395C13.3984 15.5176 13.3073 15.5566 13.2031 15.5566Z" fill="#8000FF"/>
</svg>
