<svg width="50" height="50" viewBox="0 0 50 50" fill="none" xmlns="http://www.w3.org/2000/svg">
<circle cx="25" cy="25" r="25" fill="#FF8A1E"/>
<g clip-path="url(#clip0_53_10002)">
<path d="M15 15.625C15 15.4592 15.0658 15.3003 15.1831 15.1831C15.3003 15.0658 15.4592 15 15.625 15H19.375C19.5408 15 19.6997 15.0658 19.8169 15.1831C19.9342 15.3003 20 15.4592 20 15.625C20 15.7908 19.9342 15.9497 19.8169 16.0669C19.6997 16.1842 19.5408 16.25 19.375 16.25H16.25V19.375C16.25 19.5408 16.1842 19.6997 16.0669 19.8169C15.9497 19.9342 15.7908 20 15.625 20C15.4592 20 15.3003 19.9342 15.1831 19.8169C15.0658 19.6997 15 19.5408 15 19.375V15.625ZM30 15.625C30 15.4592 30.0658 15.3003 30.1831 15.1831C30.3003 15.0658 30.4592 15 30.625 15H34.375C34.5408 15 34.6997 15.0658 34.8169 15.1831C34.9342 15.3003 35 15.4592 35 15.625V19.375C35 19.5408 34.9342 19.6997 34.8169 19.8169C34.6997 19.9342 34.5408 20 34.375 20C34.2092 20 34.0503 19.9342 33.9331 19.8169C33.8158 19.6997 33.75 19.5408 33.75 19.375V16.25H30.625C30.4592 16.25 30.3003 16.1842 30.1831 16.0669C30.0658 15.9497 30 15.7908 30 15.625ZM15.625 30C15.7908 30 15.9497 30.0658 16.0669 30.1831C16.1842 30.3003 16.25 30.4592 16.25 30.625V33.75H19.375C19.5408 33.75 19.6997 33.8158 19.8169 33.9331C19.9342 34.0503 20 34.2092 20 34.375C20 34.5408 19.9342 34.6997 19.8169 34.8169C19.6997 34.9342 19.5408 35 19.375 35H15.625C15.4592 35 15.3003 34.9342 15.1831 34.8169C15.0658 34.6997 15 34.5408 15 34.375V30.625C15 30.4592 15.0658 30.3003 15.1831 30.1831C15.3003 30.0658 15.4592 30 15.625 30ZM34.375 30C34.5408 30 34.6997 30.0658 34.8169 30.1831C34.9342 30.3003 35 30.4592 35 30.625V34.375C35 34.5408 34.9342 34.6997 34.8169 34.8169C34.6997 34.9342 34.5408 35 34.375 35H30.625C30.4592 35 30.3003 34.9342 30.1831 34.8169C30.0658 34.6997 30 34.5408 30 34.375C30 34.2092 30.0658 34.0503 30.1831 33.9331C30.3003 33.8158 30.4592 33.75 30.625 33.75H33.75V30.625C33.75 30.4592 33.8158 30.3003 33.9331 30.1831C34.0503 30.0658 34.2092 30 34.375 30ZM20 20H21.25V21.25H20V20Z" fill="white"/>
<path d="M23.75 17.5H17.5V23.75H23.75V17.5ZM18.75 18.75H22.5V22.5H18.75V18.75ZM21.25 28.75H20V30H21.25V28.75Z" fill="white"/>
<path d="M23.75 26.25H17.5V32.5H23.75V26.25ZM18.75 27.5H22.5V31.25H18.75V27.5ZM28.75 20H30V21.25H28.75V20Z" fill="white"/>
<path d="M26.25 17.5H32.5V23.75H26.25V17.5ZM27.5 18.75V22.5H31.25V18.75H27.5ZM25 25V27.5H26.25V28.75H25V30H27.5V27.5H28.75V30H30V28.75H32.5V27.5H28.75V25H25ZM27.5 27.5H26.25V26.25H27.5V27.5ZM32.5 30H31.25V31.25H28.75V32.5H32.5V30ZM27.5 32.5V31.25H25V32.5H27.5Z" fill="white"/>
<path d="M30 26.25H32.5V25H30V26.25Z" fill="white"/>
</g>
<defs>
<clipPath id="clip0_53_10002">
<rect width="20" height="20" fill="white" transform="translate(15 15)"/>
</clipPath>
</defs>
</svg>
