<svg width="9" height="16" viewBox="0 0 9 16" fill="none" xmlns="http://www.w3.org/2000/svg">
<path id="Vector" d="M0.10988 0.640532C0.0395155 0.570166 -1.52588e-05 0.47473 -1.52588e-05 0.375218C-1.52588e-05 0.275707 0.0395155 0.180271 0.10988 0.109905C0.180246 0.0395403 0.275682 9.53674e-06 0.375194 9.53674e-06C0.474705 9.53674e-06 0.570141 0.0395403 0.640506 0.109905L8.14051 7.60991C8.17537 7.64473 8.20303 7.68609 8.2219 7.73162C8.24078 7.77714 8.25049 7.82594 8.25049 7.87522C8.25049 7.9245 8.24078 7.9733 8.2219 8.01882C8.20303 8.06435 8.17537 8.1057 8.14051 8.14053L0.640506 15.6405C0.605665 15.6754 0.564302 15.703 0.51878 15.7219C0.473258 15.7407 0.424467 15.7504 0.375194 15.7504C0.325921 15.7504 0.27713 15.7407 0.231607 15.7219C0.186085 15.703 0.144722 15.6754 0.10988 15.6405C0.0750399 15.6057 0.0474024 15.5643 0.0285463 15.5188C0.00969028 15.4733 -1.52588e-05 15.4245 -1.52588e-05 15.3752C-1.52588e-05 15.3259 0.00969028 15.2772 0.0285463 15.2316C0.0474024 15.1861 0.0750399 15.1447 0.10988 15.1099L7.34457 7.87522L0.10988 0.640532Z" fill="black"/>
</svg>
