<svg width="21" height="21" viewBox="0 0 21 21" fill="none" xmlns="http://www.w3.org/2000/svg">
<g clip-path="url(#clip0_49_3842)">
<path d="M13.0992 16.8398L9.01713 12.3867C9.64213 11.7227 10.062 10.9609 10.2769 10.1016C10.4917 9.24219 10.4852 8.37956 10.2574 7.51367C10.0295 6.64779 9.59655 5.89258 8.95853 5.24805C8.32051 4.60352 7.57507 4.16081 6.7222 3.91992C5.86934 3.67904 5.00671 3.65625 4.13431 3.85156C3.26192 4.04688 2.49369 4.45052 1.82963 5.0625C1.16556 5.67448 0.696813 6.4069 0.423376 7.25977C0.149938 8.11263 0.0978549 8.97526 0.267126 9.84766C0.436397 10.7201 0.817256 11.5013 1.4097 12.1914C2.00215 12.8815 2.7183 13.3763 3.55814 13.6758C4.39798 13.9753 5.25736 14.0534 6.13627 13.9102C7.01517 13.7669 7.80619 13.4154 8.50931 12.8555L12.5913 17.3086C12.6564 17.3737 12.7346 17.4062 12.8257 17.4062C12.9169 17.4062 12.995 17.377 13.0601 17.3184C13.1252 17.2598 13.161 17.1849 13.1675 17.0938C13.174 17.0026 13.1512 16.918 13.0992 16.8398ZM0.833532 8.83203C0.833532 8.02474 1.0321 7.2793 1.42924 6.5957C1.82637 5.91211 2.36673 5.36849 3.05033 4.96484C3.73392 4.5612 4.48262 4.35938 5.29642 4.35938C6.11022 4.35938 6.85892 4.5612 7.54252 4.96484C8.22611 5.36849 8.76647 5.91211 9.16361 6.5957C9.56075 7.2793 9.75931 8.02474 9.75931 8.83203C9.75931 9.63932 9.56075 10.3848 9.16361 11.0684C8.76647 11.752 8.22611 12.2923 7.54252 12.6895C6.85892 13.0866 6.11022 13.2852 5.29642 13.2852C4.48262 13.2852 3.73718 13.0866 3.06009 12.6895C2.38301 12.2923 1.84265 11.752 1.439 11.0684C1.03535 10.3848 0.833532 9.63932 0.833532 8.83203Z" fill="#50525F"/>
</g>
<defs>
<clipPath id="clip0_49_3842">
<rect width="20" height="20" fill="white" transform="matrix(1 0 0 -1 0.170044 20.5508)"/>
</clipPath>
</defs>
</svg>
