<svg width="35" height="35" viewBox="0 0 35 35" fill="none" xmlns="http://www.w3.org/2000/svg">
<path d="M31.3988 29.8521L24.5533 23.008C26.5374 20.6259 27.5267 17.5706 27.3156 14.4777C27.1044 11.3848 25.709 8.49233 23.4195 6.40206C21.1301 4.31178 18.1229 3.18463 15.0236 3.25507C11.9242 3.3255 8.97138 4.58811 6.77926 6.78023C4.58713 8.97235 3.32453 11.9252 3.25409 15.0245C3.18365 18.1239 4.31081 21.131 6.40108 23.4205C8.49135 25.7099 11.3838 27.1054 14.4767 27.3166C17.5697 27.5277 20.6249 26.5383 23.007 24.5542L29.8511 31.3998C29.9527 31.5014 30.0734 31.582 30.2062 31.637C30.3389 31.692 30.4812 31.7203 30.6249 31.7203C30.7687 31.7203 30.911 31.692 31.0437 31.637C31.1765 31.582 31.2972 31.5014 31.3988 31.3998C31.5004 31.2981 31.581 31.1775 31.636 31.0447C31.691 30.9119 31.7193 30.7696 31.7193 30.6259C31.7193 30.4822 31.691 30.3399 31.636 30.2071C31.581 30.0744 31.5004 29.9537 31.3988 29.8521ZM5.4687 15.3134C5.4687 13.3665 6.04602 11.4633 7.12767 9.84453C8.20931 8.22573 9.7467 6.96403 11.5454 6.21898C13.3441 5.47393 15.3234 5.27899 17.2329 5.65882C19.1424 6.03864 20.8964 6.97617 22.273 8.35284C23.6497 9.72951 24.5872 11.4835 24.9671 13.393C25.3469 15.3025 25.1519 17.2818 24.4069 19.0805C23.6618 20.8792 22.4001 22.4166 20.7813 23.4982C19.1625 24.5798 17.2594 25.1572 15.3124 25.1572C12.7026 25.1543 10.2005 24.1162 8.35506 22.2708C6.50963 20.4254 5.47159 17.9233 5.4687 15.3134Z" fill="#8000FF"/>
</svg>
