<svg width="24" height="24" viewBox="0 0 24 24" fill="none" xmlns="http://www.w3.org/2000/svg">
<path d="M17.2713 20.9919C16.578 20.9919 15.9876 20.7486 15.5003 20.2619C15.013 19.7766 14.7693 19.1866 14.7693 18.4919C14.7693 18.3586 14.781 18.2209 14.8043 18.0789C14.827 17.9363 14.8613 17.8023 14.9073 17.6769L7.16529 13.1149C6.92062 13.3909 6.63595 13.6059 6.31129 13.7599C5.98729 13.9146 5.63995 13.9919 5.26929 13.9919C4.57462 13.9919 3.98462 13.7489 3.49929 13.2629C3.01262 12.7776 2.76929 12.1879 2.76929 11.4939C2.76929 10.8006 3.01262 10.2103 3.49929 9.72294C3.98395 9.23561 4.57395 8.99194 5.26929 8.99194C5.63995 8.99194 5.98729 9.06928 6.31129 9.22394C6.63595 9.37794 6.92062 9.59294 7.16529 9.86894L14.9073 5.30694C14.8613 5.18161 14.827 5.04761 14.8043 4.90494C14.781 4.76294 14.7693 4.62528 14.7693 4.49194C14.7693 3.79728 15.0123 3.20728 15.4983 2.72194C15.9836 2.23528 16.5733 1.99194 17.2673 1.99194C17.9606 1.99194 18.551 2.23494 19.0383 2.72094C19.5256 3.20628 19.7693 3.79594 19.7693 4.48994C19.7693 5.18328 19.526 5.77361 19.0393 6.26094C18.554 6.74828 17.964 6.99194 17.2693 6.99194C16.8986 6.99194 16.5513 6.91461 16.2273 6.75994C15.9026 6.60594 15.618 6.39094 15.3733 6.11494L7.63129 10.6769C7.67729 10.8023 7.71162 10.9356 7.73429 11.0769C7.75762 11.2189 7.76929 11.3559 7.76929 11.4879C7.76929 11.6199 7.75762 11.7583 7.73429 11.9029C7.71162 12.0469 7.67729 12.1816 7.63129 12.3069L15.3733 16.8689C15.618 16.5929 15.9026 16.3779 16.2273 16.2239C16.5513 16.0693 16.8986 15.9919 17.2693 15.9919C17.964 15.9919 18.554 16.2349 19.0393 16.7209C19.526 17.2063 19.7693 17.7959 19.7693 18.4899C19.7693 19.1833 19.5263 19.7736 19.0403 20.2609C18.555 20.7483 17.9653 20.9919 17.2713 20.9919ZM17.2693 5.99194C17.6806 5.99194 18.0336 5.84494 18.3283 5.55094C18.6223 5.25628 18.7693 4.90328 18.7693 4.49194C18.7693 4.08061 18.6223 3.72761 18.3283 3.43294C18.0336 3.13894 17.6806 2.99194 17.2693 2.99194C16.858 2.99194 16.505 3.13894 16.2103 3.43294C15.9163 3.72761 15.7693 4.08061 15.7693 4.49194C15.7693 4.90328 15.9163 5.25628 16.2103 5.55094C16.505 5.84494 16.858 5.99194 17.2693 5.99194ZM5.26929 12.9919C5.68062 12.9919 6.03362 12.8449 6.32829 12.5509C6.62229 12.2563 6.76929 11.9033 6.76929 11.4919C6.76929 11.0806 6.62229 10.7276 6.32829 10.4329C6.03362 10.1389 5.68062 9.99194 5.26929 9.99194C4.85795 9.99194 4.50495 10.1389 4.21029 10.4329C3.91629 10.7276 3.76929 11.0806 3.76929 11.4919C3.76929 11.9033 3.91629 12.2563 4.21029 12.5509C4.50495 12.8449 4.85795 12.9919 5.26929 12.9919ZM17.2693 19.9919C17.6806 19.9919 18.0336 19.8449 18.3283 19.5509C18.6223 19.2563 18.7693 18.9033 18.7693 18.4919C18.7693 18.0806 18.6223 17.7276 18.3283 17.4329C18.0336 17.1389 17.6806 16.9919 17.2693 16.9919C16.858 16.9919 16.505 17.1389 16.2103 17.4329C15.9163 17.7276 15.7693 18.0806 15.7693 18.4919C15.7693 18.9033 15.9163 19.2563 16.2103 19.5509C16.505 19.8449 16.858 19.9919 17.2693 19.9919Z" fill="white"/>
</svg>
