<svg width="27" height="27" viewBox="0 0 27 27" fill="none" xmlns="http://www.w3.org/2000/svg">
<g clip-path="url(#clip0_49_8016)">
<path d="M9.96997 22.9238C8.20955 22.9238 6.56763 22.4837 5.04419 21.6035C3.57153 20.7402 2.40356 19.5723 1.54028 18.0996C0.660075 16.5931 0.219971 14.9554 0.219971 13.1865C0.219971 11.4176 0.660075 9.77995 1.54028 8.27344C2.40356 6.80078 3.57153 5.63281 5.04419 4.76953C6.56763 3.88932 8.20955 3.44922 9.96997 3.44922C11.7304 3.44922 13.3723 3.88932 14.8958 4.76953C16.3684 5.63281 17.5364 6.80078 18.3997 8.27344C19.2799 9.77995 19.72 11.4176 19.72 13.1865C19.72 14.9554 19.2799 16.5931 18.3997 18.0996C17.5364 19.5723 16.3684 20.7402 14.8958 21.6035C13.3723 22.4837 11.7304 22.9238 9.96997 22.9238ZM8.2688 17.3887C8.2688 17.7441 8.36613 18.015 8.56079 18.2012C8.75545 18.3874 9.02629 18.4805 9.37329 18.4805C9.7203 18.4805 9.99536 18.3831 10.1985 18.1885C10.4016 17.9938 10.5032 17.7272 10.5032 17.3887C10.5032 17.0501 10.4058 16.7878 10.2112 16.6016C10.0165 16.4154 9.74146 16.3223 9.38599 16.3223C9.03052 16.3223 8.75545 16.4111 8.56079 16.5889C8.36613 16.7666 8.2688 17.0332 8.2688 17.3887ZM8.47192 15.2305H10.1477V14.8496C10.1477 14.5957 10.2027 14.3883 10.3127 14.2275C10.4228 14.0667 10.6809 13.8424 11.0872 13.5547C11.6796 13.1315 12.0816 12.7507 12.2932 12.4121C12.5048 12.0736 12.6106 11.6673 12.6106 11.1934C12.6106 10.4993 12.3525 9.94075 11.8362 9.51758C11.3199 9.0944 10.6301 8.88281 9.76685 8.88281C8.70044 8.88281 7.70174 9.15365 6.77075 9.69531L7.4563 11.0664C8.2688 10.6602 8.9882 10.457 9.6145 10.457C9.9869 10.457 10.2747 10.529 10.4778 10.6729C10.6809 10.8167 10.7825 11.0199 10.7825 11.2822C10.7825 11.5446 10.7105 11.7731 10.5667 11.9678C10.4228 12.1624 10.1265 12.4248 9.67798 12.7549C9.22941 13.085 8.91626 13.3981 8.73853 13.6943C8.56079 13.9906 8.47192 14.3418 8.47192 14.748V15.2305Z" fill="#CBCBCF"/>
</g>
<defs>
<clipPath id="clip0_49_8016">
<rect width="26" height="26" fill="white" transform="matrix(1 0 0 -1 0.219971 26.1992)"/>
</clipPath>
</defs>
</svg>
