<svg width="26" height="36" viewBox="0 0 26 36" fill="none" xmlns="http://www.w3.org/2000/svg">
<g id="SVG" clip-path="url(#clip0_134_2841)">
<g id="Vector">
<path d="M16.0036 9.81886C17.0422 10.0399 17.9967 10.5941 18.745 11.4105C19.4932 12.2269 20.0012 13.2683 20.2038 14.4015M16.0036 5.17822C18.1614 5.43976 20.1736 6.49404 21.7097 8.16796C23.2459 9.84187 24.2147 12.0359 24.4571 14.3899M23.3938 23.6479V27.1284C23.395 27.4515 23.3343 27.7713 23.2157 28.0674C23.0971 28.3634 22.9231 28.6292 22.7048 28.8476C22.4866 29.066 22.229 29.2323 21.9485 29.3359C21.6679 29.4394 21.3707 29.4778 21.0757 29.4487C17.8037 29.0608 14.6606 27.8409 11.8992 25.887C9.32996 24.1058 7.15173 21.7292 5.51916 18.9261C3.7221 15.8995 2.60376 12.4536 2.25472 8.86753C2.22815 8.5467 2.2631 8.22336 2.35734 7.91808C2.45158 7.6128 2.60304 7.33228 2.80209 7.09436C3.00114 6.85645 3.24342 6.66637 3.51349 6.53621C3.78356 6.40606 4.07551 6.33868 4.37076 6.33838H7.56076C8.0768 6.33284 8.57708 6.53222 8.96836 6.89936C9.35963 7.26649 9.6152 7.77634 9.68742 8.33385C9.82207 9.44768 10.0718 10.5413 10.4318 11.5939C10.5748 12.0091 10.6058 12.4604 10.521 12.8943C10.4362 13.3282 10.2391 13.7264 9.95326 14.0418L8.60283 15.5152C10.1165 18.4197 12.3207 20.8246 14.9828 22.4762L16.3333 21.0028C16.6224 20.6909 16.9874 20.4759 17.385 20.3834C17.7827 20.2908 18.1963 20.3246 18.5769 20.4807C19.5416 20.8735 20.544 21.1459 21.5649 21.2928C22.0814 21.3723 22.5531 21.6562 22.8903 22.0904C23.2276 22.5247 23.4067 23.079 23.3938 23.6479Z" fill="black"/>
<path d="M16.0036 9.81886C17.0422 10.0399 17.9967 10.5941 18.745 11.4105C19.4932 12.2269 20.0012 13.2683 20.2038 14.4015M16.0036 5.17822C18.1614 5.43976 20.1736 6.49404 21.7097 8.16796C23.2459 9.84187 24.2147 12.0359 24.4571 14.3899M23.3938 23.6479V27.1284C23.395 27.4515 23.3343 27.7713 23.2157 28.0674C23.0971 28.3634 22.9231 28.6292 22.7048 28.8476C22.4866 29.066 22.229 29.2323 21.9485 29.3359C21.6679 29.4394 21.3707 29.4778 21.0757 29.4487C17.8037 29.0608 14.6606 27.8409 11.8992 25.887C9.32996 24.1058 7.15173 21.7292 5.51916 18.9261C3.7221 15.8995 2.60376 12.4536 2.25472 8.86753C2.22815 8.5467 2.2631 8.22336 2.35734 7.91808C2.45158 7.6128 2.60304 7.33228 2.80209 7.09436C3.00114 6.85645 3.24342 6.66637 3.51349 6.53621C3.78356 6.40606 4.07551 6.33868 4.37076 6.33838H7.56076C8.0768 6.33284 8.57708 6.53222 8.96836 6.89936C9.35963 7.26649 9.6152 7.77634 9.68742 8.33385C9.82207 9.44768 10.0718 10.5413 10.4318 11.5939C10.5748 12.0091 10.6058 12.4604 10.521 12.8943C10.4362 13.3282 10.2391 13.7264 9.95326 14.0418L8.60283 15.5152C10.1165 18.4197 12.3207 20.8246 14.9828 22.4762L16.3333 21.0028C16.6224 20.6909 16.9874 20.4759 17.385 20.3834C17.7827 20.2908 18.1963 20.3246 18.5769 20.4807C19.5416 20.8735 20.544 21.1459 21.5649 21.2928C22.0814 21.3723 22.5531 21.6562 22.8903 22.0904C23.2276 22.5247 23.4067 23.079 23.3938 23.6479Z" stroke="black" stroke-opacity="0.1" stroke-width="2.32032" stroke-linecap="round" stroke-linejoin="round"/>
</g>
</g>
<defs>
<clipPath id="clip0_134_2841">
<rect width="25.52" height="35" fill="white" transform="translate(0 0.439941)"/>
</clipPath>
</defs>
</svg>
