<svg width="26" height="36" viewBox="0 0 26 36" fill="none" xmlns="http://www.w3.org/2000/svg">
<g id="SVG" clip-path="url(#clip0_110_28)">
<g id="Vector">
<path d="M16.0031 9.81886C17.0417 10.0399 17.9962 10.5941 18.7445 11.4105C19.4927 12.2269 20.0007 13.2683 20.2033 14.4015M16.0031 5.17822C18.1609 5.43976 20.1731 6.49404 21.7092 8.16796C23.2454 9.84187 24.2142 12.0359 24.4566 14.3899M23.3933 23.6479V27.1284C23.3945 27.4515 23.3338 27.7713 23.2152 28.0674C23.0966 28.3634 22.9226 28.6292 22.7043 28.8476C22.4861 29.066 22.2285 29.2323 21.948 29.3359C21.6674 29.4394 21.3702 29.4778 21.0752 29.4487C17.8032 29.0608 14.6601 27.8409 11.8987 25.887C9.32947 24.1058 7.15124 21.7292 5.51867 18.9261C3.72161 15.8995 2.60327 12.4536 2.25424 8.86753C2.22766 8.5467 2.26261 8.22336 2.35685 7.91808C2.45109 7.6128 2.60255 7.33228 2.8016 7.09436C3.00065 6.85645 3.24293 6.66637 3.513 6.53621C3.78307 6.40606 4.07503 6.33868 4.37027 6.33838H7.56027C8.07631 6.33284 8.5766 6.53222 8.96787 6.89936C9.35914 7.26649 9.61471 7.77634 9.68694 8.33385C9.82158 9.44768 10.0713 10.5413 10.4313 11.5939C10.5743 12.0091 10.6053 12.4604 10.5205 12.8943C10.4357 13.3282 10.2387 13.7264 9.95277 14.0418L8.60234 15.5152C10.1161 18.4197 12.3202 20.8246 14.9823 22.4762L16.3328 21.0028C16.6219 20.6909 16.9869 20.4759 17.3845 20.3834C17.7822 20.2908 18.1958 20.3246 18.5764 20.4807C19.5411 20.8735 20.5435 21.1459 21.5644 21.2928C22.0809 21.3723 22.5526 21.6562 22.8899 22.0904C23.2271 22.5247 23.4062 23.079 23.3933 23.6479Z" fill="white"/>
<path d="M16.0031 9.81886C17.0417 10.0399 17.9962 10.5941 18.7445 11.4105C19.4927 12.2269 20.0007 13.2683 20.2033 14.4015M16.0031 5.17822C18.1609 5.43976 20.1731 6.49404 21.7092 8.16796C23.2454 9.84187 24.2142 12.0359 24.4566 14.3899M23.3933 23.6479V27.1284C23.3945 27.4515 23.3338 27.7713 23.2152 28.0674C23.0966 28.3634 22.9226 28.6292 22.7043 28.8476C22.4861 29.066 22.2285 29.2323 21.948 29.3359C21.6674 29.4394 21.3702 29.4778 21.0752 29.4487C17.8032 29.0608 14.6601 27.8409 11.8987 25.887C9.32947 24.1058 7.15124 21.7292 5.51867 18.9261C3.72161 15.8995 2.60327 12.4536 2.25424 8.86753C2.22766 8.5467 2.26261 8.22336 2.35685 7.91808C2.45109 7.6128 2.60255 7.33228 2.8016 7.09436C3.00065 6.85645 3.24293 6.66637 3.513 6.53621C3.78307 6.40606 4.07503 6.33868 4.37027 6.33838H7.56027C8.07631 6.33284 8.5766 6.53222 8.96787 6.89936C9.35914 7.26649 9.61471 7.77634 9.68694 8.33385C9.82158 9.44768 10.0713 10.5413 10.4313 11.5939C10.5743 12.0091 10.6053 12.4604 10.5205 12.8943C10.4357 13.3282 10.2387 13.7264 9.95277 14.0418L8.60234 15.5152C10.1161 18.4197 12.3202 20.8246 14.9823 22.4762L16.3328 21.0028C16.6219 20.6909 16.9869 20.4759 17.3845 20.3834C17.7822 20.2908 18.1958 20.3246 18.5764 20.4807C19.5411 20.8735 20.5435 21.1459 21.5644 21.2928C22.0809 21.3723 22.5526 21.6562 22.8899 22.0904C23.2271 22.5247 23.4062 23.079 23.3933 23.6479Z" stroke="white" stroke-opacity="0.1" stroke-width="2.32032" stroke-linecap="round" stroke-linejoin="round"/>
</g>
</g>
<defs>
<clipPath id="clip0_110_28">
<rect width="25.52" height="35" fill="white" transform="translate(0 0.439941)"/>
</clipPath>
</defs>
</svg>
