<svg width="567" height="66" viewBox="0 0 567 66" fill="none" xmlns="http://www.w3.org/2000/svg">
<rect x="1.48047" y="0.949219" width="41" height="29" fill="white"/>
<rect x="1.48047" y="0.949219" width="41" height="29" stroke="#CCCCCC"/>
<g clip-path="url(#clip0_440_22)">
<path d="M22.3145 10.7715C22.4199 10.7715 22.5078 10.8066 22.5781 10.877C22.6484 10.9473 22.6836 11.0352 22.6836 11.1406C22.6836 11.2461 22.6484 11.334 22.5781 11.4043C22.5078 11.4746 22.4199 11.5098 22.3145 11.5098H18.1484L16.707 20.1758C16.6953 20.2578 16.6543 20.3281 16.584 20.3867C16.5137 20.4453 16.4316 20.4805 16.3379 20.4922L16.2852 20.4746C16.1797 20.4629 16.0977 20.416 16.0391 20.334C15.9805 20.252 15.957 20.1582 15.9688 20.0527L17.3926 11.5098H13.3496C13.2441 11.5098 13.1562 11.4746 13.0859 11.4043C13.0156 11.334 12.9805 11.2461 12.9805 11.1406C12.9805 11.0352 13.0156 10.9473 13.0859 10.877C13.1562 10.8066 13.2441 10.7715 13.3496 10.7715H22.3145ZM20.082 21.9688C20.1875 21.9688 20.2754 22.0068 20.3457 22.083C20.416 22.1592 20.4512 22.25 20.4512 22.3555C20.4512 22.4609 20.416 22.5488 20.3457 22.6191C20.2754 22.6895 20.1875 22.7246 20.082 22.7246H13.3496C13.2441 22.7246 13.1562 22.6895 13.0859 22.6191C13.0156 22.5488 12.9805 22.4609 12.9805 22.3555C12.9805 22.25 13.0156 22.1621 13.0859 22.0918C13.1562 22.0215 13.2441 21.9863 13.3496 21.9863L20.082 21.9688Z" fill="#50525F"/>
</g>
<rect x="49.1309" y="0.949219" width="41" height="29" fill="white"/>
<rect x="49.1309" y="0.949219" width="41" height="29" stroke="#CCCCCC"/>
<g clip-path="url(#clip1_440_22)">
<path d="M74.5703 11.4922H61.0879C60.959 11.4922 60.8506 11.4482 60.7627 11.3604C60.6748 11.2725 60.6309 11.167 60.6309 11.0439C60.6309 10.9209 60.6748 10.8154 60.7627 10.7275C60.8506 10.6396 60.959 10.5957 61.0879 10.5957H74.5703C74.6992 10.5957 74.8076 10.6396 74.8955 10.7275C74.9834 10.8154 75.0273 10.9209 75.0273 11.0439C75.0273 11.167 74.9834 11.2725 74.8955 11.3604C74.8076 11.4482 74.6992 11.4922 74.5703 11.4922ZM70.9844 14.1992H61.0879C60.959 14.1992 60.8506 14.1553 60.7627 14.0674C60.6748 13.9795 60.6309 13.874 60.6309 13.751C60.6309 13.6279 60.6748 13.5225 60.7627 13.4346C60.8506 13.3467 60.959 13.3027 61.0879 13.3027H70.9844C71.1016 13.3027 71.2041 13.3467 71.292 13.4346C71.3799 13.5225 71.4238 13.6279 71.4238 13.751C71.4238 13.874 71.3799 13.9795 71.292 14.0674C71.2041 14.1553 71.1016 14.1992 70.9844 14.1992ZM74.5703 16.8887H61.0879C60.959 16.8887 60.8506 16.8447 60.7627 16.7568C60.6748 16.6689 60.6309 16.5635 60.6309 16.4404C60.6309 16.3174 60.6748 16.2119 60.7627 16.124C60.8506 16.0361 60.959 15.9922 61.0879 15.9922H74.5703C74.6992 15.9922 74.8076 16.0361 74.8955 16.124C74.9834 16.2119 75.0273 16.3174 75.0273 16.4404C75.0273 16.5635 74.9834 16.6689 74.8955 16.7568C74.8076 16.8447 74.6992 16.8887 74.5703 16.8887ZM70.9844 19.5957H61.0879C60.959 19.5957 60.8506 19.5518 60.7627 19.4639C60.6748 19.376 60.6309 19.2705 60.6309 19.1475C60.6309 19.0244 60.6748 18.9189 60.7627 18.8311C60.8506 18.7432 60.959 18.6992 61.0879 18.6992H70.9844C71.1016 18.6992 71.2041 18.7432 71.292 18.8311C71.3799 18.9189 71.4238 19.0244 71.4238 19.1475C71.4238 19.2705 71.3799 19.376 71.292 19.4639C71.2041 19.5518 71.1016 19.5957 70.9844 19.5957ZM74.5703 22.2852H61.0879C60.959 22.2852 60.8506 22.2412 60.7627 22.1533C60.6748 22.0654 60.6309 21.96 60.6309 21.8369C60.6309 21.7139 60.6748 21.6084 60.7627 21.5205C60.8506 21.4326 60.959 21.3887 61.0879 21.3887H74.5703C74.6992 21.3887 74.8076 21.4326 74.8955 21.5205C74.9834 21.6084 75.0273 21.7139 75.0273 21.8369C75.0273 21.96 74.9834 22.0654 74.8955 22.1533C74.8076 22.2412 74.6992 22.2852 74.5703 22.2852Z" fill="#50525F"/>
</g>
<rect x="90.1309" y="0.949219" width="41" height="29" fill="white"/>
<rect x="90.1309" y="0.949219" width="41" height="29" stroke="#CCCCCC"/>
<g clip-path="url(#clip2_440_22)">
<path d="M115.57 11.4922H102.088C101.959 11.4922 101.851 11.4482 101.763 11.3604C101.675 11.2725 101.631 11.167 101.631 11.0439C101.631 10.9209 101.675 10.8154 101.763 10.7275C101.851 10.6396 101.959 10.5957 102.088 10.5957H115.57C115.699 10.5957 115.808 10.6396 115.896 10.7275C115.983 10.8154 116.027 10.9209 116.027 11.0439C116.027 11.167 115.983 11.2725 115.896 11.3604C115.808 11.4482 115.699 11.4922 115.57 11.4922ZM113.777 14.1992H103.881C103.752 14.1992 103.644 14.1553 103.556 14.0674C103.468 13.9795 103.424 13.874 103.424 13.751C103.424 13.6279 103.468 13.5225 103.556 13.4346C103.644 13.3467 103.752 13.3027 103.881 13.3027H113.777C113.906 13.3027 114.015 13.3467 114.103 13.4346C114.19 13.5225 114.234 13.6279 114.234 13.751C114.234 13.874 114.19 13.9795 114.103 14.0674C114.015 14.1553 113.906 14.1992 113.777 14.1992ZM115.57 16.8887H102.088C101.959 16.8887 101.851 16.8447 101.763 16.7568C101.675 16.6689 101.631 16.5635 101.631 16.4404C101.631 16.3174 101.675 16.2119 101.763 16.124C101.851 16.0361 101.959 15.9922 102.088 15.9922H115.57C115.699 15.9922 115.808 16.0361 115.896 16.124C115.983 16.2119 116.027 16.3174 116.027 16.4404C116.027 16.5635 115.983 16.6689 115.896 16.7568C115.808 16.8447 115.699 16.8887 115.57 16.8887ZM113.777 19.5957H103.881C103.752 19.5957 103.644 19.5518 103.556 19.4639C103.468 19.376 103.424 19.2705 103.424 19.1475C103.424 19.0244 103.468 18.9189 103.556 18.8311C103.644 18.7432 103.752 18.6992 103.881 18.6992H113.777C113.906 18.6992 114.015 18.7432 114.103 18.8311C114.19 18.9189 114.234 19.0244 114.234 19.1475C114.234 19.2705 114.19 19.376 114.103 19.4639C114.015 19.5518 113.906 19.5957 113.777 19.5957ZM115.57 22.2852H102.088C101.959 22.2852 101.851 22.2412 101.763 22.1533C101.675 22.0654 101.631 21.96 101.631 21.8369C101.631 21.7139 101.675 21.6084 101.763 21.5205C101.851 21.4326 101.959 21.3887 102.088 21.3887H115.57C115.699 21.3887 115.808 21.4326 115.896 21.5205C115.983 21.6084 116.027 21.7139 116.027 21.8369C116.027 21.96 115.983 22.0654 115.896 22.1533C115.808 22.2412 115.699 22.2852 115.57 22.2852ZM115.57 11.4922H102.088C101.959 11.4922 101.851 11.4482 101.763 11.3604C101.675 11.2725 101.631 11.167 101.631 11.0439C101.631 10.9209 101.675 10.8154 101.763 10.7275C101.851 10.6396 101.959 10.5957 102.088 10.5957H115.57C115.699 10.5957 115.808 10.6396 115.896 10.7275C115.983 10.8154 116.027 10.9209 116.027 11.0439C116.027 11.167 115.983 11.2725 115.896 11.3604C115.808 11.4482 115.699 11.4922 115.57 11.4922ZM113.777 14.1992H103.881C103.752 14.1992 103.644 14.1553 103.556 14.0674C103.468 13.9795 103.424 13.874 103.424 13.751C103.424 13.6279 103.468 13.5225 103.556 13.4346C103.644 13.3467 103.752 13.3027 103.881 13.3027H113.777C113.906 13.3027 114.015 13.3467 114.103 13.4346C114.19 13.5225 114.234 13.6279 114.234 13.751C114.234 13.874 114.19 13.9795 114.103 14.0674C114.015 14.1553 113.906 14.1992 113.777 14.1992ZM115.57 16.8887H102.088C101.959 16.8887 101.851 16.8447 101.763 16.7568C101.675 16.6689 101.631 16.5635 101.631 16.4404C101.631 16.3174 101.675 16.2119 101.763 16.124C101.851 16.0361 101.959 15.9922 102.088 15.9922H115.57C115.699 15.9922 115.808 16.0361 115.896 16.124C115.983 16.2119 116.027 16.3174 116.027 16.4404C116.027 16.5635 115.983 16.6689 115.896 16.7568C115.808 16.8447 115.699 16.8887 115.57 16.8887ZM113.777 19.5957H103.881C103.752 19.5957 103.644 19.5518 103.556 19.4639C103.468 19.376 103.424 19.2705 103.424 19.1475C103.424 19.0244 103.468 18.9189 103.556 18.8311C103.644 18.7432 103.752 18.6992 103.881 18.6992H113.777C113.906 18.6992 114.015 18.7432 114.103 18.8311C114.19 18.9189 114.234 19.0244 114.234 19.1475C114.234 19.2705 114.19 19.376 114.103 19.4639C114.015 19.5518 113.906 19.5957 113.777 19.5957ZM115.57 22.2852H102.088C101.959 22.2852 101.851 22.2412 101.763 22.1533C101.675 22.0654 101.631 21.96 101.631 21.8369C101.631 21.7139 101.675 21.6084 101.763 21.5205C101.851 21.4326 101.959 21.3887 102.088 21.3887H115.57C115.699 21.3887 115.808 21.4326 115.896 21.5205C115.983 21.6084 116.027 21.7139 116.027 21.8369C116.027 21.96 115.983 22.0654 115.896 22.1533C115.808 22.2412 115.699 22.2852 115.57 22.2852Z" fill="#50525F"/>
</g>
<rect x="131.131" y="0.949219" width="41" height="29" fill="white"/>
<rect x="131.131" y="0.949219" width="41" height="29" stroke="#CCCCCC"/>
<g clip-path="url(#clip3_440_22)">
<path d="M156.57 11.4922H143.088C142.959 11.4922 142.851 11.4482 142.763 11.3604C142.675 11.2725 142.631 11.167 142.631 11.0439C142.631 10.9209 142.675 10.8154 142.763 10.7275C142.851 10.6396 142.959 10.5957 143.088 10.5957H156.57C156.699 10.5957 156.808 10.6396 156.896 10.7275C156.983 10.8154 157.027 10.9209 157.027 11.0439C157.027 11.167 156.983 11.2725 156.896 11.3604C156.808 11.4482 156.699 11.4922 156.57 11.4922ZM156.57 14.1992H146.674C146.557 14.1992 146.454 14.1553 146.366 14.0674C146.278 13.9795 146.234 13.874 146.234 13.751C146.234 13.6279 146.278 13.5225 146.366 13.4346C146.454 13.3467 146.557 13.3027 146.674 13.3027H156.57C156.699 13.3027 156.808 13.3467 156.896 13.4346C156.983 13.5225 157.027 13.6279 157.027 13.751C157.027 13.874 156.983 13.9795 156.896 14.0674C156.808 14.1553 156.699 14.1992 156.57 14.1992ZM156.57 16.8887H143.088C142.959 16.8887 142.851 16.8447 142.763 16.7568C142.675 16.6689 142.631 16.5635 142.631 16.4404C142.631 16.3174 142.675 16.2119 142.763 16.124C142.851 16.0361 142.959 15.9922 143.088 15.9922H156.57C156.699 15.9922 156.808 16.0361 156.896 16.124C156.983 16.2119 157.027 16.3174 157.027 16.4404C157.027 16.5635 156.983 16.6689 156.896 16.7568C156.808 16.8447 156.699 16.8887 156.57 16.8887ZM156.57 19.5957H146.674C146.557 19.5957 146.454 19.5518 146.366 19.4639C146.278 19.376 146.234 19.2705 146.234 19.1475C146.234 19.0244 146.278 18.9189 146.366 18.8311C146.454 18.7432 146.557 18.6992 146.674 18.6992H156.57C156.699 18.6992 156.808 18.7432 156.896 18.8311C156.983 18.9189 157.027 19.0244 157.027 19.1475C157.027 19.2705 156.983 19.376 156.896 19.4639C156.808 19.5518 156.699 19.5957 156.57 19.5957ZM156.57 22.2852H143.088C142.959 22.2852 142.851 22.2412 142.763 22.1533C142.675 22.0654 142.631 21.96 142.631 21.8369C142.631 21.7139 142.675 21.6084 142.763 21.5205C142.851 21.4326 142.959 21.3887 143.088 21.3887H156.57C156.699 21.3887 156.808 21.4326 156.896 21.5205C156.983 21.6084 157.027 21.7139 157.027 21.8369C157.027 21.96 156.983 22.0654 156.896 22.1533C156.808 22.2412 156.699 22.2852 156.57 22.2852Z" fill="#50525F"/>
</g>
<rect x="178.771" y="0.949219" width="41" height="29" fill="white"/>
<rect x="178.771" y="0.949219" width="41" height="29" stroke="#CCCCCC"/>
<g clip-path="url(#clip4_440_22)">
<path d="M196.054 23.041H191.501C191.161 23.041 190.871 22.9209 190.631 22.6807C190.391 22.4404 190.271 22.1504 190.271 21.8105V11.0703C190.271 10.7305 190.391 10.4404 190.631 10.2002C190.871 9.95996 191.161 9.83984 191.501 9.83984H195.228C195.942 9.83984 196.616 10.0186 197.249 10.376C197.882 10.7334 198.386 11.2227 198.761 11.8438C199.136 12.4648 199.332 13.1357 199.35 13.8564C199.367 14.5771 199.206 15.2598 198.866 15.9043C199.476 16.4785 199.874 17.1787 200.062 18.0049C200.249 18.8311 200.188 19.6396 199.877 20.4307C199.566 21.2217 199.062 21.8545 198.365 22.3291C197.668 22.8037 196.897 23.041 196.054 23.041ZM191.501 10.666C191.396 10.666 191.302 10.707 191.22 10.7891C191.138 10.8711 191.097 10.9648 191.097 11.0703V21.8105C191.097 21.916 191.138 22.0098 191.22 22.0918C191.302 22.1738 191.396 22.2148 191.501 22.2148H196.054C196.757 22.2266 197.398 22.0273 197.979 21.6172C198.559 21.207 198.963 20.668 199.191 20C199.42 19.332 199.435 18.6611 199.235 17.9873C199.036 17.3135 198.661 16.7598 198.11 16.3262C198.028 16.2559 197.979 16.165 197.961 16.0537C197.943 15.9424 197.964 15.8457 198.022 15.7637C198.351 15.248 198.526 14.6855 198.55 14.0762C198.573 13.4668 198.438 12.8984 198.146 12.3711C197.853 11.8438 197.442 11.4248 196.915 11.1143C196.388 10.8037 195.825 10.6543 195.228 10.666H191.501ZM196.054 20.5625H193.153C193.048 20.5625 192.954 20.5244 192.872 20.4482C192.79 20.3721 192.749 20.2754 192.749 20.1582V17.6797C192.749 17.5625 192.79 17.4629 192.872 17.3809C192.954 17.2988 193.048 17.2578 193.153 17.2578H196.054C196.499 17.2578 196.883 17.4189 197.205 17.7412C197.527 18.0635 197.688 18.4531 197.688 18.9102C197.688 19.3672 197.527 19.7568 197.205 20.0791C196.883 20.4014 196.499 20.5625 196.054 20.5625ZM193.575 19.7363H196.054C196.276 19.7363 196.47 19.6572 196.634 19.499C196.798 19.3408 196.88 19.1475 196.88 18.9189C196.88 18.6904 196.798 18.4941 196.634 18.3301C196.47 18.166 196.276 18.084 196.054 18.084H193.575V19.7363ZM195.228 15.623H193.153C193.048 15.623 192.954 15.582 192.872 15.5C192.79 15.418 192.749 15.3184 192.749 15.2012V12.7227C192.749 12.6172 192.79 12.5234 192.872 12.4414C192.954 12.3594 193.048 12.3184 193.153 12.3184H195.228C195.685 12.3184 196.074 12.4795 196.396 12.8018C196.719 13.124 196.88 13.5137 196.88 13.9707C196.88 14.4277 196.719 14.8174 196.396 15.1396C196.074 15.4619 195.685 15.623 195.228 15.623ZM193.575 14.7969H195.228C195.45 14.7969 195.644 14.7148 195.808 14.5508C195.972 14.3867 196.054 14.1904 196.054 13.9619C196.054 13.7334 195.972 13.54 195.808 13.3818C195.644 13.2236 195.45 13.1445 195.228 13.1445H193.575V14.7969Z" fill="#50525F"/>
</g>
<rect x="219.771" y="0.949219" width="41" height="29" fill="white"/>
<rect x="219.771" y="0.949219" width="41" height="29" stroke="#CCCCCC"/>
<g clip-path="url(#clip5_440_22)">
<path d="M240.745 9.83984H234.136C234.019 9.83984 233.922 9.88086 233.846 9.96289C233.77 10.0449 233.731 10.1416 233.731 10.2529C233.731 10.3643 233.77 10.4609 233.846 10.543C233.922 10.625 234.019 10.666 234.136 10.666H236.966L234.646 22.2324H231.675C231.569 22.2324 231.476 22.2734 231.394 22.3555C231.312 22.4375 231.271 22.5342 231.271 22.6455C231.271 22.7568 231.312 22.8535 231.394 22.9355C231.476 23.0176 231.569 23.0586 231.675 23.0586H238.284C238.401 23.0586 238.501 23.0176 238.583 22.9355C238.665 22.8535 238.706 22.7568 238.706 22.6455C238.706 22.5342 238.665 22.4375 238.583 22.3555C238.501 22.2734 238.401 22.2324 238.284 22.2324H235.489L237.792 10.666H240.763C240.868 10.666 240.962 10.625 241.044 10.543C241.126 10.4609 241.167 10.3643 241.167 10.2529C241.167 10.1416 241.126 10.0449 241.044 9.96289C240.962 9.88086 240.868 9.83984 240.763 9.83984H240.745Z" fill="#50525F"/>
</g>
<rect x="260.771" y="0.949219" width="39" height="29" fill="white"/>
<rect x="260.771" y="0.949219" width="39" height="29" stroke="#CCCCCC"/>
<rect x="270.771" y="10.4492" width="19" height="12" rx="1.5" fill="#DDDDDD"/>
<rect x="270.771" y="10.4492" width="19" height="12" rx="1.5" stroke="black"/>
<rect x="306.41" y="0.949219" width="41" height="29" fill="white"/>
<rect x="306.41" y="0.949219" width="41" height="29" stroke="#CCCCCC"/>
<g clip-path="url(#clip6_440_22)">
<path d="M325.539 15.7988H320.23C319.961 15.7988 319.727 15.6992 319.527 15.5C319.328 15.3008 319.229 15.0664 319.229 14.7969V12.1426C319.229 11.873 319.328 11.6387 319.527 11.4395C319.727 11.2402 319.961 11.1406 320.23 11.1406H325.539C325.809 11.1406 326.043 11.2402 326.242 11.4395C326.441 11.6387 326.541 11.873 326.541 12.1426V14.7969C326.541 15.0664 326.441 15.3008 326.242 15.5C326.043 15.6992 325.809 15.7988 325.539 15.7988ZM320.23 11.8086C320.137 11.8086 320.058 11.8408 319.993 11.9053C319.929 11.9697 319.896 12.0488 319.896 12.1426V14.7969C319.896 14.8906 319.929 14.9697 319.993 15.0342C320.058 15.0986 320.137 15.1309 320.23 15.1309H325.539C325.633 15.1309 325.712 15.0986 325.776 15.0342C325.841 14.9697 325.873 14.8906 325.873 14.7969V12.1426C325.873 12.0488 325.841 11.9697 325.776 11.9053C325.712 11.8408 325.633 11.8086 325.539 11.8086H320.23ZM329.512 21.7578H320.23C319.961 21.7578 319.727 21.6611 319.527 21.4678C319.328 21.2744 319.229 21.043 319.229 20.7734V18.1191C319.229 17.8379 319.328 17.6006 319.527 17.4072C319.727 17.2139 319.961 17.1172 320.23 17.1172H329.512C329.793 17.1172 330.03 17.2139 330.224 17.4072C330.417 17.6006 330.514 17.8379 330.514 18.1191V20.7734C330.514 21.043 330.417 21.2744 330.224 21.4678C330.03 21.6611 329.793 21.7578 329.512 21.7578ZM320.23 17.7852C320.137 17.7852 320.058 17.8174 319.993 17.8818C319.929 17.9463 319.896 18.0254 319.896 18.1191V20.7734C319.896 20.8555 319.929 20.9316 319.993 21.002C320.058 21.0723 320.137 21.1074 320.23 21.1074H329.512C329.605 21.1074 329.685 21.0723 329.749 21.002C329.813 20.9316 329.846 20.8555 329.846 20.7734V18.1191C329.846 18.0254 329.813 17.9463 329.749 17.8818C329.685 17.8174 329.605 17.7852 329.512 17.7852H320.23ZM318.244 23.0938C318.15 23.0938 318.071 23.0615 318.007 22.9971C317.942 22.9326 317.91 22.8535 317.91 22.7598V10.1562C317.91 10.0625 317.942 9.9834 318.007 9.91895C318.071 9.85449 318.15 9.82227 318.244 9.82227C318.338 9.82227 318.417 9.85449 318.481 9.91895C318.546 9.9834 318.578 10.0625 318.578 10.1562V22.7598C318.578 22.8535 318.546 22.9326 318.481 22.9971C318.417 23.0615 318.338 23.0938 318.244 23.0938Z" fill="#50525F"/>
</g>
<rect x="347.41" y="0.949219" width="41" height="29" fill="white"/>
<rect x="347.41" y="0.949219" width="41" height="29" stroke="#CCCCCC"/>
<g clip-path="url(#clip7_440_22)">
<path d="M369.58 17.1348H365.115V15.7637H367.523C367.805 15.7637 368.045 15.6611 368.244 15.4561C368.443 15.251 368.543 15.0078 368.543 14.7266V11.9668C368.543 11.6855 368.443 11.4424 368.244 11.2373C368.045 11.0322 367.805 10.9297 367.523 10.9297H365.115V9.91016C365.115 9.80469 365.08 9.71973 365.01 9.65527C364.939 9.59082 364.857 9.55859 364.764 9.55859C364.67 9.55859 364.588 9.59082 364.518 9.65527C364.447 9.71973 364.412 9.80469 364.412 9.91016V10.9297H362.004C361.723 10.9297 361.482 11.0322 361.283 11.2373C361.084 11.4424 360.984 11.6855 360.984 11.9668V14.7266C360.984 15.0078 361.084 15.251 361.283 15.4561C361.482 15.6611 361.723 15.7637 362.004 15.7637H364.412V17.1348H359.947C359.654 17.1348 359.408 17.2344 359.209 17.4336C359.01 17.6328 358.91 17.8789 358.91 18.1719V20.9141C358.91 21.207 359.01 21.4531 359.209 21.6523C359.408 21.8516 359.654 21.9512 359.947 21.9512H364.412V22.9883C364.412 23.082 364.447 23.1641 364.518 23.2344C364.588 23.3047 364.67 23.3398 364.764 23.3398C364.857 23.3398 364.939 23.3047 365.01 23.2344C365.08 23.1641 365.115 23.082 365.115 22.9883V21.9512H369.58C369.873 21.9512 370.119 21.8516 370.318 21.6523C370.518 21.4531 370.617 21.207 370.617 20.9141V18.1719C370.617 17.8789 370.518 17.6328 370.318 17.4336C370.119 17.2344 369.873 17.1348 369.58 17.1348ZM367.523 11.6328C367.617 11.6328 367.696 11.665 367.761 11.7295C367.825 11.7939 367.857 11.873 367.857 11.9668V14.7266C367.857 14.8203 367.825 14.8994 367.761 14.9639C367.696 15.0283 367.617 15.0605 367.523 15.0605H365.115V11.6328H367.523ZM362.004 15.0605C361.91 15.0605 361.831 15.0283 361.767 14.9639C361.702 14.8994 361.67 14.8203 361.67 14.7266V11.9668C361.67 11.873 361.702 11.7939 361.767 11.7295C361.831 11.665 361.91 11.6328 362.004 11.6328H364.412V15.0605H362.004ZM359.947 21.2656C359.854 21.2656 359.771 21.2334 359.701 21.1689C359.631 21.1045 359.596 21.0195 359.596 20.9141V18.1719C359.596 18.0781 359.631 17.9961 359.701 17.9258C359.771 17.8555 359.854 17.8203 359.947 17.8203H364.412V21.2656H359.947ZM369.932 20.9141C369.932 21.0195 369.896 21.1045 369.826 21.1689C369.756 21.2334 369.674 21.2656 369.58 21.2656H365.115V17.8203H369.58C369.674 17.8203 369.756 17.8555 369.826 17.9258C369.896 17.9961 369.932 18.0781 369.932 18.1719V20.9141Z" fill="#50525F"/>
</g>
<rect x="388.41" y="0.949219" width="41" height="29" fill="white"/>
<rect x="388.41" y="0.949219" width="41" height="29" stroke="#CCCCCC"/>
<g clip-path="url(#clip8_440_22)">
<path d="M403.883 14.7969V12.1426C403.883 11.873 403.982 11.6387 404.182 11.4395C404.381 11.2402 404.615 11.1406 404.885 11.1406H410.193C410.463 11.1406 410.697 11.2402 410.896 11.4395C411.096 11.6387 411.195 11.873 411.195 12.1426V14.7969C411.195 15.0664 411.096 15.3008 410.896 15.5C410.697 15.6992 410.463 15.7988 410.193 15.7988H404.885C404.615 15.7988 404.381 15.6992 404.182 15.5C403.982 15.3008 403.883 15.0664 403.883 14.7969ZM404.885 11.8086C404.791 11.8086 404.712 11.8408 404.647 11.9053C404.583 11.9697 404.551 12.0488 404.551 12.1426V14.7969C404.551 14.8906 404.583 14.9697 404.647 15.0342C404.712 15.0986 404.791 15.1309 404.885 15.1309H410.193C410.287 15.1309 410.366 15.0986 410.431 15.0342C410.495 14.9697 410.527 14.8906 410.527 14.7969V12.1426C410.527 12.0488 410.495 11.9697 410.431 11.9053C410.366 11.8408 410.287 11.8086 410.193 11.8086H404.885ZM399.91 20.7734V18.1191C399.91 17.8379 400.007 17.6006 400.2 17.4072C400.394 17.2139 400.631 17.1172 400.912 17.1172H410.193C410.463 17.1172 410.697 17.2139 410.896 17.4072C411.096 17.6006 411.195 17.8379 411.195 18.1191V20.7734C411.195 21.043 411.096 21.2744 410.896 21.4678C410.697 21.6611 410.463 21.7578 410.193 21.7578H400.912C400.631 21.7578 400.394 21.6611 400.2 21.4678C400.007 21.2744 399.91 21.043 399.91 20.7734ZM400.912 17.7852C400.818 17.7852 400.739 17.8174 400.675 17.8818C400.61 17.9463 400.578 18.0254 400.578 18.1191V20.7734C400.578 20.8555 400.61 20.9316 400.675 21.002C400.739 21.0723 400.818 21.1074 400.912 21.1074H410.193C410.287 21.1074 410.366 21.0723 410.431 21.002C410.495 20.9316 410.527 20.8555 410.527 20.7734V18.1191C410.527 18.0254 410.495 17.9463 410.431 17.8818C410.366 17.8174 410.287 17.7852 410.193 17.7852H400.912ZM412.18 23.0938C412.273 23.0938 412.353 23.0615 412.417 22.9971C412.481 22.9326 412.514 22.8535 412.514 22.7598V10.1562C412.514 10.0625 412.481 9.9834 412.417 9.91895C412.353 9.85449 412.273 9.82227 412.18 9.82227C412.086 9.82227 412.007 9.85449 411.942 9.91895C411.878 9.9834 411.846 10.0625 411.846 10.1562V22.7598C411.846 22.8535 411.878 22.9326 411.942 22.9971C412.007 23.0615 412.086 23.0938 412.18 23.0938Z" fill="#50525F"/>
</g>
<rect x="436.051" y="0.949219" width="41" height="29" fill="#F2F2F2"/>
<rect x="436.051" y="0.949219" width="41" height="29" stroke="#CCCCCC"/>
<g clip-path="url(#clip9_440_22)">
<path d="M458.572 11.4219H449.133C449.039 11.4219 448.963 11.4512 448.904 11.5098C448.846 11.5684 448.816 11.6445 448.816 11.7383V19.2969C448.816 19.3789 448.846 19.4521 448.904 19.5166C448.963 19.5811 449.039 19.6133 449.133 19.6133H458.572C458.666 19.6133 458.742 19.5811 458.801 19.5166C458.859 19.4521 458.889 19.3789 458.889 19.2969V11.7383C458.889 11.6445 458.859 11.5684 458.801 11.5098C458.742 11.4512 458.666 11.4219 458.572 11.4219ZM449.449 17.5215L451.471 15.2539C451.518 15.1836 451.579 15.1484 451.655 15.1484C451.731 15.1484 451.793 15.1777 451.84 15.2363L455.338 18.9805H449.449V17.5215ZM458.256 18.9805H456.199L452.314 14.8145C452.127 14.6152 451.904 14.5186 451.646 14.5244C451.389 14.5303 451.172 14.6328 450.996 14.832L449.449 16.5723V12.0547H458.256V18.9805ZM455.742 15.834C455.391 15.834 455.092 15.7109 454.846 15.4648C454.6 15.2188 454.477 14.9199 454.477 14.5684C454.477 14.2168 454.6 13.918 454.846 13.6719C455.092 13.4258 455.391 13.3027 455.742 13.3027C456.094 13.3027 456.393 13.4258 456.639 13.6719C456.885 13.918 457.008 14.2168 457.008 14.5684C457.008 14.9199 456.885 15.2188 456.639 15.4648C456.393 15.7109 456.094 15.834 455.742 15.834ZM455.742 13.9355C455.566 13.9355 455.417 13.9971 455.294 14.1201C455.171 14.2432 455.109 14.3926 455.109 14.5684C455.109 14.7441 455.171 14.8936 455.294 15.0166C455.417 15.1396 455.566 15.2012 455.742 15.2012C455.918 15.2012 456.067 15.1396 456.19 15.0166C456.313 14.8936 456.375 14.7441 456.375 14.5684C456.375 14.3926 456.313 14.2432 456.19 14.1201C456.067 13.9971 455.918 13.9355 455.742 13.9355ZM459.205 22.7598H448.5C448.242 22.7598 448.02 22.666 447.832 22.4785C447.645 22.291 447.551 22.0684 447.551 21.8105V11.1055C447.551 10.8477 447.645 10.625 447.832 10.4375C448.02 10.25 448.242 10.1562 448.5 10.1562H459.205C459.463 10.1562 459.686 10.25 459.873 10.4375C460.061 10.625 460.154 10.8477 460.154 11.1055V21.8105C460.154 22.0684 460.061 22.291 459.873 22.4785C459.686 22.666 459.463 22.7598 459.205 22.7598ZM448.5 10.7891C448.406 10.7891 448.33 10.8184 448.271 10.877C448.213 10.9355 448.184 11.0117 448.184 11.1055V21.8105C448.184 21.9043 448.213 21.9805 448.271 22.0391C448.33 22.0977 448.406 22.127 448.5 22.127H459.205C459.299 22.127 459.375 22.0977 459.434 22.0391C459.492 21.9805 459.521 21.9043 459.521 21.8105V11.1055C459.521 11.0117 459.492 10.9355 459.434 10.877C459.375 10.8184 459.299 10.7891 459.205 10.7891H448.5Z" fill="#50525F"/>
</g>
<rect x="483.69" y="0.949219" width="41" height="29" fill="white"/>
<rect x="483.69" y="0.949219" width="41" height="29" stroke="#CCCCCC"/>
<g clip-path="url(#clip10_440_22)">
<path d="M495.19 12.8984H495.806V21.582C495.806 21.7344 495.858 21.8662 495.964 21.9775C496.069 22.0889 496.204 22.1445 496.368 22.1445H505.052V22.7598H496.368C496.04 22.7598 495.762 22.6455 495.533 22.417C495.305 22.1885 495.19 21.9102 495.19 21.582V12.8984ZM499.286 19.9473V19.2969H499.954V19.9473H499.286ZM500.604 19.9473V19.2969H501.255V19.9473H500.604ZM501.888 19.9473V19.2969H502.538V19.9473H501.888ZM503.206 19.9473V19.2969H503.856V19.9473H503.206ZM504.524 19.9473V19.2969H505.157V19.9473H504.524ZM505.825 19.9473V19.2969H506.493V19.9473H505.825ZM498.636 19.9473C498.46 19.9473 498.308 19.8828 498.179 19.7539C498.05 19.625 497.985 19.4727 497.985 19.2969H498.636V19.9473ZM507.794 19.2793C507.794 19.4668 507.729 19.6221 507.601 19.7451C507.472 19.8682 507.313 19.9297 507.126 19.9297V19.2793H507.794ZM497.985 11.4219H498.636V12.0898H497.985V11.4219ZM497.985 12.7402H498.653V13.373H497.985V12.7402ZM497.985 14.0234H498.636V14.6738H497.985V14.0234ZM497.985 15.3418H498.636V15.9922H497.985V15.3418ZM497.985 16.6602H498.653V17.293H497.985V16.6602ZM497.985 17.9434H498.636V18.6113H497.985V17.9434ZM497.985 10.8066C497.985 10.6309 498.05 10.4785 498.179 10.3496C498.308 10.2207 498.46 10.1562 498.636 10.1562V10.8066H497.985ZM507.794 11.4219V12.0898H507.126V11.4219H507.794ZM507.794 12.7402V13.373H507.144V12.7402H507.794ZM507.794 14.0234V14.6738H507.126V14.0234H507.794ZM507.794 15.3418V15.9922H507.126V15.3418H507.794ZM507.794 16.6602V17.293H507.144V16.6602H507.794ZM507.794 17.9434V18.6113H507.126V17.9434H507.794ZM507.794 10.8066H507.126V10.1562C507.313 10.1562 507.472 10.2207 507.601 10.3496C507.729 10.4785 507.794 10.6309 507.794 10.8066ZM499.286 10.1562H499.954V10.8066H499.286V10.1562ZM500.604 10.1562H501.255V10.8066H500.604V10.1562ZM501.888 10.1562H502.538V10.8066H501.888V10.1562ZM503.206 10.1562H503.856V10.8066H503.206V10.1562ZM504.524 10.1562H505.157V10.8066H504.524V10.1562ZM505.825 10.1562H506.493V10.8066H505.825V10.1562Z" fill="#50525F"/>
</g>
<rect x="524.69" y="0.949219" width="41" height="29" fill="white"/>
<rect x="524.69" y="0.949219" width="41" height="29" stroke="#CCCCCC"/>
<g clip-path="url(#clip11_440_22)">
<path d="M537.421 22.7422V22.127H538.036V22.7422H537.421ZM538.651 22.7422V22.127H539.267V22.7422H538.651ZM539.882 22.7422V22.127H540.515V22.7422H539.882ZM541.13 22.7422V22.127H541.745V22.7422H541.13ZM542.36 22.7422V22.127H542.976V22.7422H542.36ZM543.608 22.7422V22.127H544.224V22.7422H543.608ZM544.839 22.7422V22.127H545.472V22.7422H544.839ZM536.19 19.0508V18.418H536.806V19.0508H536.19ZM536.806 22.7422C536.642 22.7422 536.498 22.6807 536.375 22.5576C536.252 22.4346 536.19 22.291 536.19 22.127H536.806V22.7422ZM536.19 21.5117V20.8965H536.806V21.5117H536.19ZM536.19 20.2812V19.666H536.806V20.2812H536.19ZM536.19 15.3242V14.709H536.806V15.3242H536.19ZM536.19 17.8027V17.1875H536.806V17.8027H536.19ZM536.19 16.5547V15.9395H536.806V16.5547H536.19ZM536.19 14.0762V13.4609H536.806V14.0762H536.19ZM547.388 10.1387C547.763 10.1387 548.091 10.2793 548.372 10.5605C548.653 10.8418 548.794 11.1699 548.794 11.5449V18.541C548.794 18.916 548.653 19.2441 548.372 19.5254C548.091 19.8066 547.763 19.9473 547.388 19.9473H540.392C540.005 19.9473 539.674 19.8096 539.398 19.5342C539.123 19.2588 538.985 18.9277 538.985 18.541V11.5449C538.985 11.1699 539.123 10.8418 539.398 10.5605C539.674 10.2793 540.005 10.1387 540.392 10.1387H547.388ZM548.056 18.418V11.668C548.056 11.457 547.977 11.2725 547.818 11.1143C547.66 10.9561 547.476 10.877 547.265 10.877H540.515C540.292 10.877 540.104 10.9561 539.952 11.1143C539.8 11.2725 539.724 11.457 539.724 11.668V18.418C539.724 18.6406 539.8 18.8281 539.952 18.9805C540.104 19.1328 540.292 19.209 540.515 19.209H547.265C547.476 19.209 547.66 19.1328 547.818 18.9805C547.977 18.8281 548.056 18.6406 548.056 18.418Z" fill="#50525F"/>
</g>
<rect x="1.48047" y="35.9492" width="224" height="29" fill="white"/>
<rect x="1.48047" y="35.9492" width="224" height="29" stroke="#CCCCCC"/>
<path d="M81.4202 55.4492H80.0081V48.0781H77.5003V46.8828H83.9222V48.0781H81.4202V55.4492ZM90.5432 55.4492L89.7054 53.0703H86.43L85.5921 55.4492H84.1097L87.2972 46.8477H88.8557L92.0374 55.4492H90.5432ZM89.3421 51.8633L88.5276 49.5195C88.4964 49.418 88.4515 49.2754 88.3929 49.0918C88.3343 48.9043 88.2757 48.7148 88.2171 48.5234C88.1585 48.3281 88.1097 48.1641 88.0706 48.0312C88.0315 48.1914 87.9827 48.3711 87.9241 48.5703C87.8694 48.7656 87.8147 48.9492 87.76 49.1211C87.7093 49.293 87.6702 49.4258 87.6429 49.5195L86.8225 51.8633H89.3421ZM96.8655 55.4492L94.3987 48.2949H94.346C94.3577 48.4551 94.3714 48.6738 94.387 48.9512C94.4026 49.2285 94.4163 49.5254 94.428 49.8418C94.4397 50.1582 94.4456 50.4609 94.4456 50.75V55.4492H93.1682V46.8828H95.1429L97.5159 53.7207H97.5511L100.006 46.8828H101.975V55.4492H100.633V50.6797C100.633 50.418 100.637 50.1348 100.645 49.8301C100.657 49.5254 100.668 49.2363 100.68 48.9629C100.696 48.6895 100.707 48.4707 100.715 48.3066H100.668L98.1077 55.4492H96.8655ZM109.539 55.4492L108.701 53.0703H105.426L104.588 55.4492H103.106L106.293 46.8477H107.852L111.033 55.4492H109.539ZM108.338 51.8633L107.524 49.5195C107.492 49.418 107.448 49.2754 107.389 49.0918C107.33 48.9043 107.272 48.7148 107.213 48.5234C107.155 48.3281 107.106 48.1641 107.067 48.0312C107.028 48.1914 106.979 48.3711 106.92 48.5703C106.866 48.7656 106.811 48.9492 106.756 49.1211C106.705 49.293 106.666 49.4258 106.639 49.5195L105.819 51.8633H108.338ZM119.313 55.4492H117.584L113.389 48.6113H113.336C113.352 48.8418 113.366 49.0859 113.377 49.3438C113.393 49.6016 113.405 49.8672 113.412 50.1406C113.424 50.4141 113.434 50.6914 113.442 50.9727V55.4492H112.164V46.8828H113.881L118.071 53.6738H118.112C118.104 53.4746 118.094 53.2461 118.082 52.9883C118.071 52.7305 118.059 52.4648 118.047 52.1914C118.039 51.9141 118.033 51.6465 118.03 51.3887V46.8828H119.313V55.4492ZM128.319 55.4492H126.918V51.582H122.969V55.4492H121.563V46.8828H122.969V50.3867H126.918V46.8828H128.319V55.4492ZM138.192 51.1543C138.192 51.8145 138.108 52.416 137.94 52.959C137.776 53.498 137.528 53.9629 137.196 54.3535C136.864 54.7402 136.448 55.0391 135.948 55.25C135.448 55.4609 134.862 55.5664 134.19 55.5664C133.506 55.5664 132.912 55.4609 132.408 55.25C131.908 55.0391 131.492 54.7383 131.16 54.3477C130.832 53.957 130.586 53.4902 130.422 52.9473C130.258 52.4043 130.176 51.8027 130.176 51.1426C130.176 50.2598 130.321 49.4902 130.61 48.834C130.903 48.1738 131.346 47.6621 131.94 47.2988C132.537 46.9316 133.291 46.748 134.201 46.748C135.092 46.748 135.832 46.9297 136.422 47.293C137.012 47.6562 137.453 48.168 137.746 48.8281C138.043 49.4844 138.192 50.2598 138.192 51.1543ZM131.653 51.1543C131.653 51.8145 131.742 52.3867 131.922 52.8711C132.102 53.3516 132.377 53.7227 132.748 53.9844C133.123 54.2422 133.604 54.3711 134.19 54.3711C134.78 54.3711 135.26 54.2422 135.631 53.9844C136.002 53.7227 136.276 53.3516 136.451 52.8711C136.627 52.3867 136.715 51.8145 136.715 51.1543C136.715 50.1504 136.514 49.3652 136.112 48.7988C135.713 48.2285 135.076 47.9434 134.201 47.9434C133.616 47.9434 133.133 48.0723 132.754 48.3301C132.379 48.5879 132.102 48.957 131.922 49.4375C131.742 49.9141 131.653 50.4863 131.653 51.1543Z" fill="#50525F"/>
<mask id="path-29-inside-1_440_22" fill="white">
<path d="M141.83 50.2383H149.83V54.2383H141.83V50.2383Z"/>
</mask>
<path d="M141.83 50.2383V48.2383H139.83V50.2383H141.83ZM149.83 50.2383H151.83V48.2383H149.83V50.2383ZM139.83 50.2383V51.5716H143.83V50.2383H139.83ZM139.83 52.9049V54.2383H143.83V52.9049H139.83ZM151.83 54.2383V52.9049H147.83V54.2383H151.83ZM151.83 51.5716V50.2383H147.83V51.5716H151.83ZM149.83 48.2383H147.163V52.2383H149.83V48.2383ZM144.497 48.2383H141.83V52.2383H144.497V48.2383ZM141.83 50.2383V46.2383H137.83V50.2383H141.83ZM149.83 50.2383H153.83V46.2383H149.83V50.2383ZM137.83 50.2383V51.5716H145.83V50.2383H137.83ZM137.83 52.9049V54.2383H145.83V52.9049H137.83ZM153.83 54.2383V52.9049H145.83V54.2383H153.83ZM153.83 51.5716V50.2383H145.83V51.5716H153.83ZM149.83 46.2383H147.163V54.2383H149.83V46.2383ZM144.497 46.2383H141.83V54.2383H144.497V46.2383Z" fill="#50525F" mask="url(#path-29-inside-1_440_22)"/>
<defs>
<clipPath id="clip0_440_22">
<rect width="18" height="18" fill="white" transform="matrix(1 0 0 -1 12.9805 25.4492)"/>
</clipPath>
<clipPath id="clip1_440_22">
<rect width="18" height="18" fill="white" transform="matrix(1 0 0 -1 60.6309 25.4492)"/>
</clipPath>
<clipPath id="clip2_440_22">
<rect width="18" height="18" fill="white" transform="matrix(1 0 0 -1 101.631 25.4492)"/>
</clipPath>
<clipPath id="clip3_440_22">
<rect width="18" height="18" fill="white" transform="matrix(1 0 0 -1 142.631 25.4492)"/>
</clipPath>
<clipPath id="clip4_440_22">
<rect width="18" height="18" fill="white" transform="matrix(1 0 0 -1 190.271 25.4492)"/>
</clipPath>
<clipPath id="clip5_440_22">
<rect width="18" height="18" fill="white" transform="matrix(1 0 0 -1 231.271 25.4492)"/>
</clipPath>
<clipPath id="clip6_440_22">
<rect width="18" height="18" fill="white" transform="matrix(1 0 0 -1 317.91 25.4492)"/>
</clipPath>
<clipPath id="clip7_440_22">
<rect width="18" height="18" fill="white" transform="matrix(1 0 0 -1 358.91 25.4492)"/>
</clipPath>
<clipPath id="clip8_440_22">
<rect width="18" height="18" fill="white" transform="matrix(1 0 0 -1 399.91 25.4492)"/>
</clipPath>
<clipPath id="clip9_440_22">
<rect width="18" height="18" fill="white" transform="matrix(1 0 0 -1 447.551 25.4492)"/>
</clipPath>
<clipPath id="clip10_440_22">
<rect width="18" height="18" fill="white" transform="matrix(1 0 0 -1 495.19 25.4492)"/>
</clipPath>
<clipPath id="clip11_440_22">
<rect width="18" height="18" fill="white" transform="matrix(1 0 0 -1 536.19 25.4492)"/>
</clipPath>
</defs>
</svg>
