<svg width="24" height="25" viewBox="0 0 24 25" fill="none" xmlns="http://www.w3.org/2000/svg">
<g id="Icon">
<path id="Vector" d="M10.9922 4.68689L9.72656 2.99939C9.63281 2.87439 9.51562 2.81189 9.375 2.81189H7.5C7.34375 2.81189 7.21875 2.87439 7.125 2.99939L5.83594 4.68689H0.46875C0.34375 4.68689 0.234375 4.72986 0.140625 4.8158C0.046875 4.90173 0 5.01111 0 5.14392C0 5.27673 0.046875 5.38611 0.140625 5.47205C0.234375 5.55798 0.34375 5.60095 0.46875 5.60095H16.3359C16.4609 5.60095 16.5703 5.55798 16.6641 5.47205C16.7578 5.38611 16.8047 5.27673 16.8047 5.14392C16.8047 5.01111 16.7578 4.90173 16.6641 4.8158C16.5703 4.72986 16.4609 4.68689 16.3359 4.68689H10.9922ZM7.73438 3.74939H9.14062L9.82031 4.68689H7.03125L7.73438 3.74939ZM15.1641 6.6322C15.2734 6.55408 15.3906 6.52673 15.5156 6.55017C15.6406 6.57361 15.7383 6.63611 15.8086 6.73767C15.8789 6.83923 15.9062 6.95251 15.8906 7.07751L13.7109 20.1556C13.6328 20.5306 13.4492 20.8392 13.1602 21.0814C12.8711 21.3236 12.5391 21.4525 12.1641 21.4681H4.6875C4.3125 21.4525 3.97656 21.3236 3.67969 21.0814C3.38281 20.8392 3.20312 20.5306 3.14062 20.1556L0.960938 7.07751C0.929688 6.90564 0.984375 6.76111 1.125 6.64392C1.26562 6.52673 1.42188 6.5033 1.59375 6.57361C1.76562 6.64392 1.85938 6.76501 1.875 6.93689L4.07812 20.015C4.10938 20.1556 4.18359 20.2767 4.30078 20.3783C4.41797 20.4799 4.54688 20.5306 4.6875 20.5306H12.1641C12.3203 20.5306 12.457 20.4799 12.5742 20.3783C12.6914 20.2767 12.7656 20.1556 12.7969 20.015L14.9766 6.93689C14.9922 6.81189 15.0547 6.71033 15.1641 6.6322Z" fill="#8000FF"/>
</g>
</svg>
