<svg width="51" height="51" viewBox="0 0 51 51" fill="none" xmlns="http://www.w3.org/2000/svg">
<rect x="0.660034" y="0.849609" width="50" height="50" rx="25" fill="#8000FF"/>
<path d="M29.9168 31.8496H21.699V30.3804L24.845 27.1929C25.4537 26.5731 25.9545 26.0391 26.3474 25.5908C26.7403 25.137 27.0309 24.7082 27.219 24.3042C27.4127 23.9002 27.5096 23.4603 27.5096 22.9844C27.5096 22.3978 27.3408 21.9551 27.0032 21.6562C26.6656 21.3519 26.2202 21.1997 25.6668 21.1997C25.1411 21.1997 24.6541 21.3049 24.2058 21.5151C23.7631 21.7199 23.3038 22.0132 22.8279 22.395L21.7571 21.1084C22.0947 20.8206 22.4544 20.5578 22.8362 20.3198C23.2236 20.0819 23.6552 19.8937 24.1311 19.7554C24.607 19.6115 25.1494 19.5396 25.7581 19.5396C26.5273 19.5396 27.1914 19.6779 27.7503 19.9546C28.3092 20.2257 28.7381 20.6048 29.0369 21.0918C29.3413 21.5788 29.4934 22.146 29.4934 22.7935C29.4934 23.4465 29.3634 24.0496 29.1033 24.603C28.8432 25.1564 28.4724 25.7043 27.991 26.2466C27.5096 26.7834 26.9368 27.3672 26.2727 27.998L24.1726 30.0483V30.1396H29.9168V31.8496Z" fill="white"/>
</svg>
