<svg width="280" height="147" viewBox="0 0 280 147" fill="none" xmlns="http://www.w3.org/2000/svg">
<rect x="1" y="1.97266" width="278" height="144" fill="#FBFBFB"/>
<rect x="1" y="1.97266" width="278" height="144" stroke="#BDCADB" stroke-width="2" stroke-dasharray="6 4"/>
<path d="M144.043 48.918H125.164C124.977 48.918 124.824 48.9766 124.707 49.0938C124.59 49.2109 124.531 49.3633 124.531 49.5508V64.668C124.531 64.832 124.59 64.9785 124.707 65.1074C124.824 65.2363 124.977 65.3008 125.164 65.3008H144.043C144.23 65.3008 144.383 65.2363 144.5 65.1074C144.617 64.9785 144.676 64.832 144.676 64.668V49.5508C144.676 49.3633 144.617 49.2109 144.5 49.0938C144.383 48.9766 144.23 48.918 144.043 48.918ZM125.797 61.1172L129.84 56.582C129.934 56.4414 130.057 56.3711 130.209 56.3711C130.361 56.3711 130.484 56.4297 130.578 56.5469L137.574 64.0352H125.797V61.1172ZM143.41 64.0352H139.297L131.527 55.7031C131.152 55.3047 130.707 55.1113 130.191 55.123C129.676 55.1348 129.242 55.3398 128.891 55.7383L125.797 59.2188V50.1836H143.41V64.0352ZM138.383 57.7422C137.68 57.7422 137.082 57.4961 136.59 57.0039C136.098 56.5117 135.852 55.9141 135.852 55.2109C135.852 54.5078 136.098 53.9102 136.59 53.418C137.082 52.9258 137.68 52.6797 138.383 52.6797C139.086 52.6797 139.684 52.9258 140.176 53.418C140.668 53.9102 140.914 54.5078 140.914 55.2109C140.914 55.9141 140.668 56.5117 140.176 57.0039C139.684 57.4961 139.086 57.7422 138.383 57.7422ZM138.383 53.9453C138.031 53.9453 137.732 54.0684 137.486 54.3145C137.24 54.5605 137.117 54.8594 137.117 55.2109C137.117 55.5625 137.24 55.8613 137.486 56.1074C137.732 56.3535 138.031 56.4766 138.383 56.4766C138.734 56.4766 139.033 56.3535 139.279 56.1074C139.525 55.8613 139.648 55.5625 139.648 55.2109C139.648 54.8594 139.525 54.5605 139.279 54.3145C139.033 54.0684 138.734 53.9453 138.383 53.9453ZM145.309 71.5938H123.898C123.383 71.5938 122.938 71.4063 122.562 71.0312C122.187 70.6562 122 70.2109 122 69.6953V48.2852C122 47.7695 122.187 47.3242 122.562 46.9492C122.938 46.5742 123.383 46.3867 123.898 46.3867H145.309C145.824 46.3867 146.27 46.5742 146.645 46.9492C147.02 47.3242 147.207 47.7695 147.207 48.2852V69.6953C147.207 70.2109 147.02 70.6562 146.645 71.0312C146.27 71.4063 145.824 71.5938 145.309 71.5938ZM123.898 47.6523C123.711 47.6523 123.559 47.7109 123.441 47.8281C123.324 47.9453 123.266 48.0977 123.266 48.2852V69.6953C123.266 69.8828 123.324 70.0352 123.441 70.1523C123.559 70.2695 123.711 70.3281 123.898 70.3281H145.309C145.496 70.3281 145.648 70.2695 145.766 70.1523C145.883 70.0352 145.941 69.8828 145.941 69.6953V48.2852C145.941 48.0977 145.883 47.9453 145.766 47.8281C145.648 47.7109 145.496 47.6523 145.309 47.6523H123.898Z" fill="#CBCBCF"/>
<path d="M51.0355 85.4785C50.6253 85.4785 50.2582 85.5527 49.9339 85.7012C49.6136 85.8496 49.3421 86.0645 49.1195 86.3457C48.8968 86.623 48.7269 86.9609 48.6097 87.3594C48.4925 87.7539 48.4339 88.1992 48.4339 88.6953C48.4339 89.3594 48.5277 89.9316 48.7152 90.4121C48.9027 90.8887 49.1878 91.2559 49.5707 91.5137C49.9535 91.7676 50.4378 91.8945 51.0238 91.8945C51.3871 91.8945 51.7406 91.8594 52.0843 91.7891C52.4281 91.7188 52.7835 91.623 53.1507 91.502V92.6973C52.8031 92.834 52.4515 92.9336 52.096 92.9961C51.7406 93.0586 51.3304 93.0898 50.8656 93.0898C49.9906 93.0898 49.264 92.9082 48.6859 92.5449C48.1117 92.1816 47.682 91.6699 47.3968 91.0098C47.1156 90.3496 46.975 89.5762 46.975 88.6895C46.975 88.041 47.0648 87.4473 47.2445 86.9082C47.4242 86.3691 47.6859 85.9043 48.0296 85.5137C48.3734 85.1191 48.7972 84.8164 49.3011 84.6055C49.8089 84.3906 50.389 84.2832 51.0414 84.2832C51.471 84.2832 51.8929 84.332 52.307 84.4297C52.725 84.5234 53.1117 84.6582 53.4671 84.834L52.975 85.9941C52.6781 85.8535 52.3675 85.7324 52.0433 85.6309C51.7191 85.5293 51.3832 85.4785 51.0355 85.4785ZM56.2328 92.9727H54.85V83.8555H56.2328V92.9727ZM59.5785 86.4863V92.9727H58.2015V86.4863H59.5785ZM58.8988 84.002C59.1097 84.002 59.2914 84.0586 59.4437 84.1719C59.6 84.2852 59.6781 84.4805 59.6781 84.7578C59.6781 85.0312 59.6 85.2266 59.4437 85.3438C59.2914 85.457 59.1097 85.5137 58.8988 85.5137C58.68 85.5137 58.4945 85.457 58.3421 85.3438C58.1937 85.2266 58.1195 85.0312 58.1195 84.7578C58.1195 84.4805 58.1937 84.2852 58.3421 84.1719C58.4945 84.0586 58.68 84.002 58.8988 84.002ZM65.6722 95.8496V93.0957C65.6722 92.9395 65.6761 92.7695 65.6839 92.5859C65.6957 92.4023 65.7132 92.2344 65.7367 92.082H65.6664C65.4906 92.3672 65.2464 92.6074 64.9339 92.8027C64.6214 92.9941 64.2132 93.0898 63.7093 93.0898C62.9476 93.0898 62.3343 92.8086 61.8695 92.2461C61.4046 91.6797 61.1722 90.8438 61.1722 89.7383C61.1722 89.0039 61.2796 88.3867 61.4945 87.8867C61.7093 87.3867 62.0101 87.0078 62.3968 86.75C62.7875 86.4922 63.2406 86.3633 63.7562 86.3633C64.2523 86.3633 64.6546 86.4609 64.9632 86.6562C65.2757 86.8477 65.5257 87.084 65.7132 87.3652H65.7601L65.9125 86.4863H67.055V95.8496H65.6722ZM64.1195 91.9824C64.5101 91.9824 64.8226 91.9082 65.057 91.7598C65.2914 91.6113 65.4613 91.3867 65.5667 91.0859C65.6722 90.7812 65.7289 90.4043 65.7367 89.9551V89.7441C65.7367 89.0098 65.6175 88.4512 65.3792 88.0684C65.141 87.6855 64.7171 87.4941 64.1078 87.4941C63.5921 87.4941 63.2093 87.6953 62.9593 88.0977C62.7093 88.4961 62.5843 89.0508 62.5843 89.7617C62.5843 90.4805 62.7093 91.0312 62.9593 91.4141C63.2132 91.793 63.6 91.9824 64.1195 91.9824ZM74.6839 86.4863V92.9727H73.6L73.4125 92.0996H73.3363C73.1996 92.3223 73.0257 92.5078 72.8148 92.6562C72.6039 92.8008 72.3695 92.9082 72.1117 92.9785C71.8539 93.0527 71.5824 93.0898 71.2972 93.0898C70.8089 93.0898 70.391 93.0078 70.0433 92.8438C69.6996 92.6758 69.4359 92.418 69.2523 92.0703C69.0687 91.7227 68.9769 91.2734 68.9769 90.7227V86.4863H70.3597V90.4648C70.3597 90.9688 70.4613 91.3457 70.6644 91.5957C70.8714 91.8457 71.1917 91.9707 71.6253 91.9707C72.0433 91.9707 72.3753 91.8848 72.6214 91.7129C72.8675 91.541 73.0414 91.2871 73.1429 90.9512C73.2484 90.6152 73.3011 90.2031 73.3011 89.7148V86.4863H74.6839ZM79.2425 86.3633C79.8207 86.3633 80.3167 86.4824 80.7308 86.7207C81.1449 86.959 81.4632 87.2969 81.6859 87.7344C81.9085 88.1719 82.0199 88.6953 82.0199 89.3047V90.043H77.6898C77.7054 90.6719 77.8734 91.1562 78.1937 91.4961C78.5179 91.8359 78.971 92.0059 79.5531 92.0059C79.9671 92.0059 80.3382 91.9668 80.6664 91.8887C80.9984 91.8066 81.3402 91.6875 81.6917 91.5312V92.6504C81.3675 92.8027 81.0375 92.9141 80.7015 92.9844C80.3656 93.0547 79.9632 93.0898 79.4945 93.0898C78.8578 93.0898 78.2972 92.9668 77.8128 92.7207C77.3324 92.4707 76.9554 92.0996 76.682 91.6074C76.4125 91.1152 76.2777 90.5039 76.2777 89.7734C76.2777 89.0469 76.4007 88.4297 76.6468 87.9219C76.8929 87.4141 77.2386 87.0273 77.6839 86.7617C78.1292 86.4961 78.6488 86.3633 79.2425 86.3633ZM79.2425 87.4004C78.8089 87.4004 78.4574 87.541 78.1878 87.8223C77.9222 88.1035 77.766 88.5156 77.7191 89.0586H80.6722C80.6683 88.7344 80.6136 88.4473 80.5082 88.1973C80.4066 87.9473 80.2503 87.752 80.0394 87.6113C79.8324 87.4707 79.5667 87.4004 79.2425 87.4004ZM92.432 89.7148C92.432 90.2539 92.3617 90.7324 92.221 91.1504C92.0804 91.5684 91.8753 91.9219 91.6058 92.2109C91.3363 92.4961 91.0121 92.7148 90.6332 92.8672C90.2542 93.0156 89.8265 93.0898 89.35 93.0898C88.9046 93.0898 88.4964 93.0156 88.1253 92.8672C87.7542 92.7148 87.432 92.4961 87.1585 92.2109C86.889 91.9219 86.68 91.5684 86.5316 91.1504C86.3832 90.7324 86.3089 90.2539 86.3089 89.7148C86.3089 89 86.432 88.3945 86.6781 87.8984C86.9281 87.3984 87.2835 87.0176 87.7445 86.7559C88.2054 86.4941 88.7542 86.3633 89.391 86.3633C89.9886 86.3633 90.516 86.4941 90.973 86.7559C91.43 87.0176 91.7875 87.3984 92.0453 87.8984C92.3031 88.3984 92.432 89.0039 92.432 89.7148ZM87.7269 89.7148C87.7269 90.1875 87.7835 90.5918 87.8968 90.9277C88.014 91.2637 88.1937 91.5215 88.4359 91.7012C88.6781 91.877 88.9906 91.9648 89.3734 91.9648C89.7562 91.9648 90.0687 91.877 90.3109 91.7012C90.5531 91.5215 90.7308 91.2637 90.8441 90.9277C90.9574 90.5918 91.014 90.1875 91.014 89.7148C91.014 89.2422 90.9574 88.8418 90.8441 88.5137C90.7308 88.1816 90.5531 87.9297 90.3109 87.7578C90.0687 87.582 89.7542 87.4941 89.3675 87.4941C88.7972 87.4941 88.3812 87.6855 88.1195 88.0684C87.8578 88.4512 87.7269 89 87.7269 89.7148ZM99.6683 86.4863V92.9727H98.5843L98.3968 92.0996H98.3207C98.1839 92.3223 98.0101 92.5078 97.7992 92.6562C97.5882 92.8008 97.3539 92.9082 97.096 92.9785C96.8382 93.0527 96.5667 93.0898 96.2816 93.0898C95.7933 93.0898 95.3753 93.0078 95.0277 92.8438C94.6839 92.6758 94.4203 92.418 94.2367 92.0703C94.0531 91.7227 93.9613 91.2734 93.9613 90.7227V86.4863H95.3441V90.4648C95.3441 90.9688 95.4457 91.3457 95.6488 91.5957C95.8558 91.8457 96.1761 91.9707 96.6097 91.9707C97.0277 91.9707 97.3597 91.8848 97.6058 91.7129C97.8519 91.541 98.0257 91.2871 98.1273 90.9512C98.2328 90.6152 98.2855 90.2031 98.2855 89.7148V86.4863H99.6683ZM107.303 86.3633C108.123 86.3633 108.743 86.5449 109.16 86.9082C109.582 87.2715 109.793 87.8379 109.793 88.6074V92.9727H108.815L108.551 92.0527H108.504C108.321 92.2871 108.131 92.4805 107.936 92.6328C107.741 92.7852 107.514 92.8984 107.256 92.9727C107.002 93.0508 106.692 93.0898 106.325 93.0898C105.938 93.0898 105.592 93.0195 105.287 92.8789C104.983 92.7344 104.743 92.5156 104.567 92.2227C104.391 91.9297 104.303 91.5586 104.303 91.1094C104.303 90.4414 104.551 89.9395 105.047 89.6035C105.547 89.2676 106.301 89.082 107.309 89.0469L108.434 89.0059V88.666C108.434 88.2168 108.328 87.8965 108.118 87.7051C107.91 87.5137 107.618 87.418 107.239 87.418C106.914 87.418 106.6 87.4648 106.295 87.5586C105.991 87.6523 105.694 87.7676 105.405 87.9043L104.959 86.9316C105.276 86.7637 105.635 86.627 106.037 86.5215C106.444 86.416 106.866 86.3633 107.303 86.3633ZM108.428 89.873L107.59 89.9023C106.903 89.9258 106.42 90.043 106.143 90.2539C105.866 90.4648 105.727 90.7539 105.727 91.1211C105.727 91.4414 105.823 91.6758 106.014 91.8242C106.205 91.9688 106.457 92.041 106.77 92.041C107.246 92.041 107.641 91.9062 107.953 91.6367C108.27 91.3633 108.428 90.9629 108.428 90.4355V89.873ZM115.008 86.3633C115.118 86.3633 115.237 86.3691 115.366 86.3809C115.494 86.3926 115.606 86.4082 115.7 86.4277L115.571 87.7168C115.489 87.6934 115.387 87.6758 115.266 87.6641C115.149 87.6523 115.043 87.6465 114.95 87.6465C114.703 87.6465 114.469 87.6875 114.246 87.7695C114.024 87.8477 113.827 87.9688 113.655 88.1328C113.483 88.293 113.348 88.4941 113.25 88.7363C113.153 88.9785 113.104 89.2598 113.104 89.5801V92.9727H111.721V86.4863H112.799L112.987 87.6289H113.051C113.18 87.3984 113.34 87.1875 113.532 86.9961C113.723 86.8047 113.942 86.6523 114.188 86.5391C114.438 86.4219 114.711 86.3633 115.008 86.3633ZM120.188 86.3633C120.297 86.3633 120.416 86.3691 120.545 86.3809C120.674 86.3926 120.785 86.4082 120.879 86.4277L120.75 87.7168C120.668 87.6934 120.567 87.6758 120.446 87.6641C120.328 87.6523 120.223 87.6465 120.129 87.6465C119.883 87.6465 119.649 87.6875 119.426 87.7695C119.203 87.8477 119.006 87.9688 118.834 88.1328C118.662 88.293 118.528 88.4941 118.43 88.7363C118.332 88.9785 118.284 89.2598 118.284 89.5801V92.9727H116.901V86.4863H117.979L118.166 87.6289H118.231C118.36 87.3984 118.52 87.1875 118.711 86.9961C118.903 86.8047 119.121 86.6523 119.368 86.5391C119.618 86.4219 119.891 86.3633 120.188 86.3633ZM124.623 86.3633C125.444 86.3633 126.063 86.5449 126.481 86.9082C126.903 87.2715 127.114 87.8379 127.114 88.6074V92.9727H126.135L125.871 92.0527H125.825C125.641 92.2871 125.452 92.4805 125.256 92.6328C125.061 92.7852 124.834 92.8984 124.577 92.9727C124.323 93.0508 124.012 93.0898 123.645 93.0898C123.258 93.0898 122.912 93.0195 122.608 92.8789C122.303 92.7344 122.063 92.5156 121.887 92.2227C121.711 91.9297 121.623 91.5586 121.623 91.1094C121.623 90.4414 121.871 89.9395 122.368 89.6035C122.868 89.2676 123.621 89.082 124.629 89.0469L125.754 89.0059V88.666C125.754 88.2168 125.649 87.8965 125.438 87.7051C125.231 87.5137 124.938 87.418 124.559 87.418C124.235 87.418 123.92 87.4648 123.616 87.5586C123.311 87.6523 123.014 87.7676 122.725 87.9043L122.28 86.9316C122.596 86.7637 122.955 86.627 123.358 86.5215C123.764 86.416 124.186 86.3633 124.623 86.3633ZM125.748 89.873L124.91 89.9023C124.223 89.9258 123.741 90.043 123.463 90.2539C123.186 90.4648 123.047 90.7539 123.047 91.1211C123.047 91.4414 123.143 91.6758 123.334 91.8242C123.526 91.9688 123.778 92.041 124.09 92.041C124.567 92.041 124.961 91.9062 125.274 91.6367C125.59 91.3633 125.748 90.9629 125.748 90.4355V89.873ZM133.401 91.1211C133.401 91.5469 133.297 91.9062 133.09 92.1992C132.883 92.4922 132.58 92.7148 132.182 92.8672C131.787 93.0156 131.303 93.0898 130.729 93.0898C130.276 93.0898 129.885 93.0566 129.557 92.9902C129.233 92.9277 128.926 92.8301 128.637 92.6973V91.5078C128.946 91.6523 129.291 91.7773 129.674 91.8828C130.061 91.9883 130.426 92.041 130.77 92.041C131.223 92.041 131.549 91.9707 131.748 91.8301C131.948 91.6855 132.047 91.4941 132.047 91.2559C132.047 91.1152 132.006 90.9902 131.924 90.8809C131.846 90.7676 131.698 90.6523 131.479 90.5352C131.264 90.4141 130.948 90.2695 130.53 90.1016C130.119 89.9375 129.774 89.7734 129.493 89.6094C129.211 89.4453 128.998 89.248 128.854 89.0176C128.709 88.7832 128.637 88.4844 128.637 88.1211C128.637 87.5469 128.864 87.1113 129.317 86.8145C129.774 86.5137 130.377 86.3633 131.127 86.3633C131.526 86.3633 131.901 86.4043 132.252 86.4863C132.608 86.5645 132.955 86.6797 133.295 86.832L132.862 87.8691C132.569 87.7402 132.274 87.6348 131.977 87.5527C131.684 87.4668 131.385 87.4238 131.08 87.4238C130.725 87.4238 130.453 87.4785 130.266 87.5879C130.082 87.6973 129.991 87.8535 129.991 88.0566C129.991 88.209 130.035 88.3379 130.125 88.4434C130.215 88.5488 130.369 88.6543 130.588 88.7598C130.811 88.8652 131.119 88.9961 131.514 89.1523C131.901 89.3008 132.235 89.457 132.516 89.6211C132.801 89.7812 133.02 89.9785 133.172 90.2129C133.325 90.4473 133.401 90.75 133.401 91.1211ZM137.303 91.9766C137.483 91.9766 137.66 91.9609 137.836 91.9297C138.012 91.8945 138.172 91.8535 138.317 91.8066V92.8496C138.164 92.916 137.967 92.9727 137.725 93.0195C137.483 93.0664 137.231 93.0898 136.969 93.0898C136.602 93.0898 136.272 93.0293 135.979 92.9082C135.686 92.7832 135.453 92.5703 135.282 92.2695C135.11 91.9688 135.024 91.5527 135.024 91.0215V87.5352H134.139V86.9199L135.088 86.4336L135.539 85.0449H136.407V86.4863H138.264V87.5352H136.407V91.0039C136.407 91.332 136.489 91.5762 136.653 91.7363C136.817 91.8965 137.034 91.9766 137.303 91.9766ZM142.219 86.3633C142.797 86.3633 143.293 86.4824 143.707 86.7207C144.121 86.959 144.44 87.2969 144.662 87.7344C144.885 88.1719 144.996 88.6953 144.996 89.3047V90.043H140.666C140.682 90.6719 140.85 91.1562 141.17 91.4961C141.494 91.8359 141.948 92.0059 142.53 92.0059C142.944 92.0059 143.315 91.9668 143.643 91.8887C143.975 91.8066 144.317 91.6875 144.668 91.5312V92.6504C144.344 92.8027 144.014 92.9141 143.678 92.9844C143.342 93.0547 142.94 93.0898 142.471 93.0898C141.834 93.0898 141.274 92.9668 140.789 92.7207C140.309 92.4707 139.932 92.0996 139.659 91.6074C139.389 91.1152 139.254 90.5039 139.254 89.7734C139.254 89.0469 139.377 88.4297 139.623 87.9219C139.869 87.4141 140.215 87.0273 140.66 86.7617C141.106 86.4961 141.625 86.3633 142.219 86.3633ZM142.219 87.4004C141.785 87.4004 141.434 87.541 141.164 87.8223C140.899 88.1035 140.743 88.5156 140.696 89.0586H143.649C143.645 88.7344 143.59 88.4473 143.485 88.1973C143.383 87.9473 143.227 87.752 143.016 87.6113C142.809 87.4707 142.543 87.4004 142.219 87.4004ZM152.209 86.3633C153.03 86.3633 153.649 86.5449 154.067 86.9082C154.489 87.2715 154.7 87.8379 154.7 88.6074V92.9727H153.721L153.457 92.0527H153.41C153.227 92.2871 153.037 92.4805 152.842 92.6328C152.647 92.7852 152.42 92.8984 152.162 92.9727C151.909 93.0508 151.598 93.0898 151.231 93.0898C150.844 93.0898 150.498 93.0195 150.194 92.8789C149.889 92.7344 149.649 92.5156 149.473 92.2227C149.297 91.9297 149.209 91.5586 149.209 91.1094C149.209 90.4414 149.457 89.9395 149.953 89.6035C150.453 89.2676 151.207 89.082 152.215 89.0469L153.34 89.0059V88.666C153.34 88.2168 153.235 87.8965 153.024 87.7051C152.817 87.5137 152.524 87.418 152.145 87.418C151.821 87.418 151.506 87.4648 151.202 87.5586C150.897 87.6523 150.6 87.7676 150.311 87.9043L149.866 86.9316C150.182 86.7637 150.541 86.627 150.944 86.5215C151.35 86.416 151.772 86.3633 152.209 86.3633ZM153.334 89.873L152.496 89.9023C151.809 89.9258 151.327 90.043 151.049 90.2539C150.772 90.4648 150.633 90.7539 150.633 91.1211C150.633 91.4414 150.729 91.6758 150.92 91.8242C151.112 91.9688 151.364 92.041 151.676 92.041C152.153 92.041 152.547 91.9062 152.86 91.6367C153.176 91.3633 153.334 90.9629 153.334 90.4355V89.873ZM161.121 86.4863V92.9727H159.744V86.4863H161.121ZM160.442 84.002C160.653 84.002 160.834 84.0586 160.987 84.1719C161.143 84.2852 161.221 84.4805 161.221 84.7578C161.221 85.0312 161.143 85.2266 160.987 85.3438C160.834 85.457 160.653 85.5137 160.442 85.5137C160.223 85.5137 160.037 85.457 159.885 85.3438C159.737 85.2266 159.662 85.0312 159.662 84.7578C159.662 84.4805 159.737 84.2852 159.885 84.1719C160.037 84.0586 160.223 84.002 160.442 84.002ZM170.426 86.3633C171.153 86.3633 171.7 86.5508 172.067 86.9258C172.438 87.3008 172.623 87.9023 172.623 88.7305V92.9727H171.246V88.9766C171.246 88.4844 171.151 88.1133 170.959 87.8633C170.768 87.6133 170.477 87.4883 170.086 87.4883C169.539 87.4883 169.145 87.6641 168.903 88.0156C168.664 88.3633 168.545 88.8691 168.545 89.5332V92.9727H167.168V88.9766C167.168 88.6484 167.125 88.375 167.039 88.1562C166.957 87.9336 166.83 87.7676 166.659 87.6582C166.487 87.5449 166.27 87.4883 166.008 87.4883C165.629 87.4883 165.327 87.5742 165.1 87.7461C164.877 87.918 164.717 88.1719 164.619 88.5078C164.522 88.8398 164.473 89.248 164.473 89.7324V92.9727H163.096V86.4863H164.168L164.362 87.3594H164.438C164.571 87.1328 164.735 86.9473 164.93 86.8027C165.129 86.6543 165.35 86.5449 165.592 86.4746C165.834 86.4004 166.086 86.3633 166.348 86.3633C166.832 86.3633 167.241 86.4492 167.573 86.6211C167.905 86.7891 168.153 87.0469 168.317 87.3945H168.422C168.625 87.043 168.909 86.7832 169.272 86.6152C169.635 86.4473 170.02 86.3633 170.426 86.3633ZM177.088 86.3633C177.909 86.3633 178.528 86.5449 178.946 86.9082C179.368 87.2715 179.578 87.8379 179.578 88.6074V92.9727H178.6L178.336 92.0527H178.289C178.106 92.2871 177.916 92.4805 177.721 92.6328C177.526 92.7852 177.299 92.8984 177.041 92.9727C176.787 93.0508 176.477 93.0898 176.11 93.0898C175.723 93.0898 175.377 93.0195 175.073 92.8789C174.768 92.7344 174.528 92.5156 174.352 92.2227C174.176 91.9297 174.088 91.5586 174.088 91.1094C174.088 90.4414 174.336 89.9395 174.832 89.6035C175.332 89.2676 176.086 89.082 177.094 89.0469L178.219 89.0059V88.666C178.219 88.2168 178.114 87.8965 177.903 87.7051C177.696 87.5137 177.403 87.418 177.024 87.418C176.7 87.418 176.385 87.4648 176.08 87.5586C175.776 87.6523 175.479 87.7676 175.19 87.9043L174.744 86.9316C175.061 86.7637 175.42 86.627 175.823 86.5215C176.229 86.416 176.651 86.3633 177.088 86.3633ZM178.213 89.873L177.375 89.9023C176.688 89.9258 176.205 90.043 175.928 90.2539C175.651 90.4648 175.512 90.7539 175.512 91.1211C175.512 91.4414 175.608 91.6758 175.799 91.8242C175.991 91.9688 176.243 92.041 176.555 92.041C177.032 92.041 177.426 91.9062 177.739 91.6367C178.055 91.3633 178.213 90.9629 178.213 90.4355V89.873ZM183.358 95.8555C182.479 95.8555 181.805 95.6973 181.336 95.3809C180.868 95.0645 180.633 94.6211 180.633 94.0508C180.633 93.6523 180.758 93.3145 181.008 93.0371C181.258 92.7637 181.616 92.5742 182.08 92.4688C181.905 92.3906 181.752 92.2695 181.623 92.1055C181.498 91.9375 181.436 91.752 181.436 91.5488C181.436 91.3066 181.504 91.0996 181.641 90.9277C181.778 90.7559 181.983 90.5898 182.256 90.4297C181.916 90.2852 181.643 90.0508 181.436 89.7266C181.233 89.3984 181.131 89.0137 181.131 88.5723C181.131 88.1035 181.231 87.7051 181.43 87.377C181.629 87.0449 181.92 86.793 182.303 86.6211C182.686 86.4453 183.149 86.3574 183.692 86.3574C183.809 86.3574 183.936 86.3652 184.073 86.3809C184.213 86.3926 184.342 86.4082 184.459 86.4277C184.58 86.4434 184.672 86.4609 184.735 86.4805H186.979V87.248L185.877 87.4531C185.983 87.6016 186.067 87.7715 186.129 87.9629C186.192 88.1504 186.223 88.3555 186.223 88.5781C186.223 89.25 185.991 89.7793 185.526 90.166C185.065 90.5488 184.428 90.7402 183.616 90.7402C183.42 90.7324 183.231 90.7168 183.047 90.6934C182.907 90.7793 182.799 90.875 182.725 90.9805C182.651 91.082 182.614 91.1973 182.614 91.3262C182.614 91.4316 182.651 91.5176 182.725 91.584C182.799 91.6465 182.909 91.6934 183.053 91.7246C183.202 91.7559 183.381 91.7715 183.592 91.7715H184.711C185.422 91.7715 185.965 91.9219 186.34 92.2227C186.715 92.5234 186.903 92.9648 186.903 93.5469C186.903 94.2852 186.598 94.8535 185.989 95.252C185.379 95.6543 184.502 95.8555 183.358 95.8555ZM183.41 94.8887C183.891 94.8887 184.295 94.8418 184.623 94.748C184.952 94.6543 185.2 94.5195 185.368 94.3438C185.535 94.1719 185.619 93.9668 185.619 93.7285C185.619 93.5176 185.567 93.3555 185.461 93.2422C185.356 93.1289 185.198 93.0508 184.987 93.0078C184.776 92.9648 184.514 92.9434 184.202 92.9434H183.182C182.928 92.9434 182.703 92.9824 182.508 93.0605C182.313 93.1426 182.16 93.2598 182.051 93.4121C181.946 93.5645 181.893 93.748 181.893 93.9629C181.893 94.2598 182.024 94.4883 182.285 94.6484C182.551 94.8086 182.926 94.8887 183.41 94.8887ZM183.68 89.8379C184.082 89.8379 184.381 89.7285 184.577 89.5098C184.772 89.2871 184.869 88.9746 184.869 88.5723C184.869 88.1348 184.768 87.8066 184.565 87.5879C184.366 87.3691 184.069 87.2598 183.674 87.2598C183.287 87.2598 182.993 87.3711 182.789 87.5938C182.59 87.8164 182.491 88.1465 182.491 88.584C182.491 88.9785 182.59 89.2871 182.789 89.5098C182.993 89.7285 183.289 89.8379 183.68 89.8379ZM190.746 86.3633C191.325 86.3633 191.821 86.4824 192.235 86.7207C192.649 86.959 192.967 87.2969 193.19 87.7344C193.412 88.1719 193.524 88.6953 193.524 89.3047V90.043H189.194C189.209 90.6719 189.377 91.1562 189.698 91.4961C190.022 91.8359 190.475 92.0059 191.057 92.0059C191.471 92.0059 191.842 91.9668 192.17 91.8887C192.502 91.8066 192.844 91.6875 193.196 91.5312V92.6504C192.871 92.8027 192.541 92.9141 192.205 92.9844C191.869 93.0547 191.467 93.0898 190.998 93.0898C190.362 93.0898 189.801 92.9668 189.317 92.7207C188.836 92.4707 188.459 92.0996 188.186 91.6074C187.916 91.1152 187.782 90.5039 187.782 89.7734C187.782 89.0469 187.905 88.4297 188.151 87.9219C188.397 87.4141 188.743 87.0273 189.188 86.7617C189.633 86.4961 190.153 86.3633 190.746 86.3633ZM190.746 87.4004C190.313 87.4004 189.961 87.541 189.692 87.8223C189.426 88.1035 189.27 88.5156 189.223 89.0586H192.176C192.172 88.7344 192.118 88.4473 192.012 88.1973C191.91 87.9473 191.754 87.752 191.543 87.6113C191.336 87.4707 191.071 87.4004 190.746 87.4004ZM202.407 86.3633C203.133 86.3633 203.68 86.5508 204.047 86.9258C204.418 87.3008 204.604 87.9023 204.604 88.7305V92.9727H203.227V88.9766C203.227 88.4844 203.131 88.1133 202.94 87.8633C202.748 87.6133 202.457 87.4883 202.067 87.4883C201.52 87.4883 201.125 87.6641 200.883 88.0156C200.645 88.3633 200.526 88.8691 200.526 89.5332V92.9727H199.149V88.9766C199.149 88.6484 199.106 88.375 199.02 88.1562C198.938 87.9336 198.811 87.7676 198.639 87.6582C198.467 87.5449 198.25 87.4883 197.989 87.4883C197.61 87.4883 197.307 87.5742 197.08 87.7461C196.858 87.918 196.698 88.1719 196.6 88.5078C196.502 88.8398 196.453 89.248 196.453 89.7324V92.9727H195.077V86.4863H196.149L196.342 87.3594H196.418C196.551 87.1328 196.715 86.9473 196.91 86.8027C197.11 86.6543 197.33 86.5449 197.573 86.4746C197.815 86.4004 198.067 86.3633 198.328 86.3633C198.813 86.3633 199.221 86.4492 199.553 86.6211C199.885 86.7891 200.133 87.0469 200.297 87.3945H200.403C200.606 87.043 200.889 86.7832 201.252 86.6152C201.616 86.4473 202 86.3633 202.407 86.3633ZM212.186 86.3633C213.006 86.3633 213.625 86.5449 214.043 86.9082C214.465 87.2715 214.676 87.8379 214.676 88.6074V92.9727H213.698L213.434 92.0527H213.387C213.203 92.2871 213.014 92.4805 212.819 92.6328C212.623 92.7852 212.397 92.8984 212.139 92.9727C211.885 93.0508 211.575 93.0898 211.207 93.0898C210.821 93.0898 210.475 93.0195 210.17 92.8789C209.866 92.7344 209.625 92.5156 209.45 92.2227C209.274 91.9297 209.186 91.5586 209.186 91.1094C209.186 90.4414 209.434 89.9395 209.93 89.6035C210.43 89.2676 211.184 89.082 212.192 89.0469L213.317 89.0059V88.666C213.317 88.2168 213.211 87.8965 213 87.7051C212.793 87.5137 212.5 87.418 212.121 87.418C211.797 87.418 211.483 87.4648 211.178 87.5586C210.873 87.6523 210.577 87.7676 210.287 87.9043L209.842 86.9316C210.159 86.7637 210.518 86.627 210.92 86.5215C211.327 86.416 211.748 86.3633 212.186 86.3633ZM213.311 89.873L212.473 89.9023C211.785 89.9258 211.303 90.043 211.026 90.2539C210.748 90.4648 210.61 90.7539 210.61 91.1211C210.61 91.4414 210.705 91.6758 210.897 91.8242C211.088 91.9688 211.34 92.041 211.653 92.041C212.129 92.041 212.524 91.9062 212.836 91.6367C213.153 91.3633 213.311 90.9629 213.311 90.4355V89.873ZM220.723 95.8496V93.0957C220.723 92.9395 220.727 92.7695 220.735 92.5859C220.746 92.4023 220.764 92.2344 220.787 92.082H220.717C220.541 92.3672 220.297 92.6074 219.985 92.8027C219.672 92.9941 219.264 93.0898 218.76 93.0898C217.998 93.0898 217.385 92.8086 216.92 92.2461C216.455 91.6797 216.223 90.8438 216.223 89.7383C216.223 89.0039 216.33 88.3867 216.545 87.8867C216.76 87.3867 217.061 87.0078 217.448 86.75C217.838 86.4922 218.291 86.3633 218.807 86.3633C219.303 86.3633 219.705 86.4609 220.014 86.6562C220.327 86.8477 220.577 87.084 220.764 87.3652H220.811L220.963 86.4863H222.106V95.8496H220.723ZM219.17 91.9824C219.561 91.9824 219.873 91.9082 220.108 91.7598C220.342 91.6113 220.512 91.3867 220.618 91.0859C220.723 90.7812 220.78 90.4043 220.787 89.9551V89.7441C220.787 89.0098 220.668 88.4512 220.43 88.0684C220.192 87.6855 219.768 87.4941 219.159 87.4941C218.643 87.4941 218.26 87.6953 218.01 88.0977C217.76 88.4961 217.635 89.0508 217.635 89.7617C217.635 90.4805 217.76 91.0312 218.01 91.4141C218.264 91.793 218.651 91.9824 219.17 91.9824ZM229.735 86.4863V92.9727H228.651L228.463 92.0996H228.387C228.25 92.3223 228.077 92.5078 227.866 92.6562C227.655 92.8008 227.42 92.9082 227.162 92.9785C226.905 93.0527 226.633 93.0898 226.348 93.0898C225.86 93.0898 225.442 93.0078 225.094 92.8438C224.75 92.6758 224.487 92.418 224.303 92.0703C224.119 91.7227 224.028 91.2734 224.028 90.7227V86.4863H225.41V90.4648C225.41 90.9688 225.512 91.3457 225.715 91.5957C225.922 91.8457 226.243 91.9707 226.676 91.9707C227.094 91.9707 227.426 91.8848 227.672 91.7129C227.918 91.541 228.092 91.2871 228.194 90.9512C228.299 90.6152 228.352 90.2031 228.352 89.7148V86.4863H229.735ZM233.086 86.4863V92.9727H231.709V86.4863H233.086ZM232.407 84.002C232.618 84.002 232.799 84.0586 232.952 84.1719C233.108 84.2852 233.186 84.4805 233.186 84.7578C233.186 85.0312 233.108 85.2266 232.952 85.3438C232.799 85.457 232.618 85.5137 232.407 85.5137C232.188 85.5137 232.002 85.457 231.85 85.3438C231.702 85.2266 231.627 85.0312 231.627 84.7578C231.627 84.4805 231.702 84.2852 231.85 84.1719C232.002 84.0586 232.188 84.002 232.407 84.002Z" fill="#50525F"/>
</svg>
