<svg width="100" height="100" viewBox="0 0 100 100" fill="none" xmlns="http://www.w3.org/2000/svg">
<path d="M33.9283 17.8574C31.8178 17.8574 29.7279 18.2731 27.778 19.0808C25.8281 19.8885 24.0564 21.0723 22.5641 22.5646C21.0717 24.057 19.8879 25.8287 19.0802 27.7786C18.2726 29.7285 17.8569 31.8183 17.8569 33.9288C17.8569 36.0394 18.2726 38.1292 19.0802 40.0791C19.8879 42.029 21.0717 43.8007 22.5641 45.2931C24.0564 46.7854 25.8281 47.9692 27.778 48.7769C29.7279 49.5846 31.8178 50.0003 33.9283 50.0003C38.1907 50.0003 42.2785 48.307 45.2925 45.2931C48.3065 42.2791 49.9997 38.1913 49.9997 33.9288C49.9997 29.6664 48.3065 25.5786 45.2925 22.5646C42.2785 19.5507 38.1907 17.8574 33.9283 17.8574ZM23.214 33.9288C23.214 32.5218 23.4911 31.1286 24.0296 29.8287C24.568 28.5288 25.3572 27.3476 26.3521 26.3527C27.3471 25.3578 28.5282 24.5686 29.8281 24.0301C31.128 23.4917 32.5213 23.2146 33.9283 23.2146C35.3353 23.2146 36.7286 23.4917 38.0285 24.0301C39.3284 24.5686 40.5095 25.3578 41.5044 26.3527C42.4994 27.3476 43.2886 28.5288 43.827 29.8287C44.3654 31.1286 44.6426 32.5218 44.6426 33.9288C44.6426 36.7705 43.5138 39.4957 41.5044 41.505C39.4951 43.5143 36.7699 44.6431 33.9283 44.6431C31.0867 44.6431 28.3615 43.5143 26.3521 41.505C24.3428 39.4957 23.214 36.7705 23.214 33.9288ZM71.4283 25.0003C68.1131 25.0003 64.9337 26.3172 62.5895 28.6614C60.2453 31.0056 58.9283 34.1851 58.9283 37.5003C58.9283 40.8155 60.2453 43.9949 62.5895 46.3391C64.9337 48.6833 68.1131 50.0003 71.4283 50.0003C74.7435 50.0003 77.9229 48.6833 80.2671 46.3391C82.6113 43.9949 83.9283 40.8155 83.9283 37.5003C83.9283 34.1851 82.6113 31.0056 80.2671 28.6614C77.9229 26.3172 74.7435 25.0003 71.4283 25.0003ZM64.2854 37.5003C64.2854 35.6059 65.038 33.7891 66.3775 32.4495C67.7171 31.11 69.5339 30.3574 71.4283 30.3574C73.3227 30.3574 75.1395 31.11 76.479 32.4495C77.8186 33.7891 78.5712 35.6059 78.5712 37.5003C78.5712 39.3947 77.8186 41.2115 76.479 42.551C75.1395 43.8906 73.3227 44.6431 71.4283 44.6431C69.5339 44.6431 67.7171 43.8906 66.3775 42.551C65.038 41.2115 64.2854 39.3947 64.2854 37.5003ZM7.14258 65.1788C7.14258 63.0476 7.9892 61.0037 9.49618 59.4967C11.0032 57.9897 13.0471 57.1431 15.1783 57.1431H52.6783C54.8095 57.1431 56.8534 57.9897 58.3604 59.4967C59.8674 61.0037 60.714 63.0476 60.714 65.1788V67.0753C60.7094 67.3643 60.6892 67.6528 60.6533 67.9396C60.5727 68.6763 60.4415 69.4066 60.2604 70.1253C59.6699 72.4705 58.6172 74.6743 57.164 76.6074C53.5426 81.4396 46.6354 85.7146 33.9283 85.7146C21.2211 85.7146 14.314 81.4396 10.6926 76.6074C9.24063 74.674 8.18915 72.4702 7.59972 70.1253C7.36653 69.1916 7.21713 68.239 7.15329 67.2788C7.14884 67.211 7.14527 67.1432 7.14258 67.0753V65.1788ZM12.4997 66.9467V67.011L12.5319 67.3681C12.5676 67.7038 12.639 68.2074 12.7961 68.8253C13.2125 70.4772 13.9531 72.0299 14.9747 73.3931C17.3819 76.5967 22.5283 80.3574 33.9283 80.3574C45.3283 80.3574 50.4747 76.5967 52.8783 73.3931C54.1283 71.7288 54.7497 70.0646 55.0569 68.8253C55.2069 68.23 55.306 67.6231 55.3533 67.011L55.3569 66.9467V65.1788C55.3569 64.4684 55.0747 63.7871 54.5723 63.2848C54.07 62.7825 53.3887 62.5003 52.6783 62.5003H15.1783C14.4679 62.5003 13.7866 62.7825 13.2843 63.2848C12.7819 63.7871 12.4997 64.4684 12.4997 65.1788V66.9467ZM61.0712 77.2146C63.8319 78.061 67.239 78.5717 71.4211 78.5717C81.314 78.5717 86.8426 75.7288 89.8461 72.3003C91.0471 70.9436 91.937 69.3407 92.4533 67.6039C92.6572 66.9026 92.7877 66.1821 92.8426 65.4538L92.8497 65.286V65.1788C92.8497 63.0476 92.0031 61.0037 90.4961 59.4967C88.9891 57.9897 86.9452 57.1431 84.814 57.1431H61.0497C62.4569 58.611 63.4854 60.4503 63.9712 62.5003H84.8176C85.5218 62.5002 86.1978 62.7775 86.6991 63.2721C87.2004 63.7668 87.4868 64.4389 87.4961 65.1431C87.4645 65.4673 87.4023 65.7878 87.3104 66.1003C87.0117 67.0897 86.4996 68.0015 85.8104 68.7717C84.1283 70.7003 80.2854 73.2146 71.4211 73.2146C68.0604 73.2146 65.4211 72.8538 63.3461 72.2967C62.7957 74.0244 62.0314 75.6765 61.0712 77.2146Z" fill="#EAEAEC"/>
</svg>
