<svg width="24" height="31" viewBox="0 0 24 31" fill="none" xmlns="http://www.w3.org/2000/svg">
<g id="SVG">
<path id="Vector" fill-rule="evenodd" clip-rule="evenodd" d="M19.2783 7.77304C18.3156 6.73291 17.172 5.90867 15.9131 5.34779C14.6543 4.78691 13.3052 4.50046 11.9435 4.50493C6.22871 4.50493 1.57655 9.50399 1.57423 15.6496C1.5717 17.6065 2.04935 19.5292 2.95854 21.222L1.4873 26.9951L6.98408 25.4454C8.50562 26.3356 10.2089 26.8015 11.9393 26.8009H11.9435C17.6578 26.8009 22.3095 21.8013 22.3123 15.6562C22.3158 14.1906 22.0493 12.7389 21.5284 11.3855C21.0076 10.0321 20.2427 8.80418 19.2783 7.77304ZM11.9435 24.9198H11.9398C10.3971 24.9203 8.88255 24.4745 7.55352 23.6286L7.23882 23.4278L3.97701 24.3475L4.84766 20.9293L4.64266 20.5779C3.78009 19.1031 3.32309 17.394 3.32483 15.6496C3.32483 10.5427 7.1928 6.38749 11.9468 6.38749C14.2273 6.38309 16.416 7.35714 18.0316 9.09541C19.6472 10.8337 20.5573 13.1938 20.5617 15.6567C20.5598 20.7642 16.6937 24.9198 11.9435 24.9198ZM16.6705 17.9825C16.4116 17.8429 15.1365 17.1692 14.9004 17.0764C14.6642 16.9835 14.4899 16.9368 14.3175 17.2159C14.145 17.495 13.6481 18.1195 13.497 18.3078C13.3459 18.4961 13.1949 18.5166 12.9359 18.3771C12.677 18.2375 11.8417 17.9438 10.852 16.995C10.0818 16.2566 9.56211 15.3449 9.41103 15.0663C9.25996 14.7877 9.39476 14.6366 9.52445 14.498C9.64113 14.373 9.78337 14.1727 9.91306 14.0101C10.0428 13.8474 10.086 13.7309 10.172 13.5452C10.258 13.3595 10.2152 13.1968 10.1506 13.0577C10.086 12.9187 9.56768 11.5477 9.352 10.9899C9.14142 10.4468 8.92806 10.5206 8.76908 10.512C8.61801 10.504 8.44369 10.502 8.27216 10.502C8.14104 10.5057 8.01202 10.5385 7.89317 10.5985C7.77432 10.6584 7.66819 10.7442 7.58141 10.8504C7.34387 11.1295 6.6745 11.8042 6.6745 13.1737C6.6745 14.5432 7.60418 15.8685 7.73248 16.0543C7.86078 16.24 9.55932 19.0528 12.1583 20.2591C12.6409 20.4823 13.134 20.678 13.6355 20.8455C14.2561 21.0573 14.8209 21.0277 15.2671 20.9559C15.765 20.8761 16.8011 20.2822 17.0163 19.6316C17.2316 18.981 17.232 18.4238 17.1674 18.3078C17.1028 18.1918 16.9299 18.1216 16.6705 17.9825Z" fill="black"/>
</g>
</svg>
